<svg width="30" height="30" viewBox="0 0 30 30" fill="none" xmlns="http://www.w3.org/2000/svg">
<path d="M29.6667 6.99992V1.66659C29.6667 1.31296 29.5262 0.973824 29.2761 0.723775C29.0261 0.473727 28.6869 0.333252 28.3333 0.333252H1.66666C1.31304 0.333252 0.9739 0.473727 0.723852 0.723775C0.473803 0.973824 0.333328 1.31296 0.333328 1.66659V6.99992H29.6667Z" fill="#2EC5CE"/>
<path d="M0.333328 9.6665V28.3332C0.333328 28.6868 0.473803 29.0259 0.723852 29.276C0.9739 29.526 1.31304 29.6665 1.66666 29.6665H8.33333V9.6665H0.333328Z" fill="#D6B1FF"/>
<path d="M11 29.6665H28.3333C28.687 29.6665 29.0261 29.526 29.2761 29.276C29.5262 29.0259 29.6667 28.6868 29.6667 28.3332V9.6665H11V29.6665Z" fill="#8C30F5"/>
</svg>
