<svg width="32" height="32" viewBox="0 0 32 32" fill="none" xmlns="http://www.w3.org/2000/svg">
<path d="M12 13.3333H2.66666C2.31304 13.3333 1.9739 13.1928 1.72385 12.9428C1.4738 12.6927 1.33333 12.3536 1.33333 12V2.66665C1.33333 2.31302 1.4738 1.97388 1.72385 1.72384C1.9739 1.47379 2.31304 1.33331 2.66666 1.33331H12C12.3536 1.33331 12.6928 1.47379 12.9428 1.72384C13.1929 1.97388 13.3333 2.31302 13.3333 2.66665V12C13.3333 12.3536 13.1929 12.6927 12.9428 12.9428C12.6928 13.1928 12.3536 13.3333 12 13.3333Z" fill="#8C30F5"/>
<path d="M12 30.6666H2.66666C2.31304 30.6666 1.9739 30.5262 1.72385 30.2761C1.4738 30.0261 1.33333 29.6869 1.33333 29.3333V20C1.33333 19.6463 1.4738 19.3072 1.72385 19.0571C1.9739 18.8071 2.31304 18.6666 2.66666 18.6666H12C12.3536 18.6666 12.6928 18.8071 12.9428 19.0571C13.1929 19.3072 13.3333 19.6463 13.3333 20V29.3333C13.3333 29.6869 13.1929 30.0261 12.9428 30.2761C12.6928 30.5262 12.3536 30.6666 12 30.6666Z" fill="#8C30F5"/>
<path d="M17.3333 2.66663H30.6667V5.33329H17.3333V2.66663Z" fill="#2EC5CE"/>
<path d="M30.6667 20H17.3333V22.6667H30.6667V20Z" fill="#2EC5CE"/>
<path d="M30.6667 26.6666H17.3333V29.3333H30.6667V26.6666Z" fill="#D6B1FF"/>
<path d="M30.6667 9.33331H17.3333V12H30.6667V9.33331Z" fill="#D6B1FF"/>
</svg>
