<svg width="85" height="24" viewBox="0 0 85 24" fill="none" xmlns="http://www.w3.org/2000/svg">
<g clip-path="url(#clip0)">
<path d="M9.59675 3.97266V10.7424H3.42846V3.97266H0.5V20.1327H3.42846V13.5828H9.59675V20.1327H12.5252V3.97266H9.59675Z" fill="#33475B"/>
<path d="M21.8974 14.9089C21.8974 15.5566 21.6422 16.1777 21.1878 16.6356C20.7335 17.0936 20.1173 17.3508 19.4747 17.3508C18.8322 17.3508 18.216 17.0936 17.7616 16.6356C17.3073 16.1777 17.052 15.5566 17.052 14.9089V7.9873H14.2742V14.9089C14.2742 16.2978 14.8216 17.6298 15.796 18.6119C16.7703 19.5939 18.0918 20.1457 19.4697 20.1457C20.8476 20.1457 22.1691 19.5939 23.1435 18.6119C24.1178 17.6298 24.6652 16.2978 24.6652 14.9089V7.9873H21.8974V14.9089Z" fill="#33475B"/>
<path d="M42.4786 8.70035C42.4786 7.28161 43.4098 6.83183 44.4299 6.83183C45.2521 6.83183 46.3383 7.46238 47.0485 8.22743L48.8678 6.06678C47.9596 4.82882 46.1173 3.97266 44.6093 3.97266C41.5962 3.97266 39.4167 5.75151 39.4167 8.70035C39.4167 14.1714 46.0513 12.4359 46.0513 15.4976C46.0513 16.442 45.1416 17.2764 44.0999 17.2764C42.4571 17.2764 41.9248 16.4665 41.17 15.6104L39.1512 17.7262C40.4426 19.3243 42.0352 20.1356 43.9435 20.1356C46.806 20.1356 49.1089 18.3351 49.1089 15.5207C49.1089 9.44659 42.4743 11.3339 42.4743 8.70035" fill="#33475B"/>
<path d="M83.5228 17.5512C81.8814 17.5512 81.4151 16.8353 81.4151 15.7391V10.887H83.9662V8.42844H81.4151V5.18457L78.5985 6.45869V16.3421C78.5985 18.8701 80.3289 20.1443 82.7021 20.1443C83.0743 20.1511 83.4463 20.1211 83.8127 20.0546L84.4999 17.5049C84.19 17.5266 83.8342 17.5483 83.5228 17.5483" fill="#33475B"/>
<path d="M32.4706 8.06837C31.0946 8.06837 30.1347 8.47042 29.2064 9.38877V4.06958H26.4243V13.9285C26.4243 17.6192 29.0715 20.1472 32.0459 20.1472C35.346 20.1472 38.2486 17.5744 38.2486 14.1092C38.2486 10.6875 35.577 8.06982 32.4706 8.06982V8.06837ZM32.4534 17.3256C31.8291 17.3256 31.2188 17.139 30.6997 16.7894C30.1806 16.4398 29.776 15.9429 29.5371 15.3615C29.2982 14.7801 29.2356 14.1404 29.3574 13.5232C29.4792 12.906 29.7799 12.3391 30.2213 11.8942C30.6628 11.4492 31.2253 11.1462 31.8376 11.0234C32.4499 10.9006 33.0846 10.9636 33.6614 11.2044C34.2382 11.4453 34.7312 11.8531 35.078 12.3763C35.4249 12.8995 35.61 13.5147 35.61 14.1439C35.61 14.9878 35.2774 15.797 34.6854 16.3937C34.0935 16.9904 33.2906 17.3256 32.4534 17.3256Z" fill="#33475B"/>
<path d="M62.6792 13.9618C62.6792 10.4909 59.7823 7.92383 56.4765 7.92383C53.5021 7.92383 50.8549 10.4518 50.8549 14.1426V24.0072H53.637V18.6808C54.5639 19.5977 55.5252 20.0012 56.8997 20.0012C60.0061 20.0012 62.6778 17.385 62.6778 13.9618H62.6792ZM60.0449 13.9271C60.0449 14.5564 59.8597 15.1715 59.5129 15.6947C59.166 16.2179 58.673 16.6258 58.0962 16.8666C57.5194 17.1074 56.8848 17.1704 56.2724 17.0476C55.6601 16.9249 55.0977 16.6218 54.6562 16.1769C54.2148 15.7319 53.9141 15.165 53.7923 14.5478C53.6705 13.9306 53.733 13.2909 53.9719 12.7095C54.2109 12.1281 54.6155 11.6312 55.1346 11.2816C55.6537 10.932 56.2639 10.7454 56.8883 10.7454C57.7254 10.7454 58.5283 11.0806 59.1203 11.6773C59.7123 12.274 60.0449 13.0832 60.0449 13.9271Z" fill="#33475B"/>
<path d="M71.667 7.78787V4.97063C72.0364 4.79667 72.3491 4.52054 72.5689 4.17438C72.7886 3.82823 72.9062 3.42628 72.9081 3.01535V2.95027C72.9081 2.37493 72.6814 1.82315 72.2778 1.41632C71.8741 1.00949 71.3267 0.780939 70.7559 0.780939H70.6914C70.1205 0.780939 69.5731 1.00949 69.1695 1.41632C68.7659 1.82315 68.5391 2.37493 68.5391 2.95027V3.01535C68.541 3.42628 68.6587 3.82823 68.8784 4.17438C69.0981 4.52054 69.4109 4.79667 69.7802 4.97063V7.78787C68.7186 7.95157 67.7188 8.3951 66.8819 9.07356L59.2171 3.05584C59.2714 2.8574 59.3003 2.6528 59.3032 2.44698C59.3041 1.96352 59.1626 1.49067 58.8968 1.08823C58.631 0.685791 58.2528 0.371847 57.81 0.186108C57.3671 0.000369021 56.8796 -0.0488204 56.409 0.0447614C55.9384 0.138343 55.5059 0.370492 55.1663 0.711844C54.8266 1.0532 54.595 1.48842 54.5008 1.96245C54.4065 2.43649 54.4539 2.92805 54.6369 3.37496C54.8198 3.82186 55.1302 4.20404 55.5287 4.47314C55.9271 4.74224 56.3958 4.88618 56.8755 4.88675C57.2949 4.88486 57.7065 4.77217 58.0693 4.55991L65.6178 10.4793C64.9396 11.5118 64.5857 12.7264 64.6023 13.9647C64.619 15.203 65.0053 16.4075 65.7111 17.4211L63.4154 19.7351C63.2297 19.6753 63.0363 19.6436 62.8415 19.6411C62.4477 19.6414 62.0629 19.7593 61.7356 19.98C61.4083 20.2007 61.1533 20.5142 61.0027 20.8809C60.8521 21.2477 60.8128 21.6511 60.8897 22.0404C60.9666 22.4296 61.1562 22.7872 61.4347 23.0678C61.7131 23.3485 62.0678 23.5396 62.454 23.6171C62.8402 23.6946 63.2405 23.655 63.6044 23.5033C63.9682 23.3515 64.2793 23.0944 64.4982 22.7646C64.7171 22.4347 64.8341 22.0468 64.8344 21.6499C64.832 21.4534 64.8005 21.2585 64.7412 21.0714L67.0125 18.782C67.7531 19.3565 68.6143 19.7525 69.5302 19.9397C70.4461 20.1268 71.3924 20.1003 72.2965 19.8619C73.2006 19.6236 74.0387 19.1799 74.7464 18.5647C75.4541 17.9495 76.0128 17.1793 76.3796 16.3129C76.7464 15.4465 76.9115 14.507 76.8625 13.5664C76.8135 12.6257 76.5515 11.7088 76.0966 10.886C75.6418 10.0631 75.0061 9.35614 74.2383 8.81913C73.4705 8.28212 72.591 7.92936 71.667 7.78787ZM70.7258 17.0523C70.1045 17.0518 69.4973 16.8656 68.981 16.5173C68.4646 16.169 68.0623 15.6742 67.8249 15.0955C67.5875 14.5168 67.5256 13.8801 67.647 13.266C67.7685 12.6518 68.0678 12.0878 68.5073 11.6451C68.9467 11.2023 69.5064 10.9009 70.1158 10.7787C70.7252 10.6566 71.3568 10.7193 71.9308 10.9589C72.5048 11.1984 72.9955 11.6042 73.3408 12.1248C73.6862 12.6454 73.8706 13.2574 73.8709 13.8837C73.8709 14.7237 73.5399 15.5293 72.9506 16.1232C72.3613 16.7172 71.562 17.0509 70.7287 17.0509" fill="#FF7A59"/>
</g>
<defs>
<clipPath id="clip0">
<rect width="84" height="24" fill="white" transform="translate(0.5)"/>
</clipPath>
</defs>
</svg>
