<svg width="485" height="380" viewBox="0 0 485 380" fill="none" xmlns="http://www.w3.org/2000/svg">
<g filter="url(#filter0_d)">
<rect x="20" y="10" width="445" height="340" rx="8" fill="white"/>
<g clip-path="url(#clip0)">
<path d="M89.2663 70.3497C89.0624 69.8622 88.8713 69.3497 88.6673 68.9122L87.7242 66.8247L87.686 66.7872C84.882 60.7872 81.8869 54.6872 78.7134 48.6872L78.586 48.4372C78.2673 47.8497 77.9487 47.1997 77.6173 46.5997C77.2095 45.8872 76.8144 45.1247 76.1644 44.3997C75.5308 43.6411 74.7334 43.0299 73.8298 42.6103C72.9261 42.1906 71.9387 41.9729 70.9389 41.9729C69.9391 41.9729 68.9517 42.1906 68.048 42.6103C67.1444 43.0299 66.347 43.6411 65.7134 44.3997C65.1144 45.1247 64.6683 45.8872 64.2605 46.5997C63.9418 47.2497 63.6232 47.8872 63.2918 48.4747L63.1644 48.7247C60.0418 54.7247 56.9958 60.8247 54.1918 66.8247L54.1154 66.8997C53.835 67.5497 53.5036 68.2247 53.185 68.9497C52.9811 69.3872 52.7771 69.8622 52.5732 70.3872C52.0227 71.7619 51.8469 73.2536 52.0631 74.7153C52.2794 76.177 52.8802 77.5581 53.8065 78.7227C54.7327 79.8873 55.9524 80.795 57.3453 81.3565C58.7381 81.918 60.2561 82.1138 61.7497 81.9247C63.1816 81.7398 64.5603 81.2721 65.8026 80.5497C67.4595 79.6372 69.0526 78.3122 70.8369 76.3997C72.6212 78.3122 74.2526 79.6372 75.8713 80.5622C77.4278 81.4582 79.1905 81.9528 80.9948 81.9997C83.0841 82.0082 85.1061 81.275 86.6873 79.9356C88.2686 78.5961 89.3023 76.7408 89.5977 74.7122C89.9391 73.2544 89.8236 71.7295 89.2663 70.3372V70.3497ZM70.9644 72.4247C68.7722 69.6747 67.3448 67.1497 66.8605 64.9872C66.6598 64.1859 66.6166 63.3544 66.733 62.5372C66.8222 61.8997 67.0644 61.3372 67.3958 60.8622C68.1605 59.7747 69.4987 59.0997 70.9644 59.0997C71.6604 59.0788 72.3509 59.2278 72.9737 59.5333C73.5966 59.8387 74.1324 60.291 74.533 60.8497C74.8644 61.3497 75.1065 61.8997 75.183 62.5372C75.3105 63.2622 75.2595 64.0997 75.0556 64.9872C74.5713 67.1122 73.1438 69.6622 70.9644 72.4247ZM87.2016 74.2747C87.0568 75.3046 86.6394 76.2794 85.9909 77.1018C85.3424 77.9242 84.4855 78.5657 83.5056 78.9622C82.5369 79.3622 81.4663 79.4747 80.4212 79.3622C79.4016 79.2372 78.382 78.9122 77.3369 78.3122C75.6017 77.2603 74.0414 75.9534 72.7105 74.4372C75.3869 71.1872 77.0056 68.2247 77.6173 65.5872C77.9105 64.3372 77.9487 63.2122 77.8213 62.1747C77.6621 61.1913 77.2882 60.2532 76.7252 59.4247C76.0823 58.5263 75.2242 57.7965 74.2264 57.2995C73.2286 56.8026 72.1215 56.5537 71.0026 56.5747C68.6448 56.5747 66.5418 57.6497 65.2673 59.4122C64.6936 60.2386 64.3228 61.1842 64.184 62.1747C64.0183 63.2247 64.0565 64.3872 64.3879 65.5872C64.9997 68.2247 66.6565 71.2247 69.2948 74.4622C67.9865 76.0074 66.4225 77.3258 64.6683 78.3622C63.6105 78.9622 62.6036 79.2747 61.584 79.3997C59.9984 79.5989 58.3966 79.1762 57.127 78.2236C55.8573 77.2709 55.0224 75.8653 54.8036 74.3122C54.6761 73.3122 54.7654 72.3122 55.1732 71.1872C55.3007 70.7872 55.4918 70.3872 55.6958 69.9122C55.9761 69.2622 56.3075 68.5872 56.6261 67.9122L56.6771 67.8247C59.4301 61.8622 62.4379 55.7747 65.5605 49.8122L65.6879 49.5622C66.0065 48.9622 66.3252 48.3247 66.6565 47.7247C66.9879 47.0872 67.3448 46.4747 67.8036 45.9747C68.2008 45.5097 68.697 45.1358 69.2574 44.8792C69.8178 44.6226 70.4288 44.4897 71.0472 44.4897C71.6657 44.4897 72.2766 44.6226 72.837 44.8792C73.3975 45.1358 73.8937 45.5097 74.2909 45.9747C74.7369 46.4747 75.1065 47.0872 75.4379 47.7247C75.7565 48.3247 76.0752 48.9747 76.4065 49.5622L76.534 49.8122C79.6438 55.7747 82.6516 61.8622 85.4556 67.8247L85.4938 67.8622C85.8252 68.5122 86.1056 69.2372 86.4242 69.8622C86.6281 70.3497 86.832 70.7372 86.9595 71.1497C87.2016 72.2747 87.3291 73.2747 87.2016 74.2747ZM104.943 72.1497C103.982 72.1635 103.031 71.965 102.16 71.569C101.288 71.173 100.519 70.5896 99.9085 69.8622C98.5372 68.3121 97.8094 66.3135 97.8693 64.2622C97.8483 62.1662 98.5996 60.1332 99.985 58.5372C100.626 57.8005 101.424 57.2105 102.322 56.8088C103.22 56.4071 104.198 56.2034 105.185 56.2122C106.114 56.1872 107.034 56.3944 107.859 56.8143C108.684 57.2341 109.387 57.8528 109.901 58.6122L110.028 56.6497H113.75V71.7497H110.015L109.888 69.5497C109.358 70.3605 108.625 71.025 107.76 71.4801C106.894 71.9351 105.925 72.1656 104.943 72.1497ZM105.911 68.5497C106.651 68.5497 107.301 68.3497 107.912 67.9872C108.473 67.5872 108.932 67.0622 109.289 66.4247C109.608 65.7872 109.773 65.0247 109.773 64.1747C109.823 63.4364 109.676 62.6982 109.348 62.0321C109.02 61.366 108.521 60.7949 107.9 60.3747C107.303 60.0101 106.614 59.8169 105.911 59.8169C105.209 59.8169 104.52 60.0101 103.923 60.3747C103.362 60.7747 102.904 61.2997 102.547 61.9372C102.21 62.6402 102.044 63.4105 102.062 64.1872C102.013 64.9254 102.159 65.6637 102.488 66.3298C102.816 66.9959 103.315 67.5669 103.936 67.9872C104.535 68.3497 105.185 68.5497 105.911 68.5497ZM120.122 52.5747C120.122 53.0122 120.046 53.4122 119.842 53.7372C119.638 54.0497 119.358 54.3372 118.988 54.5372C118.618 54.7372 118.223 54.8122 117.815 54.8122C117.408 54.8122 117 54.7372 116.63 54.5372C116.281 54.3463 115.987 54.0709 115.776 53.7372C115.579 53.3811 115.482 52.9798 115.496 52.5747C115.496 52.1247 115.585 51.7247 115.776 51.4122C115.98 51.0372 116.273 50.8122 116.63 50.6122C117 50.4122 117.395 50.3247 117.815 50.3247C118.221 50.3155 118.622 50.4098 118.98 50.5982C119.337 50.7866 119.639 51.0628 119.855 51.3997C120.04 51.7641 120.132 52.1675 120.122 52.5747ZM115.789 71.6997V56.6247H119.842V71.7247H115.776L115.789 71.6997ZM130.675 60.5747V60.6247C130.484 60.5372 130.229 60.4997 130.038 60.4622C129.783 60.4122 129.579 60.4122 129.337 60.4122C128.203 60.4122 127.349 60.7372 126.788 61.4122C126.176 62.0997 125.896 63.0622 125.896 64.2997V71.7122H121.83V56.6122H125.564L125.692 58.8997C126.1 58.0997 126.584 57.4997 127.272 57.0497C127.957 56.6125 128.763 56.3941 129.579 56.4247C129.872 56.4247 130.153 56.4497 130.395 56.4997C130.522 56.5372 130.599 56.5372 130.675 56.5747V60.5747ZM132.307 71.6997V50.4247H136.359V58.5497C136.933 57.8247 137.583 57.2622 138.399 56.8247C139.69 56.2037 141.157 56.0276 142.563 56.3247C143.969 56.6218 145.232 57.3748 146.148 58.4622C147.522 60.0154 148.25 62.0191 148.187 64.0747C148.208 66.1707 147.457 68.2036 146.071 69.7997C145.43 70.5364 144.633 71.1264 143.734 71.5281C142.836 71.9298 141.859 72.1334 140.871 72.1247C139.942 72.1496 139.022 71.9424 138.197 71.5226C137.372 71.1028 136.67 70.4841 136.156 69.7247L136.028 71.6872L132.307 71.7247V71.6997ZM140.145 68.5497C140.871 68.5497 141.521 68.3497 142.133 67.9872C142.694 67.5872 143.153 67.0622 143.509 66.4247C143.841 65.7872 143.994 65.0247 143.994 64.1747C143.994 63.3372 143.841 62.5747 143.509 61.9372C143.175 61.3225 142.705 60.7887 142.133 60.3747C141.536 60.0101 140.848 59.8169 140.145 59.8169C139.442 59.8169 138.753 60.0101 138.157 60.3747C137.583 60.7747 137.137 61.2997 136.767 61.9372C136.43 62.6402 136.264 63.4105 136.283 64.1872C136.233 64.9254 136.38 65.6637 136.708 66.3298C137.037 66.9959 137.536 67.5669 138.157 67.9872C138.756 68.3497 139.406 68.5497 140.145 68.5497ZM149.716 71.7122V56.6122H153.451L153.578 58.5747C154.047 57.8224 154.713 57.2068 155.506 56.7914C156.299 56.3761 157.191 56.1761 158.09 56.2122C159.117 56.1948 160.127 56.4748 160.993 57.0173C161.859 57.5598 162.543 58.3406 162.959 59.2622C163.405 60.2122 163.647 61.3872 163.647 62.6997V71.7497H159.581V63.2247C159.581 62.1747 159.339 61.3497 158.855 60.7372C158.37 60.1372 157.708 59.8122 156.866 59.8122C156.255 59.8122 155.719 59.9372 155.248 60.2122C154.802 60.4997 154.432 60.8622 154.152 61.3747C153.868 61.8927 153.728 62.4744 153.744 63.0622V71.7122H149.716ZM165.673 71.7122V50.4122H169.739V58.5372C170.29 57.8081 171.006 57.215 171.831 56.8049C172.656 56.3948 173.568 56.179 174.493 56.1747C175.453 56.1609 176.404 56.3594 177.276 56.7554C178.147 57.1514 178.917 57.7347 179.527 58.4622C180.892 60.0153 181.615 62.0129 181.554 64.0622C181.576 66.1584 180.824 68.1917 179.438 69.7872C178.797 70.5239 177.999 71.1139 177.101 71.5156C176.203 71.9173 175.225 72.1209 174.238 72.1122C173.309 72.1371 172.389 71.9299 171.564 71.5101C170.739 71.0903 170.036 70.4716 169.522 69.7122L169.408 71.6747L165.673 71.7122ZM173.55 68.5497C174.289 68.5497 174.939 68.3497 175.538 67.9872C176.111 67.5872 176.558 67.0622 176.927 66.4247C177.246 65.7872 177.411 65.0247 177.411 64.1747C177.461 63.4364 177.315 62.6982 176.986 62.0321C176.658 61.366 176.159 60.7949 175.538 60.3747C174.941 60.0101 174.253 59.8169 173.55 59.8169C172.847 59.8169 172.158 60.0101 171.561 60.3747C171.001 60.7747 170.542 61.2997 170.185 61.9372C169.829 62.634 169.662 63.4088 169.701 64.1872C169.651 64.9254 169.798 65.6637 170.126 66.3298C170.454 66.9959 170.953 67.5669 171.574 67.9872C172.173 68.3497 172.785 68.5497 173.55 68.5497Z" fill="#FF385C"/>
</g>
<g opacity="0.3">
<path fill-rule="evenodd" clip-rule="evenodd" d="M67.9298 116.187C65.5439 117.401 64.351 118.829 64.351 120.469C65.3679 120.59 66.2088 121.02 66.8738 121.759C67.5387 122.498 67.8712 123.354 67.8712 124.325C67.8712 125.358 67.5485 126.228 66.9031 126.937C66.2577 127.646 65.4461 128 64.4683 128C63.3731 128 62.4246 127.539 61.6228 126.618C60.821 125.697 60.4201 124.578 60.4201 123.262C60.4201 119.315 62.5517 116.227 66.8151 114L67.9298 116.187ZM59.5098 116.187C57.1043 117.401 55.9016 118.829 55.9016 120.469C56.9381 120.59 57.7888 121.02 58.4537 121.759C59.1186 122.498 59.4511 123.354 59.4511 124.325C59.4511 125.358 59.1235 126.228 58.4684 126.937C57.8132 127.646 56.9967 128 56.0189 128C54.9237 128 53.9801 127.539 53.1881 126.618C52.396 125.697 52 124.578 52 123.262C52 119.315 54.1219 116.227 58.3657 114L59.5098 116.187Z" fill="#2EC5CE"/>
</g>
<path d="M87.1705 123.909H85.5852V137H87.1705V123.909ZM101.394 132.986C101.394 134.827 99.9881 135.67 98.8631 135.67C97.6103 135.67 96.7154 134.75 96.7154 133.318V127.182H95.2069V133.42C95.2069 135.926 96.5364 137.128 98.3773 137.128C99.8603 137.128 100.832 136.335 101.292 135.338H101.394V137H102.903V127.182H101.394V132.986ZM112.62 129.381C112.147 127.987 111.086 127.054 109.143 127.054C107.072 127.054 105.538 128.23 105.538 129.892C105.538 131.247 106.343 132.155 108.146 132.577L109.782 132.96C110.773 133.19 111.24 133.663 111.24 134.341C111.24 135.185 110.345 135.875 108.939 135.875C107.705 135.875 106.931 135.344 106.663 134.29L105.231 134.648C105.583 136.316 106.957 137.205 108.964 137.205C111.246 137.205 112.799 135.958 112.799 134.264C112.799 132.896 111.943 132.033 110.191 131.605L108.734 131.247C107.571 130.96 107.047 130.57 107.047 129.815C107.047 128.972 107.941 128.358 109.143 128.358C110.46 128.358 111.003 129.087 111.265 129.764L112.62 129.381ZM119.187 137.205C121.181 137.205 122.638 136.207 123.099 134.724L121.641 134.315C121.258 135.338 120.369 135.849 119.187 135.849C117.416 135.849 116.195 134.705 116.125 132.602H123.252V131.963C123.252 128.307 121.079 127.054 119.033 127.054C116.374 127.054 114.61 129.151 114.61 132.168C114.61 135.185 116.349 137.205 119.187 137.205ZM116.125 131.298C116.227 129.771 117.307 128.409 119.033 128.409C120.67 128.409 121.718 129.636 121.718 131.298H116.125ZM129.254 137.205C131.146 137.205 131.785 136.028 132.118 135.491H132.297V137H133.754V123.909H132.246V128.741H132.118C131.785 128.23 131.197 127.054 129.28 127.054C126.8 127.054 125.086 129.023 125.086 132.116C125.086 135.236 126.8 137.205 129.254 137.205ZM129.459 135.849C127.567 135.849 126.595 134.188 126.595 132.091C126.595 130.02 127.541 128.409 129.459 128.409C131.3 128.409 132.271 129.892 132.271 132.091C132.271 134.315 131.274 135.849 129.459 135.849ZM141.789 123.909V134.852C141.789 136.252 142.505 137.077 143.937 137.077C144.371 137.077 144.8 137 145.062 136.923L144.755 135.619C144.608 135.664 144.474 135.709 144.116 135.722C143.451 135.741 143.297 135.396 143.297 134.443V123.909H141.789ZM150.154 137.205C152.047 137.205 152.686 136.028 153.018 135.491H153.197V137H154.654V127.182H153.146V128.741H153.018C152.686 128.23 152.098 127.054 150.18 127.054C147.7 127.054 145.987 129.023 145.987 132.116C145.987 135.236 147.7 137.205 150.154 137.205ZM150.359 135.849C148.467 135.849 147.495 134.188 147.495 132.091C147.495 130.02 148.441 128.409 150.359 128.409C152.2 128.409 153.172 129.892 153.172 132.091C153.172 134.315 152.174 135.849 150.359 135.849ZM159.135 131.094C159.135 129.381 160.196 128.409 161.641 128.409C163.041 128.409 163.891 129.323 163.891 130.864V137H165.4V130.761C165.4 128.256 164.064 127.054 162.076 127.054C160.593 127.054 159.672 127.719 159.212 128.716H159.084V127.182H157.627V137H159.135V131.094ZM171.863 137.205C173.756 137.205 174.395 136.028 174.727 135.491H174.906V137H176.363V123.909H174.855V128.741H174.727C174.395 128.23 173.807 127.054 171.889 127.054C169.409 127.054 167.696 129.023 167.696 132.116C167.696 135.236 169.409 137.205 171.863 137.205ZM172.068 135.849C170.176 135.849 169.204 134.188 169.204 132.091C169.204 130.02 170.15 128.409 172.068 128.409C173.909 128.409 174.881 129.892 174.881 132.091C174.881 134.315 173.883 135.849 172.068 135.849ZM179.336 137H180.844V127.182H179.336V137ZM180.103 125.545C180.691 125.545 181.177 125.085 181.177 124.523C181.177 123.96 180.691 123.5 180.103 123.5C179.515 123.5 179.029 123.96 179.029 124.523C179.029 125.085 179.515 125.545 180.103 125.545ZM187.979 127.182H185.781V126.185C185.781 125.213 186.19 124.702 187.187 124.702C187.621 124.702 187.877 124.804 188.031 124.855L188.465 123.551C188.235 123.449 187.775 123.295 187.033 123.295C185.627 123.295 184.272 124.139 184.272 125.827V127.182H182.687V128.46H184.272V137H185.781V128.46H187.979V127.182ZM191.065 140.682C192.427 140.682 193.385 139.96 193.954 138.432L198.135 127.207L196.486 127.182L193.775 135.006H193.673L190.963 127.182H189.327L192.957 137.051L192.676 137.818C192.126 139.314 191.449 139.455 190.349 139.173L189.966 140.503C190.119 140.58 190.554 140.682 191.065 140.682ZM208.901 137.205C210.793 137.205 211.432 136.028 211.764 135.491H211.943V137H213.401V127.182H211.892V128.741H211.764C211.432 128.23 210.844 127.054 208.926 127.054C206.446 127.054 204.733 129.023 204.733 132.116C204.733 135.236 206.446 137.205 208.901 137.205ZM209.105 135.849C207.213 135.849 206.241 134.188 206.241 132.091C206.241 130.02 207.188 128.409 209.105 128.409C210.946 128.409 211.918 129.892 211.918 132.091C211.918 134.315 210.92 135.849 209.105 135.849ZM217.881 131.094C217.881 129.381 218.942 128.409 220.387 128.409C221.787 128.409 222.637 129.323 222.637 130.864V137H224.146V130.761C224.146 128.256 222.81 127.054 220.822 127.054C219.339 127.054 218.418 127.719 217.958 128.716H217.83V127.182H216.373V137H217.881V131.094ZM230.61 137.205C232.502 137.205 233.141 136.028 233.473 135.491H233.652V137H235.11V123.909H233.601V128.741H233.473C233.141 128.23 232.553 127.054 230.635 127.054C228.155 127.054 226.442 129.023 226.442 132.116C226.442 135.236 228.155 137.205 230.61 137.205ZM230.814 135.849C228.922 135.849 227.95 134.188 227.95 132.091C227.95 130.02 228.896 128.409 230.814 128.409C232.655 128.409 233.627 129.892 233.627 132.091C233.627 134.315 232.629 135.849 230.814 135.849ZM247.133 137.205C249.306 137.205 250.738 135.875 250.994 134.136H249.485C249.204 135.21 248.309 135.849 247.133 135.849C245.343 135.849 244.193 134.366 244.193 132.091C244.193 129.866 245.369 128.409 247.133 128.409C248.463 128.409 249.255 129.227 249.485 130.122H250.994C250.738 128.281 249.178 127.054 247.107 127.054C244.448 127.054 242.684 129.151 242.684 132.142C242.684 135.082 244.372 137.205 247.133 137.205ZM253.199 137H254.708V130.787C254.708 129.464 255.756 128.486 257.188 128.486C257.565 128.486 257.846 128.556 258.057 128.665L258.568 127.386C258.262 127.169 257.859 127.028 257.316 127.028C256.127 127.028 255.11 127.693 254.759 128.665H254.656V127.182H253.199V137ZM263.925 137.205C265.919 137.205 267.377 136.207 267.837 134.724L266.379 134.315C265.996 135.338 265.107 135.849 263.925 135.849C262.154 135.849 260.933 134.705 260.863 132.602H267.99V131.963C267.99 128.307 265.817 127.054 263.771 127.054C261.112 127.054 259.348 129.151 259.348 132.168C259.348 135.185 261.087 137.205 263.925 137.205ZM260.863 131.298C260.965 129.771 262.046 128.409 263.771 128.409C265.408 128.409 266.456 129.636 266.456 131.298H260.863ZM273.992 137.205C275.884 137.205 276.524 136.028 276.856 135.491H277.035V137H278.492V127.182H276.984V128.741H276.856C276.524 128.23 275.936 127.054 274.018 127.054C271.538 127.054 269.825 129.023 269.825 132.116C269.825 135.236 271.538 137.205 273.992 137.205ZM274.197 135.849C272.305 135.849 271.333 134.188 271.333 132.091C271.333 130.02 272.279 128.409 274.197 128.409C276.038 128.409 277.009 129.892 277.009 132.091C277.009 134.315 276.012 135.849 274.197 135.849ZM285.735 127.182H283.638V124.83H282.129V127.182H280.646V128.46H282.129V134.597C282.129 136.31 283.51 137.128 284.789 137.128C285.351 137.128 285.709 137.026 285.914 136.949L285.607 135.594C285.479 135.619 285.274 135.67 284.942 135.67C284.277 135.67 283.638 135.466 283.638 134.188V128.46H285.735V127.182ZM292.015 137.205C294.009 137.205 295.466 136.207 295.927 134.724L294.469 134.315C294.086 135.338 293.197 135.849 292.015 135.849C290.244 135.849 289.023 134.705 288.953 132.602H296.08V131.963C296.08 128.307 293.907 127.054 291.861 127.054C289.202 127.054 287.438 129.151 287.438 132.168C287.438 135.185 289.177 137.205 292.015 137.205ZM288.953 131.298C289.055 129.771 290.135 128.409 291.861 128.409C293.498 128.409 294.546 129.636 294.546 131.298H288.953ZM302.082 137.205C303.974 137.205 304.613 136.028 304.946 135.491H305.125V137H306.582V123.909H305.074V128.741H304.946C304.613 128.23 304.025 127.054 302.108 127.054C299.628 127.054 297.915 129.023 297.915 132.116C297.915 135.236 299.628 137.205 302.082 137.205ZM302.287 135.849C300.395 135.849 299.423 134.188 299.423 132.091C299.423 130.02 300.369 128.409 302.287 128.409C304.128 128.409 305.099 129.892 305.099 132.091C305.099 134.315 304.102 135.849 302.287 135.849ZM318.324 137.205C320.216 137.205 320.856 136.028 321.188 135.491H321.367V137H322.824V127.182H321.316V128.741H321.188C320.856 128.23 320.268 127.054 318.35 127.054C315.87 127.054 314.157 129.023 314.157 132.116C314.157 135.236 315.87 137.205 318.324 137.205ZM318.529 135.849C316.637 135.849 315.665 134.188 315.665 132.091C315.665 130.02 316.611 128.409 318.529 128.409C320.37 128.409 321.341 129.892 321.341 132.091C321.341 134.315 320.344 135.849 318.529 135.849ZM330.859 123.909V134.852C330.859 136.252 331.575 137.077 333.007 137.077C333.442 137.077 333.87 137 334.132 136.923L333.825 135.619C333.678 135.664 333.544 135.709 333.186 135.722C332.521 135.741 332.368 135.396 332.368 134.443V123.909H330.859ZM339.225 137.205C341.117 137.205 341.756 136.028 342.088 135.491H342.267V137H343.725V127.182H342.216V128.741H342.088C341.756 128.23 341.168 127.054 339.25 127.054C336.77 127.054 335.057 129.023 335.057 132.116C335.057 135.236 336.77 137.205 339.225 137.205ZM339.429 135.849C337.537 135.849 336.566 134.188 336.566 132.091C336.566 130.02 337.512 128.409 339.429 128.409C341.27 128.409 342.242 129.892 342.242 132.091C342.242 134.315 341.245 135.849 339.429 135.849ZM348.206 131.094C348.206 129.381 349.267 128.409 350.711 128.409C352.111 128.409 352.961 129.323 352.961 130.864V137H354.47V130.761C354.47 128.256 353.134 127.054 351.146 127.054C349.663 127.054 348.743 127.719 348.282 128.716H348.154V127.182H346.697V137H348.206V131.094ZM360.934 137.205C362.826 137.205 363.465 136.028 363.797 135.491H363.976V137H365.434V123.909H363.925V128.741H363.797C363.465 128.23 362.877 127.054 360.959 127.054C358.479 127.054 356.766 129.023 356.766 132.116C356.766 135.236 358.479 137.205 360.934 137.205ZM361.138 135.849C359.246 135.849 358.275 134.188 358.275 132.091C358.275 130.02 359.221 128.409 361.138 128.409C362.979 128.409 363.951 129.892 363.951 132.091C363.951 134.315 362.954 135.849 361.138 135.849ZM368.406 137H369.915V127.182H368.406V137ZM369.173 125.545C369.761 125.545 370.247 125.085 370.247 124.523C370.247 123.96 369.761 123.5 369.173 123.5C368.585 123.5 368.099 123.96 368.099 124.523C368.099 125.085 368.585 125.545 369.173 125.545ZM374.186 131.094C374.186 129.381 375.247 128.409 376.692 128.409C378.092 128.409 378.942 129.323 378.942 130.864V137H380.45V130.761C380.45 128.256 379.114 127.054 377.126 127.054C375.643 127.054 374.723 127.719 374.263 128.716H374.135V127.182H372.678V137H374.186V131.094ZM387.17 140.886C389.522 140.886 391.414 139.812 391.414 137.281V127.182H389.957V128.741H389.803C389.471 128.23 388.857 127.054 386.94 127.054C384.46 127.054 382.747 129.023 382.747 132.04C382.747 135.108 384.536 136.847 386.914 136.847C388.832 136.847 389.445 135.722 389.778 135.185H389.906V137.179C389.906 138.815 388.755 139.557 387.17 139.557C385.387 139.557 384.76 138.617 384.357 138.074L383.156 138.918C383.769 139.947 384.977 140.886 387.17 140.886ZM387.119 135.491C385.227 135.491 384.255 134.06 384.255 132.014C384.255 130.02 385.201 128.409 387.119 128.409C388.96 128.409 389.931 129.892 389.931 132.014C389.931 134.188 388.934 135.491 387.119 135.491ZM85.3807 172.682H86.8892V167.491H87.017C87.3494 168.028 87.9886 169.205 89.8807 169.205C92.3352 169.205 94.0483 167.236 94.0483 164.116C94.0483 161.023 92.3352 159.054 89.8551 159.054C87.9375 159.054 87.3494 160.23 87.017 160.741H86.8381V159.182H85.3807V172.682ZM86.8636 164.091C86.8636 161.892 87.8352 160.409 89.6761 160.409C91.5938 160.409 92.5398 162.02 92.5398 164.091C92.5398 166.188 91.5682 167.849 89.6761 167.849C87.8608 167.849 86.8636 166.315 86.8636 164.091ZM100.057 169.205C101.949 169.205 102.588 168.028 102.92 167.491H103.099V169H104.557V159.182H103.048V160.741H102.92C102.588 160.23 102 159.054 100.082 159.054C97.6023 159.054 95.8892 161.023 95.8892 164.116C95.8892 167.236 97.6023 169.205 100.057 169.205ZM100.261 167.849C98.3693 167.849 97.3977 166.188 97.3977 164.091C97.3977 162.02 98.3438 160.409 100.261 160.409C102.102 160.409 103.074 161.892 103.074 164.091C103.074 166.315 102.077 167.849 100.261 167.849ZM111.492 172.886C113.844 172.886 115.737 171.812 115.737 169.281V159.182H114.279V160.741H114.126C113.793 160.23 113.18 159.054 111.262 159.054C108.782 159.054 107.069 161.023 107.069 164.04C107.069 167.108 108.859 168.847 111.237 168.847C113.154 168.847 113.768 167.722 114.1 167.185H114.228V169.179C114.228 170.815 113.077 171.557 111.492 171.557C109.709 171.557 109.082 170.617 108.68 170.074L107.478 170.918C108.092 171.947 109.3 172.886 111.492 172.886ZM111.441 167.491C109.549 167.491 108.577 166.06 108.577 164.014C108.577 162.02 109.523 160.409 111.441 160.409C113.282 160.409 114.254 161.892 114.254 164.014C114.254 166.188 113.256 167.491 111.441 167.491ZM122.614 169.205C124.609 169.205 126.066 168.207 126.526 166.724L125.069 166.315C124.685 167.338 123.797 167.849 122.614 167.849C120.844 167.849 119.623 166.705 119.553 164.602H126.68V163.963C126.68 160.307 124.506 159.054 122.461 159.054C119.802 159.054 118.038 161.151 118.038 164.168C118.038 167.185 119.776 169.205 122.614 169.205ZM119.553 163.298C119.655 161.771 120.735 160.409 122.461 160.409C124.097 160.409 125.146 161.636 125.146 163.298H119.553ZM138.409 159.182H136.21V158.185C136.21 157.213 136.619 156.702 137.616 156.702C138.051 156.702 138.307 156.804 138.46 156.855L138.895 155.551C138.665 155.449 138.205 155.295 137.463 155.295C136.057 155.295 134.702 156.139 134.702 157.827V159.182H133.116V160.46H134.702V169H136.21V160.46H138.409V159.182ZM144.108 169.205C146.767 169.205 148.556 167.185 148.556 164.142C148.556 161.074 146.767 159.054 144.108 159.054C141.449 159.054 139.659 161.074 139.659 164.142C139.659 167.185 141.449 169.205 144.108 169.205ZM144.108 167.849C142.088 167.849 141.167 166.111 141.167 164.142C141.167 162.173 142.088 160.409 144.108 160.409C146.127 160.409 147.048 162.173 147.048 164.142C147.048 166.111 146.127 167.849 144.108 167.849ZM150.859 169H152.368V162.787C152.368 161.464 153.416 160.486 154.848 160.486C155.225 160.486 155.506 160.556 155.717 160.665L156.229 159.386C155.922 159.169 155.519 159.028 154.976 159.028C153.787 159.028 152.77 159.693 152.419 160.665H152.317V159.182H150.859V169ZM162.83 169H164.338V162.864C164.338 161.425 165.387 160.409 166.563 160.409C167.707 160.409 168.506 161.157 168.506 162.276V169H170.04V162.608C170.04 161.342 170.833 160.409 172.213 160.409C173.287 160.409 174.208 160.978 174.208 162.429V169H175.716V162.429C175.716 160.121 174.476 159.054 172.725 159.054C171.319 159.054 170.289 159.7 169.784 160.716H169.682C169.196 159.668 168.34 159.054 167.049 159.054C165.77 159.054 164.824 159.668 164.415 160.716H164.287V159.182H162.83V169ZM179.094 172.682C180.456 172.682 181.415 171.96 181.984 170.432L186.164 159.207L184.515 159.182L181.805 167.006H181.702L178.992 159.182H177.356L180.987 169.051L180.705 169.818C180.156 171.314 179.478 171.455 178.379 171.173L177.995 172.503C178.148 172.58 178.583 172.682 179.094 172.682ZM200.177 161.381C199.704 159.987 198.643 159.054 196.7 159.054C194.629 159.054 193.095 160.23 193.095 161.892C193.095 163.247 193.9 164.155 195.703 164.577L197.339 164.96C198.33 165.19 198.796 165.663 198.796 166.341C198.796 167.185 197.901 167.875 196.495 167.875C195.262 167.875 194.488 167.344 194.22 166.29L192.788 166.648C193.139 168.316 194.514 169.205 196.521 169.205C198.803 169.205 200.356 167.958 200.356 166.264C200.356 164.896 199.499 164.033 197.748 163.605L196.291 163.247C195.127 162.96 194.603 162.57 194.603 161.815C194.603 160.972 195.498 160.358 196.7 160.358C198.017 160.358 198.56 161.087 198.822 161.764L200.177 161.381ZM206.897 159.182H204.8V156.83H203.292V159.182H201.809V160.46H203.292V166.597C203.292 168.31 204.672 169.128 205.951 169.128C206.513 169.128 206.871 169.026 207.076 168.949L206.769 167.594C206.641 167.619 206.436 167.67 206.104 167.67C205.439 167.67 204.8 167.466 204.8 166.188V160.46H206.897V159.182ZM212.768 169.205C214.66 169.205 215.299 168.028 215.631 167.491H215.81V169H217.268V159.182H215.759V160.741H215.631C215.299 160.23 214.711 159.054 212.793 159.054C210.313 159.054 208.6 161.023 208.6 164.116C208.6 167.236 210.313 169.205 212.768 169.205ZM212.972 167.849C211.08 167.849 210.109 166.188 210.109 164.091C210.109 162.02 211.055 160.409 212.972 160.409C214.813 160.409 215.785 161.892 215.785 164.091C215.785 166.315 214.788 167.849 212.972 167.849ZM220.24 169H221.749V162.787C221.749 161.464 222.797 160.486 224.229 160.486C224.606 160.486 224.887 160.556 225.098 160.665L225.609 159.386C225.303 159.169 224.9 159.028 224.357 159.028C223.168 159.028 222.151 159.693 221.8 160.665H221.697V159.182H220.24V169ZM232.033 159.182H229.937V156.83H228.428V159.182H226.945V160.46H228.428V166.597C228.428 168.31 229.809 169.128 231.087 169.128C231.65 169.128 232.008 169.026 232.212 168.949L231.906 167.594C231.778 167.619 231.573 167.67 231.241 167.67C230.576 167.67 229.937 167.466 229.937 166.188V160.46H232.033V159.182ZM240.49 164.986C240.49 166.827 239.084 167.67 237.959 167.67C236.706 167.67 235.811 166.75 235.811 165.318V159.182H234.303V165.42C234.303 167.926 235.632 169.128 237.473 169.128C238.956 169.128 239.928 168.335 240.388 167.338H240.49V169H241.999V159.182H240.49V164.986ZM244.762 172.682H246.27V167.491H246.398C246.73 168.028 247.369 169.205 249.262 169.205C251.716 169.205 253.429 167.236 253.429 164.116C253.429 161.023 251.716 159.054 249.236 159.054C247.318 159.054 246.73 160.23 246.398 160.741H246.219V159.182H244.762V172.682ZM246.244 164.091C246.244 161.892 247.216 160.409 249.057 160.409C250.975 160.409 251.921 162.02 251.921 164.091C251.921 166.188 250.949 167.849 249.057 167.849C247.242 167.849 246.244 166.315 246.244 164.091ZM263.017 169H264.5L266.648 161.457H266.801L268.949 169H270.432L273.423 159.182H271.838L269.716 166.673H269.614L267.543 159.182H265.932L263.835 166.699H263.733L261.611 159.182H260.026L263.017 169ZM275.418 169H276.926V159.182H275.418V169ZM276.185 157.545C276.773 157.545 277.259 157.085 277.259 156.523C277.259 155.96 276.773 155.5 276.185 155.5C275.597 155.5 275.111 155.96 275.111 156.523C275.111 157.085 275.597 157.545 276.185 157.545ZM283.959 159.182H281.863V156.83H280.354V159.182H278.871V160.46H280.354V166.597C280.354 168.31 281.735 169.128 283.013 169.128C283.576 169.128 283.934 169.026 284.138 168.949L283.831 167.594C283.703 167.619 283.499 167.67 283.167 167.67C282.502 167.67 281.863 167.466 281.863 166.188V160.46H283.959V159.182ZM287.948 163.094C287.948 161.381 289.041 160.409 290.53 160.409C291.949 160.409 292.806 161.304 292.806 162.864V169H294.314V162.761C294.314 160.237 292.972 159.054 290.965 159.054C289.418 159.054 288.536 159.7 288.076 160.716H287.948V155.909H286.439V169H287.948V163.094ZM297.074 169H298.583V159.182H297.074V169ZM297.841 157.545C298.429 157.545 298.915 157.085 298.915 156.523C298.915 155.96 298.429 155.5 297.841 155.5C297.253 155.5 296.767 155.96 296.767 156.523C296.767 157.085 297.253 157.545 297.841 157.545ZM302.854 163.094C302.854 161.381 303.915 160.409 305.36 160.409C306.76 160.409 307.61 161.323 307.61 162.864V169H309.118V162.761C309.118 160.256 307.782 159.054 305.794 159.054C304.311 159.054 303.391 159.719 302.931 160.716H302.803V159.182H301.346V169H302.854V163.094ZM320.645 169.205C322.537 169.205 323.176 168.028 323.508 167.491H323.687V169H325.145V159.182H323.636V160.741H323.508C323.176 160.23 322.588 159.054 320.67 159.054C318.19 159.054 316.477 161.023 316.477 164.116C316.477 167.236 318.19 169.205 320.645 169.205ZM320.849 167.849C318.957 167.849 317.986 166.188 317.986 164.091C317.986 162.02 318.932 160.409 320.849 160.409C322.69 160.409 323.662 161.892 323.662 164.091C323.662 166.315 322.665 167.849 320.849 167.849ZM335.404 169H336.887L339.035 161.457H339.188L341.336 169H342.819L345.81 159.182H344.225L342.103 166.673H342.001L339.93 159.182H338.319L336.222 166.699H336.12L333.998 159.182H332.412L335.404 169ZM351.587 169.205C353.581 169.205 355.039 168.207 355.499 166.724L354.042 166.315C353.658 167.338 352.77 167.849 351.587 167.849C349.816 167.849 348.596 166.705 348.525 164.602H355.652V163.963C355.652 160.307 353.479 159.054 351.434 159.054C348.775 159.054 347.01 161.151 347.01 164.168C347.01 167.185 348.749 169.205 351.587 169.205ZM348.525 163.298C348.627 161.771 349.708 160.409 351.434 160.409C353.07 160.409 354.118 161.636 354.118 163.298H348.525ZM362.064 169.205C364.058 169.205 365.515 168.207 365.975 166.724L364.518 166.315C364.135 167.338 363.246 167.849 362.064 167.849C360.293 167.849 359.072 166.705 359.002 164.602H366.129V163.963C366.129 160.307 363.956 159.054 361.91 159.054C359.251 159.054 357.487 161.151 357.487 164.168C357.487 167.185 359.225 169.205 362.064 169.205ZM359.002 163.298C359.104 161.771 360.184 160.409 361.91 160.409C363.547 160.409 364.595 161.636 364.595 163.298H359.002ZM368.424 169H369.932V165.325L370.987 164.347L374.662 169H376.58L372.125 163.375L376.273 159.182H374.407L370.111 163.554H369.932V155.909H368.424V169ZM379.314 169.102C379.947 169.102 380.465 168.585 380.465 167.952C380.465 167.319 379.947 166.801 379.314 166.801C378.681 166.801 378.164 167.319 378.164 167.952C378.164 168.585 378.681 169.102 379.314 169.102ZM387.723 157.315H391.839V169H393.425V157.315H397.541V155.909H387.723V157.315ZM401.292 163.094C401.292 161.381 402.385 160.409 403.874 160.409C405.293 160.409 406.15 161.304 406.15 162.864V169H407.658V162.761C407.658 160.237 406.316 159.054 404.309 159.054C402.762 159.054 401.88 159.7 401.419 160.716H401.292V155.909H399.783V169H401.292V163.094ZM414.534 169.205C416.529 169.205 417.986 168.207 418.446 166.724L416.989 166.315C416.605 167.338 415.717 167.849 414.534 167.849C412.764 167.849 411.543 166.705 411.472 164.602H418.6V163.963C418.6 160.307 416.426 159.054 414.381 159.054C411.722 159.054 409.958 161.151 409.958 164.168C409.958 167.185 411.696 169.205 414.534 169.205ZM411.472 163.298C411.575 161.771 412.655 160.409 414.381 160.409C416.017 160.409 417.066 161.636 417.066 163.298H411.472ZM85.5852 201H93.2557V199.594H87.1705V187.909H85.5852V201ZM99.2131 201.205C101.105 201.205 101.744 200.028 102.077 199.491H102.256V201H103.713V191.182H102.205V192.741H102.077C101.744 192.23 101.156 191.054 99.2386 191.054C96.7585 191.054 95.0455 193.023 95.0455 196.116C95.0455 199.236 96.7585 201.205 99.2131 201.205ZM99.4176 199.849C97.5256 199.849 96.554 198.188 96.554 196.091C96.554 194.02 97.5 192.409 99.4176 192.409C101.259 192.409 102.23 193.892 102.23 196.091C102.23 198.315 101.233 199.849 99.4176 199.849ZM108.194 195.094C108.194 193.381 109.255 192.409 110.7 192.409C112.099 192.409 112.95 193.323 112.95 194.864V201H114.458V194.761C114.458 192.256 113.122 191.054 111.134 191.054C109.651 191.054 108.731 191.719 108.271 192.716H108.143V191.182H106.685V201H108.194V195.094ZM120.922 201.205C122.814 201.205 123.453 200.028 123.786 199.491H123.965V201H125.422V187.909H123.914V192.741H123.786C123.453 192.23 122.865 191.054 120.948 191.054C118.468 191.054 116.754 193.023 116.754 196.116C116.754 199.236 118.468 201.205 120.922 201.205ZM121.127 199.849C119.235 199.849 118.263 198.188 118.263 196.091C118.263 194.02 119.209 192.409 121.127 192.409C122.968 192.409 123.939 193.892 123.939 196.091C123.939 198.315 122.942 199.849 121.127 199.849ZM128.394 201H129.903V191.182H128.394V201ZM129.161 189.545C129.749 189.545 130.235 189.085 130.235 188.523C130.235 187.96 129.749 187.5 129.161 187.5C128.573 187.5 128.088 187.96 128.088 188.523C128.088 189.085 128.573 189.545 129.161 189.545ZM137.038 191.182H134.839V190.185C134.839 189.213 135.248 188.702 136.245 188.702C136.68 188.702 136.936 188.804 137.089 188.855L137.524 187.551C137.294 187.449 136.833 187.295 136.092 187.295C134.686 187.295 133.331 188.139 133.331 189.827V191.182H131.745V192.46H133.331V201H134.839V192.46H137.038V191.182ZM140.124 204.682C141.485 204.682 142.444 203.96 143.013 202.432L147.193 191.207L145.544 191.182L142.834 199.006H142.732L140.021 191.182H138.385L142.016 201.051L141.735 201.818C141.185 203.314 140.507 203.455 139.408 203.173L139.024 204.503C139.178 204.58 139.612 204.682 140.124 204.682ZM163.047 187.909V196.449C163.047 198.366 161.73 199.747 159.544 199.747C157.358 199.747 156.042 198.366 156.042 196.449V187.909H154.456V196.577C154.456 199.261 156.463 201.23 159.544 201.23C162.625 201.23 164.632 199.261 164.632 196.577V187.909H163.047ZM169.383 187.909H167.798V201H169.383V187.909ZM177.624 201H179.21V196.756L180.846 194.915L185.397 201H187.315L181.817 193.815L187.315 187.909H185.244L179.363 194.403H179.21V187.909H177.624V201ZM189.777 201H191.286V191.182H189.777V201ZM190.544 189.545C191.132 189.545 191.618 189.085 191.618 188.523C191.618 187.96 191.132 187.5 190.544 187.5C189.956 187.5 189.47 187.96 189.47 188.523C189.47 189.085 189.956 189.545 190.544 189.545ZM198.319 191.182H196.222V188.83H194.713V191.182H193.23V192.46H194.713V198.597C194.713 200.31 196.094 201.128 197.373 201.128C197.935 201.128 198.293 201.026 198.498 200.949L198.191 199.594C198.063 199.619 197.858 199.67 197.526 199.67C196.861 199.67 196.222 199.466 196.222 198.188V192.46H198.319V191.182ZM205.65 201H207.159V191.182H205.65V201ZM206.417 189.545C207.005 189.545 207.491 189.085 207.491 188.523C207.491 187.96 207.005 187.5 206.417 187.5C205.829 187.5 205.343 187.96 205.343 188.523C205.343 189.085 205.829 189.545 206.417 189.545ZM216.876 193.381C216.403 191.987 215.342 191.054 213.399 191.054C211.328 191.054 209.794 192.23 209.794 193.892C209.794 195.247 210.599 196.155 212.402 196.577L214.038 196.96C215.029 197.19 215.496 197.663 215.496 198.341C215.496 199.185 214.601 199.875 213.194 199.875C211.961 199.875 211.187 199.344 210.919 198.29L209.487 198.648C209.839 200.316 211.213 201.205 213.22 201.205C215.502 201.205 217.055 199.958 217.055 198.264C217.055 196.896 216.199 196.033 214.447 195.605L212.99 195.247C211.827 194.96 211.302 194.57 211.302 193.815C211.302 192.972 212.197 192.358 213.399 192.358C214.716 192.358 215.259 193.087 215.521 193.764L216.876 193.381ZM231.343 193.381C230.87 191.987 229.809 191.054 227.866 191.054C225.795 191.054 224.261 192.23 224.261 193.892C224.261 195.247 225.066 196.155 226.869 196.577L228.505 196.96C229.496 197.19 229.962 197.663 229.962 198.341C229.962 199.185 229.067 199.875 227.661 199.875C226.428 199.875 225.654 199.344 225.386 198.29L223.954 198.648C224.305 200.316 225.68 201.205 227.687 201.205C229.969 201.205 231.522 199.958 231.522 198.264C231.522 196.896 230.665 196.033 228.914 195.605L227.457 195.247C226.293 194.96 225.769 194.57 225.769 193.815C225.769 192.972 226.664 192.358 227.866 192.358C229.183 192.358 229.726 193.087 229.988 193.764L231.343 193.381ZM233.793 201H235.301V191.182H233.793V201ZM234.56 189.545C235.148 189.545 235.634 189.085 235.634 188.523C235.634 187.96 235.148 187.5 234.56 187.5C233.972 187.5 233.486 187.96 233.486 188.523C233.486 189.085 233.972 189.545 234.56 189.545ZM238.064 201H239.573V194.864C239.573 193.425 240.621 192.409 241.797 192.409C242.941 192.409 243.74 193.157 243.74 194.276V201H245.275V194.608C245.275 193.342 246.067 192.409 247.448 192.409C248.522 192.409 249.442 192.978 249.442 194.429V201H250.951V194.429C250.951 192.121 249.711 191.054 247.959 191.054C246.553 191.054 245.524 191.7 245.019 192.716H244.917C244.431 191.668 243.574 191.054 242.283 191.054C241.005 191.054 240.059 191.668 239.65 192.716H239.522V191.182H238.064V201ZM253.709 204.682H255.217V199.491H255.345C255.678 200.028 256.317 201.205 258.209 201.205C260.663 201.205 262.376 199.236 262.376 196.116C262.376 193.023 260.663 191.054 258.183 191.054C256.266 191.054 255.678 192.23 255.345 192.741H255.166V191.182H253.709V204.682ZM255.192 196.091C255.192 193.892 256.163 192.409 258.004 192.409C259.922 192.409 260.868 194.02 260.868 196.091C260.868 198.188 259.896 199.849 258.004 199.849C256.189 199.849 255.192 198.315 255.192 196.091ZM264.678 187.909V198.852C264.678 200.252 265.393 201.077 266.825 201.077C267.26 201.077 267.688 201 267.95 200.923L267.643 199.619C267.496 199.664 267.362 199.709 267.004 199.722C266.339 199.741 266.186 199.396 266.186 198.443V187.909H264.678ZM273.452 201.205C275.447 201.205 276.904 200.207 277.364 198.724L275.907 198.315C275.523 199.338 274.635 199.849 273.452 199.849C271.682 199.849 270.461 198.705 270.39 196.602H277.518V195.963C277.518 192.307 275.344 191.054 273.299 191.054C270.64 191.054 268.876 193.151 268.876 196.168C268.876 199.185 270.614 201.205 273.452 201.205ZM270.39 195.298C270.493 193.771 271.573 192.409 273.299 192.409C274.935 192.409 275.983 193.636 275.983 195.298H270.39ZM288.582 201.205C290.474 201.205 291.113 200.028 291.446 199.491H291.625V201H293.082V191.182H291.574V192.741H291.446C291.113 192.23 290.525 191.054 288.608 191.054C286.128 191.054 284.415 193.023 284.415 196.116C284.415 199.236 286.128 201.205 288.582 201.205ZM288.787 199.849C286.895 199.849 285.923 198.188 285.923 196.091C285.923 194.02 286.869 192.409 288.787 192.409C290.628 192.409 291.599 193.892 291.599 196.091C291.599 198.315 290.602 199.849 288.787 199.849ZM297.563 195.094C297.563 193.381 298.624 192.409 300.069 192.409C301.469 192.409 302.319 193.323 302.319 194.864V201H303.827V194.761C303.827 192.256 302.491 191.054 300.503 191.054C299.02 191.054 298.1 191.719 297.64 192.716H297.512V191.182H296.055V201H297.563V195.094ZM310.291 201.205C312.183 201.205 312.822 200.028 313.155 199.491H313.334V201H314.791V187.909H313.283V192.741H313.155C312.822 192.23 312.234 191.054 310.317 191.054C307.837 191.054 306.124 193.023 306.124 196.116C306.124 199.236 307.837 201.205 310.291 201.205ZM310.496 199.849C308.604 199.849 307.632 198.188 307.632 196.091C307.632 194.02 308.578 192.409 310.496 192.409C312.337 192.409 313.308 193.892 313.308 196.091C313.308 198.315 312.311 199.849 310.496 199.849ZM324.335 195.094C324.335 193.381 325.428 192.409 326.917 192.409C328.336 192.409 329.192 193.304 329.192 194.864V201H330.701V194.761C330.701 192.237 329.359 191.054 327.352 191.054C325.805 191.054 324.923 191.7 324.462 192.716H324.335V187.909H322.826V201H324.335V195.094ZM333.461 201H334.969V191.182H333.461V201ZM334.228 189.545C334.816 189.545 335.302 189.085 335.302 188.523C335.302 187.96 334.816 187.5 334.228 187.5C333.64 187.5 333.154 187.96 333.154 188.523C333.154 189.085 333.64 189.545 334.228 189.545ZM341.695 204.886C344.048 204.886 345.94 203.812 345.94 201.281V191.182H344.482V192.741H344.329C343.996 192.23 343.383 191.054 341.465 191.054C338.985 191.054 337.272 193.023 337.272 196.04C337.272 199.108 339.062 200.847 341.44 200.847C343.357 200.847 343.971 199.722 344.303 199.185H344.431V201.179C344.431 202.815 343.281 203.557 341.695 203.557C339.912 203.557 339.286 202.617 338.883 202.074L337.681 202.918C338.295 203.947 339.503 204.886 341.695 204.886ZM341.644 199.491C339.752 199.491 338.781 198.06 338.781 196.014C338.781 194.02 339.727 192.409 341.644 192.409C343.485 192.409 344.457 193.892 344.457 196.014C344.457 198.188 343.46 199.491 341.644 199.491ZM350.21 195.094C350.21 193.381 351.303 192.409 352.792 192.409C354.211 192.409 355.067 193.304 355.067 194.864V201H356.576V194.761C356.576 192.237 355.234 191.054 353.227 191.054C351.68 191.054 350.798 191.7 350.337 192.716H350.21V187.909H348.701V201H350.21V195.094ZM359.336 187.909V198.852C359.336 200.252 360.052 201.077 361.483 201.077C361.918 201.077 362.346 201 362.608 200.923L362.302 199.619C362.155 199.664 362.02 199.709 361.662 199.722C360.998 199.741 360.844 199.396 360.844 198.443V187.909H359.336ZM364.966 204.682C366.327 204.682 367.286 203.96 367.855 202.432L372.035 191.207L370.386 191.182L367.676 199.006H367.574L364.863 191.182H363.227L366.858 201.051L366.576 201.818C366.027 203.314 365.349 203.455 364.25 203.173L363.866 204.503C364.02 204.58 364.454 204.682 364.966 204.682ZM85.3807 233H86.8892V223.182H85.3807V233ZM86.1477 221.545C86.7358 221.545 87.2216 221.085 87.2216 220.523C87.2216 219.96 86.7358 219.5 86.1477 219.5C85.5597 219.5 85.0739 219.96 85.0739 220.523C85.0739 221.085 85.5597 221.545 86.1477 221.545ZM91.1607 227.094C91.1607 225.381 92.2218 224.409 93.6664 224.409C95.0662 224.409 95.9164 225.323 95.9164 226.864V233H97.4249V226.761C97.4249 224.256 96.089 223.054 94.101 223.054C92.6181 223.054 91.6976 223.719 91.2374 224.716H91.1096V223.182H89.6522V233H91.1607V227.094ZM104.451 223.182H102.355V220.83H100.846V223.182H99.3633V224.46H100.846V230.597C100.846 232.31 102.227 233.128 103.505 233.128C104.068 233.128 104.426 233.026 104.63 232.949L104.324 231.594C104.196 231.619 103.991 231.67 103.659 231.67C102.994 231.67 102.355 231.466 102.355 230.188V224.46H104.451V223.182ZM112.908 228.986C112.908 230.827 111.502 231.67 110.377 231.67C109.124 231.67 108.229 230.75 108.229 229.318V223.182H106.721V229.42C106.721 231.926 108.05 233.128 109.891 233.128C111.374 233.128 112.346 232.335 112.806 231.338H112.908V233H114.417V223.182H112.908V228.986ZM117.18 233H118.688V223.182H117.18V233ZM117.947 221.545C118.535 221.545 119.02 221.085 119.02 220.523C119.02 219.96 118.535 219.5 117.947 219.5C117.358 219.5 116.873 219.96 116.873 220.523C116.873 221.085 117.358 221.545 117.947 221.545ZM125.721 223.182H123.624V220.83H122.116V223.182H120.633V224.46H122.116V230.597C122.116 232.31 123.496 233.128 124.775 233.128C125.337 233.128 125.695 233.026 125.9 232.949L125.593 231.594C125.465 231.619 125.261 231.67 124.928 231.67C124.263 231.67 123.624 231.466 123.624 230.188V224.46H125.721V223.182ZM127.99 233H129.499V223.182H127.99V233ZM128.757 221.545C129.345 221.545 129.831 221.085 129.831 220.523C129.831 219.96 129.345 219.5 128.757 219.5C128.169 219.5 127.683 219.96 127.683 220.523C127.683 221.085 128.169 221.545 128.757 221.545ZM140.29 223.182H138.654L135.943 231.006H135.841L133.131 223.182H131.494L135.125 233H136.659L140.29 223.182ZM146.046 233.205C148.04 233.205 149.498 232.207 149.958 230.724L148.501 230.315C148.117 231.338 147.229 231.849 146.046 231.849C144.275 231.849 143.055 230.705 142.984 228.602H150.111V227.963C150.111 224.307 147.938 223.054 145.893 223.054C143.233 223.054 141.469 225.151 141.469 228.168C141.469 231.185 143.208 233.205 146.046 233.205ZM142.984 227.298C143.086 225.771 144.167 224.409 145.893 224.409C147.529 224.409 148.577 225.636 148.577 227.298H142.984ZM154.656 231.21H153.02L152.943 231.926C152.758 233.658 152.393 235.384 152.227 236.196H153.378C153.684 235.327 154.336 233.358 154.554 231.901L154.656 231.21ZM169.468 225.381C168.995 223.987 167.934 223.054 165.991 223.054C163.92 223.054 162.386 224.23 162.386 225.892C162.386 227.247 163.191 228.155 164.994 228.577L166.63 228.96C167.621 229.19 168.087 229.663 168.087 230.341C168.087 231.185 167.192 231.875 165.786 231.875C164.553 231.875 163.779 231.344 163.511 230.29L162.079 230.648C162.43 232.316 163.805 233.205 165.812 233.205C168.094 233.205 169.647 231.958 169.647 230.264C169.647 228.896 168.79 228.033 167.039 227.605L165.582 227.247C164.418 226.96 163.894 226.57 163.894 225.815C163.894 224.972 164.789 224.358 165.991 224.358C167.308 224.358 167.851 225.087 168.113 225.764L169.468 225.381ZM175.906 233.205C178.566 233.205 180.355 231.185 180.355 228.142C180.355 225.074 178.566 223.054 175.906 223.054C173.247 223.054 171.458 225.074 171.458 228.142C171.458 231.185 173.247 233.205 175.906 233.205ZM175.906 231.849C173.887 231.849 172.966 230.111 172.966 228.142C172.966 226.173 173.887 224.409 175.906 224.409C177.926 224.409 178.847 226.173 178.847 228.142C178.847 230.111 177.926 231.849 175.906 231.849ZM191.428 233.205C193.32 233.205 193.959 232.028 194.292 231.491H194.471V233H195.928V223.182H194.419V224.741H194.292C193.959 224.23 193.371 223.054 191.453 223.054C188.973 223.054 187.26 225.023 187.26 228.116C187.26 231.236 188.973 233.205 191.428 233.205ZM191.632 231.849C189.74 231.849 188.769 230.188 188.769 228.091C188.769 226.02 189.715 224.409 191.632 224.409C193.473 224.409 194.445 225.892 194.445 228.091C194.445 230.315 193.448 231.849 191.632 231.849ZM200.409 227.094C200.409 225.381 201.47 224.409 202.914 224.409C204.314 224.409 205.164 225.323 205.164 226.864V233H206.673V226.761C206.673 224.256 205.337 223.054 203.349 223.054C201.866 223.054 200.946 223.719 200.485 224.716H200.358V223.182H198.9V233H200.409V227.094ZM210.05 236.682C211.411 236.682 212.37 235.96 212.939 234.432L217.119 223.207L215.47 223.182L212.76 231.006H212.657L209.947 223.182H208.311L211.942 233.051L211.66 233.818C211.111 235.314 210.433 235.455 209.334 235.173L208.95 236.503C209.104 236.58 209.538 236.682 210.05 236.682ZM222.752 233.205C225.411 233.205 227.201 231.185 227.201 228.142C227.201 225.074 225.411 223.054 222.752 223.054C220.093 223.054 218.303 225.074 218.303 228.142C218.303 231.185 220.093 233.205 222.752 233.205ZM222.752 231.849C220.732 231.849 219.812 230.111 219.812 228.142C219.812 226.173 220.732 224.409 222.752 224.409C224.772 224.409 225.692 226.173 225.692 228.142C225.692 230.111 224.772 231.849 222.752 231.849ZM231.012 227.094C231.012 225.381 232.073 224.409 233.518 224.409C234.918 224.409 235.768 225.323 235.768 226.864V233H237.276V226.761C237.276 224.256 235.941 223.054 233.953 223.054C232.47 223.054 231.549 223.719 231.089 224.716H230.961V223.182H229.504V233H231.012V227.094ZM244.15 233.205C246.144 233.205 247.601 232.207 248.061 230.724L246.604 230.315C246.221 231.338 245.332 231.849 244.15 231.849C242.379 231.849 241.158 230.705 241.088 228.602H248.215V227.963C248.215 224.307 246.042 223.054 243.996 223.054C241.337 223.054 239.573 225.151 239.573 228.168C239.573 231.185 241.311 233.205 244.15 233.205ZM241.088 227.298C241.19 225.771 242.27 224.409 243.996 224.409C245.632 224.409 246.681 225.636 246.681 227.298H241.088ZM259.561 233.205C261.734 233.205 263.166 231.875 263.422 230.136H261.913C261.632 231.21 260.737 231.849 259.561 231.849C257.771 231.849 256.62 230.366 256.62 228.091C256.62 225.866 257.797 224.409 259.561 224.409C260.89 224.409 261.683 225.227 261.913 226.122H263.422C263.166 224.281 261.606 223.054 259.535 223.054C256.876 223.054 255.112 225.151 255.112 228.142C255.112 231.082 256.799 233.205 259.561 233.205ZM269.334 233.205C271.226 233.205 271.865 232.028 272.198 231.491H272.377V233H273.834V223.182H272.326V224.741H272.198C271.865 224.23 271.277 223.054 269.36 223.054C266.88 223.054 265.167 225.023 265.167 228.116C265.167 231.236 266.88 233.205 269.334 233.205ZM269.539 231.849C267.647 231.849 266.675 230.188 266.675 228.091C266.675 226.02 267.621 224.409 269.539 224.409C271.38 224.409 272.351 225.892 272.351 228.091C272.351 230.315 271.354 231.849 269.539 231.849ZM278.315 227.094C278.315 225.381 279.376 224.409 280.821 224.409C282.221 224.409 283.071 225.323 283.071 226.864V233H284.579V226.761C284.579 224.256 283.243 223.054 281.255 223.054C279.772 223.054 278.852 223.719 278.392 224.716H278.264V223.182H276.806V233H278.315V227.094ZM298.586 228.986C298.586 230.827 297.18 231.67 296.055 231.67C294.802 231.67 293.907 230.75 293.907 229.318V223.182H292.398V229.42C292.398 231.926 293.728 233.128 295.569 233.128C297.052 233.128 298.023 232.335 298.483 231.338H298.586V233H300.094V223.182H298.586V228.986ZM309.812 225.381C309.339 223.987 308.278 223.054 306.335 223.054C304.263 223.054 302.729 224.23 302.729 225.892C302.729 227.247 303.535 228.155 305.337 228.577L306.974 228.96C307.964 229.19 308.431 229.663 308.431 230.341C308.431 231.185 307.536 231.875 306.13 231.875C304.896 231.875 304.123 231.344 303.854 230.29L302.423 230.648C302.774 232.316 304.148 233.205 306.156 233.205C308.438 233.205 309.991 231.958 309.991 230.264C309.991 228.896 309.134 228.033 307.383 227.605L305.925 227.247C304.762 226.96 304.238 226.57 304.238 225.815C304.238 224.972 305.133 224.358 306.335 224.358C307.651 224.358 308.195 225.087 308.457 225.764L309.812 225.381ZM316.378 233.205C318.372 233.205 319.83 232.207 320.29 230.724L318.833 230.315C318.449 231.338 317.561 231.849 316.378 231.849C314.607 231.849 313.387 230.705 313.316 228.602H320.443V227.963C320.443 224.307 318.27 223.054 316.225 223.054C313.566 223.054 311.801 225.151 311.801 228.168C311.801 231.185 313.54 233.205 316.378 233.205ZM313.316 227.298C313.419 225.771 314.499 224.409 316.225 224.409C317.861 224.409 318.909 225.636 318.909 227.298H313.316ZM327.801 233H329.309V223.182H327.801V233ZM328.568 221.545C329.156 221.545 329.642 221.085 329.642 220.523C329.642 219.96 329.156 219.5 328.568 219.5C327.98 219.5 327.494 219.96 327.494 220.523C327.494 221.085 327.98 221.545 328.568 221.545ZM336.342 223.182H334.245V220.83H332.737V223.182H331.254V224.46H332.737V230.597C332.737 232.31 334.118 233.128 335.396 233.128C335.958 233.128 336.316 233.026 336.521 232.949L336.214 231.594C336.086 231.619 335.882 231.67 335.549 231.67C334.885 231.67 334.245 231.466 334.245 230.188V224.46H336.342V223.182ZM339.711 233.102C340.343 233.102 340.861 232.585 340.861 231.952C340.861 231.319 340.343 230.801 339.711 230.801C339.078 230.801 338.56 231.319 338.56 231.952C338.56 232.585 339.078 233.102 339.711 233.102Z" fill="#18191F"/>
<g clip-path="url(#clip1)">
<path d="M90.3793 273.909V283.037C90.3729 284.296 89.8104 284.961 88.7876 284.961C87.8224 284.961 87.196 284.36 87.1768 283.318H84.4219C84.4091 285.933 86.2756 287.179 88.647 287.179C91.2997 287.179 93.1087 285.575 93.1151 283.037V273.909H90.3793ZM98.9702 287.16C100.555 287.16 101.38 286.246 101.757 285.428H101.872V287H104.557V277.182H101.84V278.831H101.757C101.393 278.032 100.607 277.054 98.9638 277.054C96.8097 277.054 94.9879 278.729 94.9879 282.104C94.9879 285.389 96.733 287.16 98.9702 287.16ZM99.8331 284.993C98.4972 284.993 97.7685 283.804 97.7685 282.091C97.7685 280.391 98.4844 279.221 99.8331 279.221C101.156 279.221 101.898 280.339 101.898 282.091C101.898 283.842 101.143 284.993 99.8331 284.993ZM109.519 281.324C109.525 280.058 110.279 279.317 111.379 279.317C112.472 279.317 113.13 280.033 113.124 281.234V287H115.847V280.749C115.847 278.46 114.504 277.054 112.459 277.054C111.002 277.054 109.947 277.77 109.506 278.914H109.391V277.182H106.796V287H109.519V281.324ZM122.467 287.192C124.896 287.192 126.533 286.009 126.916 284.188L124.398 284.021C124.123 284.769 123.42 285.159 122.512 285.159C121.151 285.159 120.288 284.258 120.288 282.794V282.788H126.974V282.04C126.974 278.703 124.954 277.054 122.359 277.054C119.469 277.054 117.597 279.106 117.597 282.136C117.597 285.249 119.444 287.192 122.467 287.192ZM120.288 281.1C120.345 279.982 121.195 279.087 122.403 279.087C123.586 279.087 124.404 279.93 124.411 281.1H120.288ZM144.518 278.492C144.154 275.469 141.866 273.73 138.836 273.73C135.378 273.73 132.738 276.172 132.738 280.455C132.738 284.724 135.333 287.179 138.836 287.179C142.192 287.179 144.218 284.948 144.518 282.538L141.719 282.526C141.456 283.925 140.357 284.731 138.881 284.731C136.893 284.731 135.544 283.254 135.544 280.455C135.544 277.732 136.873 276.178 138.9 276.178C140.415 276.178 141.508 277.054 141.719 278.492H144.518ZM150.888 287.192C153.867 287.192 155.72 285.153 155.72 282.129C155.72 279.087 153.867 277.054 150.888 277.054C147.909 277.054 146.056 279.087 146.056 282.129C146.056 285.153 147.909 287.192 150.888 287.192ZM150.901 285.082C149.526 285.082 148.823 283.823 148.823 282.11C148.823 280.397 149.526 279.131 150.901 279.131C152.249 279.131 152.953 280.397 152.953 282.11C152.953 283.823 152.249 285.082 150.901 285.082ZM161.927 287.192C164.906 287.192 166.759 285.153 166.759 282.129C166.759 279.087 164.906 277.054 161.927 277.054C158.948 277.054 157.095 279.087 157.095 282.129C157.095 285.153 158.948 287.192 161.927 287.192ZM161.94 285.082C160.566 285.082 159.862 283.823 159.862 282.11C159.862 280.397 160.566 279.131 161.94 279.131C163.289 279.131 163.992 280.397 163.992 282.11C163.992 283.823 163.289 285.082 161.94 285.082ZM168.53 290.682H171.253V285.428H171.336C171.713 286.246 172.538 287.16 174.123 287.16C176.36 287.16 178.105 285.389 178.105 282.104C178.105 278.729 176.284 277.054 174.129 277.054C172.487 277.054 171.7 278.032 171.336 278.831H171.215V277.182H168.53V290.682ZM171.195 282.091C171.195 280.339 171.937 279.221 173.26 279.221C174.609 279.221 175.325 280.391 175.325 282.091C175.325 283.804 174.596 284.993 173.26 284.993C171.95 284.993 171.195 283.842 171.195 282.091ZM184.395 287.192C186.824 287.192 188.46 286.009 188.844 284.188L186.325 284.021C186.051 284.769 185.347 285.159 184.44 285.159C183.078 285.159 182.215 284.258 182.215 282.794V282.788H188.901V282.04C188.901 278.703 186.882 277.054 184.286 277.054C181.397 277.054 179.524 279.106 179.524 282.136C179.524 285.249 181.372 287.192 184.395 287.192ZM182.215 281.1C182.273 279.982 183.123 279.087 184.331 279.087C185.514 279.087 186.332 279.93 186.338 281.1H182.215ZM190.678 287H193.401V281.445C193.408 280.244 194.277 279.419 195.377 279.419C195.747 279.419 196.048 279.521 196.303 279.649L197.122 277.399C196.764 277.182 196.303 277.041 195.779 277.041C194.673 277.041 193.779 277.68 193.421 278.895H193.318V277.182H190.678V287Z" fill="#18191F"/>
<path d="M93.5753 304.129C93.2273 301.952 91.522 300.679 89.3693 300.679C86.7344 300.679 84.7905 302.653 84.7905 305.909C84.7905 309.165 86.7244 311.139 89.3693 311.139C91.6065 311.139 93.2422 309.737 93.5753 307.724L92.0241 307.719C91.7607 309.021 90.6669 309.737 89.3793 309.737C87.6342 309.737 86.3168 308.4 86.3168 305.909C86.3168 303.438 87.6293 302.081 89.3842 302.081C90.6818 302.081 91.7706 302.812 92.0241 304.129H93.5753ZM95.4135 311H101.857V309.678H96.9498V306.56H101.464V305.243H96.9498V302.141H101.797V300.818H95.4135V311ZM112.694 305.909C112.694 302.653 110.745 300.679 108.11 300.679C105.465 300.679 103.521 302.653 103.521 305.909C103.521 309.161 105.465 311.139 108.11 311.139C110.745 311.139 112.694 309.165 112.694 305.909ZM111.172 305.909C111.172 308.39 109.86 309.737 108.11 309.737C106.355 309.737 105.047 308.39 105.047 305.909C105.047 303.428 106.355 302.081 108.11 302.081C109.86 302.081 111.172 303.428 111.172 305.909ZM115.781 309.608H114.349L114.299 310.165C114.185 311.512 113.867 312.869 113.733 313.486H114.787C115.025 312.835 115.552 311.343 115.706 310.15L115.781 309.608ZM122.401 311L123.335 308.305H127.312L128.242 311H129.873L126.209 300.818H124.434L120.77 311H122.401ZM123.783 307.013L125.284 302.668H125.364L126.865 307.013H123.783ZM131.292 311H132.779V303.364H131.292V311ZM132.043 302.185C132.555 302.185 132.983 301.788 132.983 301.3C132.983 300.813 132.555 300.411 132.043 300.411C131.526 300.411 131.103 300.813 131.103 301.3C131.103 301.788 131.526 302.185 132.043 302.185ZM134.779 311H136.265V306.337C136.265 305.342 137.036 304.621 138.065 304.621C138.353 304.621 138.577 304.681 138.756 304.771L139.233 303.528C138.98 303.359 138.651 303.249 138.234 303.249C137.329 303.249 136.573 303.756 136.295 304.577H136.215V303.364H134.779V311ZM140.449 311H141.9V309.812H142.025C142.293 310.299 142.84 311.149 144.232 311.149C146.081 311.149 147.424 309.668 147.424 307.197C147.424 304.721 146.062 303.264 144.217 303.264C142.8 303.264 142.288 304.129 142.025 304.602H141.935V300.818H140.449V311ZM141.905 307.182C141.905 305.586 142.601 304.527 143.899 304.527C145.246 304.527 145.922 305.665 145.922 307.182C145.922 308.713 145.226 309.881 143.899 309.881C142.621 309.881 141.905 308.788 141.905 307.182ZM150.58 306.466C150.58 305.248 151.325 304.552 152.359 304.552C153.369 304.552 153.98 305.213 153.98 306.322V311H155.467V306.143C155.467 304.254 154.428 303.264 152.866 303.264C151.718 303.264 150.967 303.796 150.614 304.607H150.52V303.364H149.093V311H150.58V306.466ZM157.58 311H159.031V309.812H159.156C159.424 310.299 159.971 311.149 161.363 311.149C163.212 311.149 164.555 309.668 164.555 307.197C164.555 304.721 163.192 303.264 161.348 303.264C159.931 303.264 159.419 304.129 159.156 304.602H159.066V300.818H157.58V311ZM159.036 307.182C159.036 305.586 159.732 304.527 161.03 304.527C162.377 304.527 163.053 305.665 163.053 307.182C163.053 308.713 162.357 309.881 161.03 309.881C159.752 309.881 159.036 308.788 159.036 307.182Z" fill="#969BAB"/>
</g>
</g>
<defs>
<filter id="filter0_d" x="0" y="0" width="485" height="380" filterUnits="userSpaceOnUse" color-interpolation-filters="sRGB">
<feFlood flood-opacity="0" result="BackgroundImageFix"/>
<feColorMatrix in="SourceAlpha" type="matrix" values="0 0 0 0 0 0 0 0 0 0 0 0 0 0 0 0 0 0 127 0" result="hardAlpha"/>
<feOffset dy="10"/>
<feGaussianBlur stdDeviation="10"/>
<feColorMatrix type="matrix" values="0 0 0 0 0.160784 0 0 0 0 0.160784 0 0 0 0 0.164706 0 0 0 0.07 0"/>
<feBlend mode="normal" in2="BackgroundImageFix" result="effect1_dropShadow"/>
<feBlend mode="normal" in="SourceGraphic" in2="effect1_dropShadow" result="shape"/>
</filter>
<clipPath id="clip0">
<rect width="130" height="40" fill="white" transform="translate(52 42)"/>
</clipPath>
<clipPath id="clip1">
<rect width="111" height="52" fill="white" transform="translate(84 266)"/>
</clipPath>
</defs>
</svg>
