<svg width="390" height="316" viewBox="0 0 390 316" fill="none" xmlns="http://www.w3.org/2000/svg">
<g filter="url(#filter0_d)">
<rect x="20" y="10" width="350" height="276" rx="8" fill="white"/>
<path fill-rule="evenodd" clip-rule="evenodd" d="M136.104 54.227L133.925 50.573L130.058 52.4L127.879 48.7351L124.011 50.573L121.843 46.8973L117.976 48.7351L115.797 45.0703L111.93 46.9081L109.762 43.2324L105.883 45.0703L97.6799 71.5784L107.648 74.6054C108.024 73.4106 108.817 72.3885 109.886 71.7238C110.955 71.0591 112.228 70.7957 113.475 70.9811C114.722 71.1665 115.862 71.7885 116.687 72.7347C117.513 73.681 117.97 74.889 117.976 76.1405V76.2486C117.998 76.7243 117.943 77.2 117.802 77.6757L127.933 80.7567L136.104 54.227Z" fill="#D61920"/>
<path fill-rule="evenodd" clip-rule="evenodd" d="M106.232 69.3946C105.98 69.3532 105.751 69.2236 105.587 69.0292C105.423 68.8348 105.335 68.5885 105.339 68.3351V55.3621C105.337 55.2198 105.364 55.0785 105.419 54.9467C105.473 54.8149 105.553 54.6951 105.654 54.5945C105.756 54.4938 105.877 54.4142 106.009 54.3604C106.142 54.3066 106.285 54.2796 106.428 54.281H115.873C116.43 54.2796 116.981 54.387 117.496 54.597C118.011 54.8071 118.479 55.1156 118.873 55.5051C119.268 55.8946 119.581 56.3574 119.795 56.8671C120.01 57.3768 120.121 57.9234 120.122 58.4756V68.3351C120.122 68.4943 120.086 68.6515 120.018 68.7954C119.949 68.9394 119.849 69.0665 119.725 69.1677C119.601 69.2689 119.457 69.3417 119.301 69.3809C119.146 69.4202 118.983 69.4248 118.826 69.3946C118.576 69.3509 118.35 69.2203 118.188 69.0261C118.026 68.8319 117.939 68.587 117.943 68.3351V58.4865C117.943 57.9417 117.725 57.4192 117.337 57.034C116.949 56.6488 116.422 56.4324 115.873 56.4324H113.814V68.3243C113.815 68.4691 113.787 68.6127 113.731 68.7464C113.674 68.8801 113.592 69.0013 113.487 69.1027C113.363 69.2247 113.211 69.3151 113.044 69.3659C112.877 69.4168 112.7 69.4266 112.529 69.3946C112.277 69.3532 112.048 69.2236 111.884 69.0292C111.72 68.8348 111.632 68.5885 111.635 68.3351V56.4324H107.517V68.3243C107.518 68.4833 107.484 68.6406 107.417 68.785C107.35 68.9293 107.251 69.0571 107.128 69.1593C107.005 69.2616 106.861 69.3356 106.707 69.3763C106.552 69.417 106.39 69.4232 106.232 69.3946ZM121.941 75.0486C121.688 75.007 121.457 74.8758 121.293 74.6791C121.129 74.4825 121.042 74.2336 121.048 73.9783C121.049 73.6947 121.163 73.4229 121.364 73.2216C121.565 73.0179 121.839 72.9013 122.127 72.8973C123.053 72.8973 123.848 72.3135 124.109 71.4378L125.232 67.7297L121.56 55.5459C121.516 55.4096 121.5 55.2661 121.513 55.1236C121.525 54.9811 121.566 54.8425 121.633 54.7158C121.7 54.5891 121.791 54.4769 121.902 54.3855C122.013 54.2942 122.141 54.2256 122.279 54.1837C122.554 54.1083 122.847 54.1402 123.098 54.273C123.35 54.4057 123.54 54.6292 123.63 54.8973L126.354 63.9783L129.121 54.8973C129.252 54.4 129.807 54.0648 130.374 54.1729L130.45 54.1837C131.038 54.3675 131.365 54.9837 131.191 55.5567L127.41 68.054L126.212 72.054C125.943 72.9148 125.41 73.6708 124.687 74.2162C123.951 74.7635 123.057 75.0594 122.138 75.0594C122.072 75.0619 122.006 75.0583 121.941 75.0486Z" fill="#FEFEFE"/>
<path fill-rule="evenodd" clip-rule="evenodd" d="M55.3555 67.0271H57.4907C58.0599 67.0271 58.6058 66.8027 59.0083 66.4033C59.4108 66.0039 59.6369 65.4622 59.6369 64.8973V58.6595C59.6384 58.3798 59.5843 58.1026 59.4777 57.8437C59.3712 57.5847 59.2143 57.3492 59.016 57.1504C58.8178 56.9516 58.582 56.7936 58.3221 56.6852C58.0623 56.5769 57.7835 56.5204 57.5016 56.519H55.3555V67.0055V67.0271ZM54.0155 69.2541C53.7539 69.2103 53.5167 69.075 53.3469 68.8727C53.1771 68.6705 53.0857 68.4146 53.0894 68.1514V48.7784C53.0875 48.6302 53.1154 48.4831 53.1716 48.3457C53.2277 48.2083 53.3109 48.0835 53.4163 47.9784C53.5438 47.847 53.7019 47.7487 53.8766 47.6922C54.0514 47.6356 54.2375 47.6226 54.4185 47.6541C54.9633 47.7622 55.3555 48.2163 55.3555 48.7676V54.2811H57.4907C58.0696 54.2797 58.6431 54.3916 59.1784 54.6105C59.7136 54.8293 60.2001 55.1508 60.61 55.5565C61.0198 55.9622 61.345 56.4442 61.5669 56.9748C61.7887 57.5054 61.9029 58.0742 61.9029 58.6487V64.8865C61.9001 66.044 61.4354 67.1533 60.6106 67.9717C59.7859 68.7902 58.6681 69.2512 57.5016 69.2541H54.2224C54.1496 69.2584 54.0766 69.2548 54.0046 69.2433L54.0155 69.2541Z" fill="#333545"/>
<path fill-rule="evenodd" clip-rule="evenodd" d="M69.5834 56.4324C69.4611 56.4112 69.3372 56.4003 69.213 56.3999C68.9304 56.397 68.65 56.4502 68.3883 56.5562C68.1266 56.6622 67.8888 56.8189 67.6889 57.0173C67.4891 57.2156 67.3311 57.4515 67.2243 57.7112C67.1174 57.9709 67.0639 58.2492 67.0668 58.5297V65.027C67.0654 65.307 67.1199 65.5846 67.2273 65.8437C67.3346 66.1027 67.4926 66.338 67.6922 66.5361C67.8918 66.7341 68.129 66.891 68.39 66.9975C68.651 67.104 68.9308 67.1581 69.213 67.1567C69.7822 67.1567 70.3281 66.9323 70.7306 66.5329C71.1331 66.1335 71.3592 65.5918 71.3592 65.027V58.5405C71.3592 57.4918 70.6075 56.6161 69.5834 56.4324ZM68.4395 69.3513C67.4181 69.173 66.4929 68.6424 65.8272 67.8532C65.1615 67.0641 64.798 66.0669 64.8008 65.0378V58.5405C64.7989 57.9655 64.9126 57.3958 65.1352 56.8649C65.3578 56.334 65.6848 55.8525 66.0972 55.4486C66.5063 55.0428 66.9921 54.7211 67.5269 54.5022C68.0616 54.2833 68.6346 54.1714 69.213 54.1729C70.3803 54.1729 71.4998 54.6331 72.3252 55.4521C73.1506 56.2712 73.6143 57.3821 73.6143 58.5405V65.0378C73.6143 66.2053 73.1568 67.308 72.3179 68.1405C71.9105 68.5455 71.4265 68.8667 70.8937 69.0856C70.3608 69.3045 69.7897 69.4168 69.213 69.4161C68.9538 69.4172 68.6949 69.3955 68.4395 69.3513ZM81.2948 56.4432C81.1725 56.4219 81.0486 56.4111 80.9244 56.4107C80.6417 56.4079 80.3614 56.461 80.0997 56.567C79.838 56.673 79.6002 56.8297 79.4003 57.0281C79.2004 57.2264 79.0425 57.4624 78.9356 57.7221C78.8288 57.9817 78.7753 58.26 78.7782 58.5405V65.0378C78.7768 65.3178 78.8313 65.5954 78.9386 65.8545C79.046 66.1135 79.204 66.3489 79.4036 66.5469C79.6032 66.745 79.8403 66.9018 80.1014 67.0083C80.3624 67.1148 80.6422 67.1689 80.9244 67.1675C81.2066 67.1689 81.4864 67.1148 81.7474 67.0083C82.0084 66.9018 82.2456 66.745 82.4452 66.5469C82.6448 66.3489 82.8028 66.1135 82.9101 65.8545C83.0175 65.5954 83.072 65.3178 83.0706 65.0378V58.5405C83.0706 57.5026 82.3189 56.627 81.2948 56.4432ZM80.1509 69.3513C79.1315 69.1707 78.2088 68.6392 77.5453 67.8502C76.8817 67.0613 76.5198 66.0654 76.5231 65.0378V58.5405C76.5248 57.9033 76.6666 57.2743 76.9386 56.6971C77.2107 56.12 77.6063 55.6087 78.0981 55.199C78.5898 54.7893 79.1657 54.4911 79.7855 54.325C80.4054 54.159 81.0543 54.1292 81.687 54.2378C82.7086 54.4135 83.6349 54.9415 84.3026 55.7286C84.9702 56.5158 85.3364 57.5116 85.3366 58.5405V65.0378C85.3379 65.6153 85.223 66.1872 84.9985 66.72C84.774 67.2529 84.4445 67.7358 84.0293 68.1405C83.6219 68.5455 83.1379 68.8667 82.605 69.0856C82.0722 69.3045 81.5011 69.4168 80.9244 69.4161C80.6629 69.4161 80.4015 69.3945 80.1509 69.3513ZM89.1605 69.3945C88.8989 69.3507 88.6618 69.2154 88.4919 69.0132C88.3221 68.8109 88.2308 68.5551 88.2345 68.2918V48.7783C88.2345 48.4756 88.3434 48.1837 88.5613 47.9783C88.6898 47.8524 88.847 47.7592 89.0196 47.7065C89.1922 47.6538 89.3751 47.6432 89.5527 47.6756C90.0974 47.7621 90.5005 48.227 90.5005 48.7783V60.3243L95.708 54.5297C95.9694 54.2486 96.3616 54.1189 96.7538 54.1837C96.9516 54.2166 97.1368 54.3014 97.2904 54.4293C97.4439 54.5573 97.5601 54.7237 97.6268 54.9114C97.6935 55.099 97.7084 55.3009 97.6698 55.4962C97.6312 55.6914 97.5407 55.8728 97.4075 56.0216L93.4746 60.3783L97.5382 67.7621C97.6114 67.8866 97.6587 68.0244 97.6774 68.1674C97.6961 68.3103 97.6858 68.4556 97.6472 68.5945C97.6051 68.7377 97.5341 68.871 97.4386 68.9862C97.3431 69.1014 97.225 69.1962 97.0915 69.2648C96.8609 69.3964 96.5906 69.4424 96.3289 69.3945C96.1662 69.3672 96.0115 69.3046 95.8759 69.2112C95.7403 69.1178 95.6272 68.9958 95.5446 68.854L91.8841 62.1729L90.4896 63.6972V68.2918C90.4896 68.59 90.3702 68.876 90.1577 69.0868C89.9453 69.2977 89.6571 69.4161 89.3566 69.4161C89.2803 69.4161 89.215 69.4161 89.1387 69.3945H89.1605ZM139.067 69.3837C138.455 69.2819 137.873 69.0456 137.364 68.6921C136.855 68.3386 136.432 67.8768 136.126 67.3405C135.976 67.0777 135.937 66.7669 136.017 66.4756C136.104 66.1945 136.289 65.9567 136.54 65.8053C136.772 65.6792 137.042 65.6372 137.302 65.6864C137.629 65.7405 137.923 65.9351 138.087 66.227C138.381 66.7243 138.849 67.0486 139.427 67.1459C139.725 67.1972 140.03 67.1811 140.321 67.0987C140.611 67.0163 140.879 66.8698 141.105 66.6702C141.54 66.2702 141.758 65.6972 141.704 65.1351C141.692 64.8469 141.611 64.5656 141.469 64.314C141.327 64.0623 141.128 63.8473 140.887 63.6864L137.836 61.5351C137.339 61.1888 136.925 60.7379 136.624 60.2147C136.323 59.6915 136.142 59.1088 136.093 58.508C136.054 57.902 136.154 57.2949 136.386 56.733C136.618 56.1711 136.976 55.669 137.433 55.2648C137.879 54.8537 138.411 54.5462 138.992 54.3648C139.572 54.1834 140.186 54.1326 140.789 54.2161C142.074 54.4324 143.12 55.1675 143.719 56.2053C143.864 56.4647 143.901 56.7695 143.824 57.0557C143.747 57.3419 143.561 57.5873 143.305 57.7405C143.075 57.8721 142.804 57.918 142.543 57.8702C142.38 57.8429 142.225 57.7803 142.09 57.6869C141.954 57.5934 141.841 57.4715 141.758 57.3297C141.622 57.1003 141.435 56.9038 141.213 56.7543C140.991 56.6047 140.738 56.5059 140.473 56.4648C140.201 56.416 139.922 56.4307 139.657 56.5077C139.393 56.5846 139.15 56.7217 138.947 56.908C138.75 57.0928 138.596 57.3183 138.496 57.5687C138.397 57.819 138.354 58.088 138.37 58.3567C138.392 58.8864 138.697 59.4053 139.154 59.708L142.205 61.8161C142.723 62.1759 143.151 62.6483 143.457 63.1973C143.763 63.7462 143.938 64.3572 143.97 64.9837C144.02 65.6073 143.923 66.2339 143.687 66.8138C143.451 67.3937 143.081 67.9109 142.608 68.3243C142.148 68.7486 141.598 69.0658 140.999 69.2528C140.399 69.4398 139.766 69.4919 139.144 69.4053L139.056 69.3837H139.067ZM147.815 69.4161C147.554 69.3705 147.317 69.2351 147.145 69.0335C146.974 68.832 146.88 68.5771 146.879 68.3134V48.7999C146.877 48.6519 146.905 48.505 146.962 48.368C147.018 48.2309 147.102 48.1064 147.207 48.0017C147.313 47.897 147.438 47.8142 147.576 47.7583C147.714 47.7023 147.862 47.6742 148.012 47.6756L148.229 47.6864C148.774 47.7945 149.145 48.2378 149.145 48.7999V54.3134H151.291C151.869 54.312 152.442 54.424 152.977 54.643C153.511 54.862 153.997 55.1836 154.406 55.5895C154.815 55.9953 155.139 56.4774 155.36 57.0079C155.581 57.5385 155.693 58.1071 155.692 58.681V68.3026C155.693 68.4659 155.658 68.6273 155.589 68.7755C155.52 68.9238 155.419 69.0551 155.293 69.1603C155.167 69.2655 155.02 69.342 154.861 69.3844C154.702 69.4267 154.536 69.4339 154.374 69.4053C153.829 69.308 153.437 68.8432 153.437 68.2918V58.6702C153.437 58.391 153.381 58.1146 153.273 57.8568C153.165 57.599 153.007 57.365 152.808 57.1681C152.608 56.9712 152.372 56.8153 152.111 56.7095C151.851 56.6036 151.572 56.5499 151.291 56.5513H149.145V68.3026C149.146 68.467 149.11 68.6295 149.041 68.7787C148.971 68.9278 148.869 69.0598 148.742 69.1652C148.615 69.2706 148.466 69.3468 148.306 69.3883C148.146 69.4298 147.978 69.4357 147.815 69.4053V69.4161ZM163.373 56.454C163.064 56.3984 162.747 56.411 162.443 56.4909C162.14 56.5708 161.858 56.716 161.618 56.9162C161.378 57.1165 161.185 57.3668 161.053 57.6494C160.921 57.932 160.854 58.2399 160.856 58.5513V65.0486C160.854 65.3277 160.909 65.6044 161.015 65.8628C161.122 66.1211 161.279 66.356 161.477 66.5539C161.676 66.7518 161.912 66.9088 162.172 67.016C162.431 67.1231 162.71 67.1783 162.991 67.1783C163.558 67.1783 164.102 66.9621 164.506 66.5621C164.707 66.3644 164.867 66.1287 164.976 65.8687C165.084 65.6088 165.139 65.3299 165.137 65.0486V58.5405C165.137 57.5026 164.397 56.6161 163.362 56.4432L163.373 56.454ZM162.218 69.3405C161.199 69.1622 160.277 68.6328 159.613 67.8457C158.949 67.0585 158.587 66.0641 158.59 65.0378V58.5405C158.59 57.9024 158.731 57.2721 159.002 56.6937C159.273 56.1152 159.669 55.6026 160.161 55.1917C160.653 54.7808 161.229 54.4816 161.85 54.3149C162.47 54.1483 163.12 54.1183 163.754 54.227C164.777 54.403 165.705 54.9326 166.373 55.722C167.041 56.5114 167.406 57.5097 167.403 58.5405V65.0378C167.404 65.6135 167.289 66.1836 167.064 66.7146C166.84 67.2455 166.51 67.7266 166.096 68.1297C165.596 68.6276 164.983 68.9979 164.307 69.2087C163.632 69.4196 162.915 69.4648 162.218 69.3405Z" fill="#333545"/>
<path fill-rule="evenodd" clip-rule="evenodd" d="M184.802 55.5567C184.839 55.4194 184.848 55.2761 184.83 55.1352C184.811 54.9942 184.764 54.8582 184.693 54.7351C184.61 54.6039 184.502 54.4904 184.375 54.4012C184.248 54.3121 184.104 54.2492 183.952 54.2162C183.671 54.1635 183.38 54.2192 183.139 54.3719C182.899 54.5246 182.725 54.7628 182.655 55.0378C182.655 55.0919 181.435 59.9676 180.477 63.6757L180.455 63.7513L180.433 63.6757L178.254 55.0486C178.212 54.838 178.106 54.6453 177.95 54.4964C177.794 54.3476 177.596 54.2497 177.383 54.2162C177.318 54.2036 177.252 54.1963 177.187 54.1946C176.685 54.1946 176.25 54.5405 176.108 55.0378C176.097 55.0919 174.877 59.9676 173.929 63.6757L173.907 63.7513L173.886 63.6757C172.96 59.9676 171.707 55.0919 171.707 55.0378C171.655 54.8309 171.545 54.6432 171.388 54.4974C171.231 54.3516 171.036 54.2539 170.824 54.2162C170.643 54.1844 170.456 54.1978 170.282 54.2552C170.107 54.3127 169.949 54.4124 169.823 54.5453C169.696 54.6782 169.605 54.8403 169.557 55.0168C169.51 55.1934 169.507 55.3789 169.55 55.5567L172.829 68.5621C172.891 68.8005 173.03 69.012 173.225 69.1644C173.42 69.3167 173.659 69.4014 173.907 69.4054C174.441 69.4054 174.866 69.0594 174.975 68.5621L177.154 59.9243L177.187 59.8486L177.208 59.9243C178.167 63.6757 179.387 68.573 179.387 68.573C179.452 68.8067 179.591 69.0136 179.783 69.1634C179.975 69.3132 180.211 69.398 180.455 69.4054C180.706 69.4132 180.952 69.3329 181.149 69.1786C181.346 69.0244 181.482 68.8061 181.533 68.5621L184.802 55.5567Z" fill="#333545"/>
<g opacity="0.3">
<path fill-rule="evenodd" clip-rule="evenodd" d="M67.9298 116.187C65.5439 117.401 64.351 118.829 64.351 120.469C65.3679 120.59 66.2088 121.02 66.8738 121.759C67.5387 122.498 67.8712 123.354 67.8712 124.325C67.8712 125.358 67.5485 126.228 66.9031 126.937C66.2577 127.646 65.4461 128 64.4683 128C63.3731 128 62.4246 127.539 61.6228 126.618C60.821 125.697 60.4201 124.578 60.4201 123.262C60.4201 119.315 62.5517 116.227 66.8151 114L67.9298 116.187ZM59.5098 116.187C57.1043 117.401 55.9016 118.829 55.9016 120.469C56.9381 120.59 57.7888 121.02 58.4537 121.759C59.1186 122.498 59.4511 123.354 59.4511 124.325C59.4511 125.358 59.1235 126.228 58.4684 126.937C57.8132 127.646 56.9967 128 56.0189 128C54.9237 128 53.9801 127.539 53.1881 126.618C52.396 125.697 52 124.578 52 123.262C52 119.315 54.1219 116.227 58.3657 114L59.5098 116.187Z" fill="#2EC5CE"/>
</g>
<path d="M85.5852 137H93.2557V135.594H87.1705V123.909H85.5852V137ZM99.2131 137.205C101.105 137.205 101.744 136.028 102.077 135.491H102.256V137H103.713V127.182H102.205V128.741H102.077C101.744 128.23 101.156 127.054 99.2386 127.054C96.7585 127.054 95.0455 129.023 95.0455 132.116C95.0455 135.236 96.7585 137.205 99.2131 137.205ZM99.4176 135.849C97.5256 135.849 96.554 134.188 96.554 132.091C96.554 130.02 97.5 128.409 99.4176 128.409C101.259 128.409 102.23 129.892 102.23 132.091C102.23 134.315 101.233 135.849 99.4176 135.849ZM108.194 131.094C108.194 129.381 109.255 128.409 110.7 128.409C112.099 128.409 112.95 129.323 112.95 130.864V137H114.458V130.761C114.458 128.256 113.122 127.054 111.134 127.054C109.651 127.054 108.731 127.719 108.271 128.716H108.143V127.182H106.685V137H108.194V131.094ZM120.922 137.205C122.814 137.205 123.453 136.028 123.786 135.491H123.965V137H125.422V123.909H123.914V128.741H123.786C123.453 128.23 122.865 127.054 120.948 127.054C118.468 127.054 116.754 129.023 116.754 132.116C116.754 135.236 118.468 137.205 120.922 137.205ZM121.127 135.849C119.235 135.849 118.263 134.188 118.263 132.091C118.263 130.02 119.209 128.409 121.127 128.409C122.968 128.409 123.939 129.892 123.939 132.091C123.939 134.315 122.942 135.849 121.127 135.849ZM128.394 137H129.903V127.182H128.394V137ZM129.161 125.545C129.749 125.545 130.235 125.085 130.235 124.523C130.235 123.96 129.749 123.5 129.161 123.5C128.573 123.5 128.088 123.96 128.088 124.523C128.088 125.085 128.573 125.545 129.161 125.545ZM137.038 127.182H134.839V126.185C134.839 125.213 135.248 124.702 136.245 124.702C136.68 124.702 136.936 124.804 137.089 124.855L137.524 123.551C137.294 123.449 136.833 123.295 136.092 123.295C134.686 123.295 133.331 124.139 133.331 125.827V127.182H131.745V128.46H133.331V137H134.839V128.46H137.038V127.182ZM140.124 140.682C141.485 140.682 142.444 139.96 143.013 138.432L147.193 127.207L145.544 127.182L142.834 135.006H142.732L140.021 127.182H138.385L142.016 137.051L141.735 137.818C141.185 139.314 140.507 139.455 139.408 139.173L139.024 140.503C139.178 140.58 139.612 140.682 140.124 140.682ZM161.206 129.381C160.733 127.987 159.672 127.054 157.729 127.054C155.658 127.054 154.124 128.23 154.124 129.892C154.124 131.247 154.929 132.155 156.732 132.577L158.368 132.96C159.359 133.19 159.826 133.663 159.826 134.341C159.826 135.185 158.931 135.875 157.525 135.875C156.291 135.875 155.517 135.344 155.249 134.29L153.817 134.648C154.169 136.316 155.543 137.205 157.55 137.205C159.832 137.205 161.385 135.958 161.385 134.264C161.385 132.896 160.529 132.033 158.777 131.605L157.32 131.247C156.157 130.96 155.632 130.57 155.632 129.815C155.632 128.972 156.527 128.358 157.729 128.358C159.046 128.358 159.589 129.087 159.851 129.764L161.206 129.381ZM167.363 137.205C169.256 137.205 169.895 136.028 170.227 135.491H170.406V137H171.863V127.182H170.355V128.741H170.227C169.895 128.23 169.307 127.054 167.389 127.054C164.909 127.054 163.196 129.023 163.196 132.116C163.196 135.236 164.909 137.205 167.363 137.205ZM167.568 135.849C165.676 135.849 164.704 134.188 164.704 132.091C164.704 130.02 165.65 128.409 167.568 128.409C169.409 128.409 170.381 129.892 170.381 132.091C170.381 134.315 169.383 135.849 167.568 135.849ZM182.864 127.182H181.228L178.518 135.006H178.415L175.705 127.182H174.069L177.699 137H179.233L182.864 127.182ZM188.62 137.205C190.615 137.205 192.072 136.207 192.532 134.724L191.075 134.315C190.691 135.338 189.803 135.849 188.62 135.849C186.85 135.849 185.629 134.705 185.558 132.602H192.686V131.963C192.686 128.307 190.512 127.054 188.467 127.054C185.808 127.054 184.044 129.151 184.044 132.168C184.044 135.185 185.782 137.205 188.62 137.205ZM185.558 131.298C185.661 129.771 186.741 128.409 188.467 128.409C190.103 128.409 191.151 129.636 191.151 131.298H185.558ZM198.688 137.205C200.58 137.205 201.219 136.028 201.551 135.491H201.73V137H203.188V123.909H201.679V128.741H201.551C201.219 128.23 200.631 127.054 198.713 127.054C196.233 127.054 194.52 129.023 194.52 132.116C194.52 135.236 196.233 137.205 198.688 137.205ZM198.892 135.849C197 135.849 196.029 134.188 196.029 132.091C196.029 130.02 196.975 128.409 198.892 128.409C200.733 128.409 201.705 129.892 201.705 132.091C201.705 134.315 200.708 135.849 198.892 135.849ZM215.211 137.205C217.87 137.205 219.66 135.185 219.66 132.142C219.66 129.074 217.87 127.054 215.211 127.054C212.552 127.054 210.762 129.074 210.762 132.142C210.762 135.185 212.552 137.205 215.211 137.205ZM215.211 135.849C213.191 135.849 212.271 134.111 212.271 132.142C212.271 130.173 213.191 128.409 215.211 128.409C217.231 128.409 218.151 130.173 218.151 132.142C218.151 134.111 217.231 135.849 215.211 135.849ZM228.15 132.986C228.15 134.827 226.744 135.67 225.619 135.67C224.366 135.67 223.471 134.75 223.471 133.318V127.182H221.963V133.42C221.963 135.926 223.292 137.128 225.133 137.128C226.616 137.128 227.588 136.335 228.048 135.338H228.15V137H229.659V127.182H228.15V132.986ZM232.422 137H233.93V130.787C233.93 129.464 234.979 128.486 236.41 128.486C236.787 128.486 237.069 128.556 237.28 128.665L237.791 127.386C237.484 127.169 237.081 127.028 236.538 127.028C235.349 127.028 234.333 127.693 233.981 128.665H233.879V127.182H232.422V137ZM248.662 127.182H246.566V124.83H245.057V127.182H243.574V128.46H245.057V134.597C245.057 136.31 246.438 137.128 247.716 137.128C248.279 137.128 248.637 137.026 248.841 136.949L248.534 135.594C248.407 135.619 248.202 135.67 247.87 135.67C247.205 135.67 246.566 135.466 246.566 134.188V128.46H248.662V127.182ZM250.931 137H252.44V127.182H250.931V137ZM251.699 125.545C252.287 125.545 252.772 125.085 252.772 124.523C252.772 123.96 252.287 123.5 251.699 123.5C251.11 123.5 250.625 123.96 250.625 124.523C250.625 125.085 251.11 125.545 251.699 125.545ZM255.203 137H256.711V130.864C256.711 129.425 257.76 128.409 258.936 128.409C260.08 128.409 260.879 129.157 260.879 130.276V137H262.413V130.608C262.413 129.342 263.206 128.409 264.586 128.409C265.66 128.409 266.581 128.978 266.581 130.429V137H268.089V130.429C268.089 128.121 266.849 127.054 265.098 127.054C263.692 127.054 262.662 127.7 262.157 128.716H262.055C261.569 127.668 260.713 127.054 259.422 127.054C258.143 127.054 257.197 127.668 256.788 128.716H256.66V127.182H255.203V137ZM274.964 137.205C276.958 137.205 278.416 136.207 278.876 134.724L277.419 134.315C277.035 135.338 276.146 135.849 274.964 135.849C273.193 135.849 271.972 134.705 271.902 132.602H279.029V131.963C279.029 128.307 276.856 127.054 274.811 127.054C272.151 127.054 270.387 129.151 270.387 132.168C270.387 135.185 272.126 137.205 274.964 137.205ZM271.902 131.298C272.004 129.771 273.085 128.409 274.811 128.409C276.447 128.409 277.495 129.636 277.495 131.298H271.902ZM286.387 137H287.895V127.182H286.387V137ZM287.154 125.545C287.742 125.545 288.227 125.085 288.227 124.523C288.227 123.96 287.742 123.5 287.154 123.5C286.566 123.5 286.08 123.96 286.08 124.523C286.08 125.085 286.566 125.545 287.154 125.545ZM292.167 131.094C292.167 129.381 293.228 128.409 294.672 128.409C296.072 128.409 296.922 129.323 296.922 130.864V137H298.431V130.761C298.431 128.256 297.095 127.054 295.107 127.054C293.624 127.054 292.703 127.719 292.243 128.716H292.115V127.182H290.658V137H292.167V131.094ZM89.0881 169.205C90.9801 169.205 91.6193 168.028 91.9517 167.491H92.1307V169H93.5881V155.909H92.0795V160.741H91.9517C91.6193 160.23 91.0312 159.054 89.1136 159.054C86.6335 159.054 84.9205 161.023 84.9205 164.116C84.9205 167.236 86.6335 169.205 89.0881 169.205ZM89.2926 167.849C87.4006 167.849 86.429 166.188 86.429 164.091C86.429 162.02 87.375 160.409 89.2926 160.409C91.1335 160.409 92.1051 161.892 92.1051 164.091C92.1051 166.315 91.108 167.849 89.2926 167.849ZM100.677 169.205C102.671 169.205 104.129 168.207 104.589 166.724L103.131 166.315C102.748 167.338 101.859 167.849 100.677 167.849C98.9062 167.849 97.6854 166.705 97.6151 164.602H104.742V163.963C104.742 160.307 102.569 159.054 100.523 159.054C97.8643 159.054 96.1001 161.151 96.1001 164.168C96.1001 167.185 97.8388 169.205 100.677 169.205ZM97.6151 163.298C97.7173 161.771 98.7976 160.409 100.523 160.409C102.16 160.409 103.208 161.636 103.208 163.298H97.6151ZM113.991 161.381C113.518 159.987 112.457 159.054 110.514 159.054C108.443 159.054 106.909 160.23 106.909 161.892C106.909 163.247 107.714 164.155 109.517 164.577L111.153 164.96C112.144 165.19 112.611 165.663 112.611 166.341C112.611 167.185 111.716 167.875 110.31 167.875C109.076 167.875 108.303 167.344 108.034 166.29L106.602 166.648C106.954 168.316 108.328 169.205 110.335 169.205C112.617 169.205 114.17 167.958 114.17 166.264C114.17 164.896 113.314 164.033 111.562 163.605L110.105 163.247C108.942 162.96 108.418 162.57 108.418 161.815C108.418 160.972 109.312 160.358 110.514 160.358C111.831 160.358 112.374 161.087 112.636 161.764L113.991 161.381ZM116.441 169H117.95V159.182H116.441V169ZM117.208 157.545C117.796 157.545 118.282 157.085 118.282 156.523C118.282 155.96 117.796 155.5 117.208 155.5C116.62 155.5 116.134 155.96 116.134 156.523C116.134 157.085 116.62 157.545 117.208 157.545ZM124.676 172.886C127.028 172.886 128.92 171.812 128.92 169.281V159.182H127.463V160.741H127.309C126.977 160.23 126.363 159.054 124.446 159.054C121.966 159.054 120.252 161.023 120.252 164.04C120.252 167.108 122.042 168.847 124.42 168.847C126.338 168.847 126.951 167.722 127.284 167.185H127.412V169.179C127.412 170.815 126.261 171.557 124.676 171.557C122.892 171.557 122.266 170.617 121.863 170.074L120.662 170.918C121.275 171.947 122.483 172.886 124.676 172.886ZM124.625 167.491C122.733 167.491 121.761 166.06 121.761 164.014C121.761 162.02 122.707 160.409 124.625 160.409C126.466 160.409 127.437 161.892 127.437 164.014C127.437 166.188 126.44 167.491 124.625 167.491ZM133.19 163.094C133.19 161.381 134.251 160.409 135.696 160.409C137.096 160.409 137.946 161.323 137.946 162.864V169H139.454V162.761C139.454 160.256 138.118 159.054 136.13 159.054C134.647 159.054 133.727 159.719 133.267 160.716H133.139V159.182H131.681V169H133.19V163.094ZM142.211 169H143.719V159.182H142.211V169ZM142.978 157.545C143.566 157.545 144.052 157.085 144.052 156.523C144.052 155.96 143.566 155.5 142.978 155.5C142.39 155.5 141.904 155.96 141.904 156.523C141.904 157.085 142.39 157.545 142.978 157.545ZM147.991 163.094C147.991 161.381 149.052 160.409 150.496 160.409C151.896 160.409 152.746 161.323 152.746 162.864V169H154.255V162.761C154.255 160.256 152.919 159.054 150.931 159.054C149.448 159.054 148.528 159.719 148.067 160.716H147.94V159.182H146.482V169H147.991V163.094ZM160.975 172.886C163.327 172.886 165.219 171.812 165.219 169.281V159.182H163.762V160.741H163.608C163.276 160.23 162.662 159.054 160.744 159.054C158.264 159.054 156.551 161.023 156.551 164.04C156.551 167.108 158.341 168.847 160.719 168.847C162.637 168.847 163.25 167.722 163.583 167.185H163.71V169.179C163.71 170.815 162.56 171.557 160.975 171.557C159.191 171.557 158.565 170.617 158.162 170.074L156.96 170.918C157.574 171.947 158.782 172.886 160.975 172.886ZM160.923 167.491C159.031 167.491 158.06 166.06 158.06 164.014C158.06 162.02 159.006 160.409 160.923 160.409C162.764 160.409 163.736 161.892 163.736 164.014C163.736 166.188 162.739 167.491 160.923 167.491ZM173.043 169H174.551V162.864C174.551 161.425 175.6 160.409 176.776 160.409C177.92 160.409 178.719 161.157 178.719 162.276V169H180.253V162.608C180.253 161.342 181.046 160.409 182.426 160.409C183.5 160.409 184.421 160.978 184.421 162.429V169H185.929V162.429C185.929 160.121 184.689 159.054 182.938 159.054C181.531 159.054 180.502 159.7 179.997 160.716H179.895C179.409 159.668 178.553 159.054 177.262 159.054C175.983 159.054 175.037 159.668 174.628 160.716H174.5V159.182H173.043V169ZM189.307 172.682C190.669 172.682 191.628 171.96 192.197 170.432L196.377 159.207L194.728 159.182L192.018 167.006H191.915L189.205 159.182H187.569L191.199 169.051L190.918 169.818C190.368 171.314 189.691 171.455 188.591 171.173L188.208 172.503C188.361 172.58 188.796 172.682 189.307 172.682ZM207.424 169.205C209.597 169.205 211.029 167.875 211.285 166.136H209.776C209.495 167.21 208.6 167.849 207.424 167.849C205.634 167.849 204.484 166.366 204.484 164.091C204.484 161.866 205.66 160.409 207.424 160.409C208.754 160.409 209.546 161.227 209.776 162.122H211.285C211.029 160.281 209.469 159.054 207.398 159.054C204.739 159.054 202.975 161.151 202.975 164.142C202.975 167.082 204.663 169.205 207.424 169.205ZM217.479 169.205C220.138 169.205 221.928 167.185 221.928 164.142C221.928 161.074 220.138 159.054 217.479 159.054C214.82 159.054 213.03 161.074 213.03 164.142C213.03 167.185 214.82 169.205 217.479 169.205ZM217.479 167.849C215.459 167.849 214.538 166.111 214.538 164.142C214.538 162.173 215.459 160.409 217.479 160.409C219.499 160.409 220.419 162.173 220.419 164.142C220.419 166.111 219.499 167.849 217.479 167.849ZM224.23 169H225.739V162.864C225.739 161.425 226.787 160.409 227.963 160.409C229.107 160.409 229.906 161.157 229.906 162.276V169H231.441V162.608C231.441 161.342 232.233 160.409 233.614 160.409C234.688 160.409 235.608 160.978 235.608 162.429V169H237.117V162.429C237.117 160.121 235.877 159.054 234.125 159.054C232.719 159.054 231.69 159.7 231.185 160.716H231.083C230.597 159.668 229.74 159.054 228.449 159.054C227.171 159.054 226.225 159.668 225.816 160.716H225.688V159.182H224.23V169ZM239.875 172.682H241.383V167.491H241.511C241.844 168.028 242.483 169.205 244.375 169.205C246.829 169.205 248.542 167.236 248.542 164.116C248.542 161.023 246.829 159.054 244.349 159.054C242.432 159.054 241.844 160.23 241.511 160.741H241.332V159.182H239.875V172.682ZM241.358 164.091C241.358 161.892 242.329 160.409 244.17 160.409C246.088 160.409 247.034 162.02 247.034 164.091C247.034 166.188 246.062 167.849 244.17 167.849C242.355 167.849 241.358 166.315 241.358 164.091ZM254.551 169.205C256.443 169.205 257.082 168.028 257.415 167.491H257.594V169H259.051V159.182H257.542V160.741H257.415C257.082 160.23 256.494 159.054 254.577 159.054C252.096 159.054 250.383 161.023 250.383 164.116C250.383 167.236 252.096 169.205 254.551 169.205ZM254.756 167.849C252.863 167.849 251.892 166.188 251.892 164.091C251.892 162.02 252.838 160.409 254.756 160.409C256.596 160.409 257.568 161.892 257.568 164.091C257.568 166.315 256.571 167.849 254.756 167.849ZM263.532 163.094C263.532 161.381 264.593 160.409 266.037 160.409C267.437 160.409 268.287 161.323 268.287 162.864V169H269.796V162.761C269.796 160.256 268.46 159.054 266.472 159.054C264.989 159.054 264.069 159.719 263.608 160.716H263.481V159.182H262.023V169H263.532V163.094ZM273.173 172.682C274.534 172.682 275.493 171.96 276.062 170.432L280.242 159.207L278.593 159.182L275.883 167.006H275.781L273.07 159.182H271.434L275.065 169.051L274.783 169.818C274.234 171.314 273.556 171.455 272.457 171.173L272.073 172.503C272.227 172.58 272.661 172.682 273.173 172.682ZM287.301 172.682H288.809V167.491H288.937C289.269 168.028 289.909 169.205 291.801 169.205C294.255 169.205 295.968 167.236 295.968 164.116C295.968 161.023 294.255 159.054 291.775 159.054C289.857 159.054 289.269 160.23 288.937 160.741H288.758V159.182H287.301V172.682ZM288.784 164.091C288.784 161.892 289.755 160.409 291.596 160.409C293.514 160.409 294.46 162.02 294.46 164.091C294.46 166.188 293.488 167.849 291.596 167.849C289.781 167.849 288.784 166.315 288.784 164.091ZM301.977 169.205C303.869 169.205 304.508 168.028 304.84 167.491H305.019V169H306.477V159.182H304.968V160.741H304.84C304.508 160.23 303.92 159.054 302.002 159.054C299.522 159.054 297.809 161.023 297.809 164.116C297.809 167.236 299.522 169.205 301.977 169.205ZM302.181 167.849C300.289 167.849 299.318 166.188 299.318 164.091C299.318 162.02 300.264 160.409 302.181 160.409C304.022 160.409 304.994 161.892 304.994 164.091C304.994 166.315 303.997 167.849 302.181 167.849ZM313.412 172.886C315.764 172.886 317.656 171.812 317.656 169.281V159.182H316.199V160.741H316.046C315.713 160.23 315.1 159.054 313.182 159.054C310.702 159.054 308.989 161.023 308.989 164.04C308.989 167.108 310.779 168.847 313.156 168.847C315.074 168.847 315.688 167.722 316.02 167.185H316.148V169.179C316.148 170.815 314.997 171.557 313.412 171.557C311.629 171.557 311.002 170.617 310.6 170.074L309.398 170.918C310.012 171.947 311.22 172.886 313.412 172.886ZM313.361 167.491C311.469 167.491 310.497 166.06 310.497 164.014C310.497 162.02 311.443 160.409 313.361 160.409C315.202 160.409 316.173 161.892 316.173 164.014C316.173 166.188 315.176 167.491 313.361 167.491ZM324.534 169.205C326.529 169.205 327.986 168.207 328.446 166.724L326.989 166.315C326.605 167.338 325.717 167.849 324.534 167.849C322.764 167.849 321.543 166.705 321.472 164.602H328.6V163.963C328.6 160.307 326.426 159.054 324.381 159.054C321.722 159.054 319.958 161.151 319.958 164.168C319.958 167.185 321.696 169.205 324.534 169.205ZM321.472 163.298C321.575 161.771 322.655 160.409 324.381 160.409C326.017 160.409 327.066 161.636 327.066 163.298H321.472ZM331.994 169.102C332.627 169.102 333.144 168.585 333.144 167.952C333.144 167.319 332.627 166.801 331.994 166.801C331.361 166.801 330.843 167.319 330.843 167.952C330.843 168.585 331.361 169.102 331.994 169.102Z" fill="#18191F"/>
<path d="M85.1378 223H87.9055V219.28L89.267 217.618L92.853 223H96.1641L91.2486 215.771L96.1065 209.909H92.7891L88.0781 215.681H87.9055V209.909H85.1378V223ZM97.4968 223H100.22V217.445C100.226 216.244 101.096 215.419 102.195 215.419C102.566 215.419 102.866 215.521 103.122 215.649L103.94 213.399C103.582 213.182 103.122 213.041 102.598 213.041C101.492 213.041 100.597 213.68 100.239 214.895H100.137V213.182H97.4968V223ZM105.091 223H107.814V213.182H105.091V223ZM106.458 211.916C107.27 211.916 107.935 211.296 107.935 210.536C107.935 209.781 107.27 209.161 106.458 209.161C105.653 209.161 104.988 209.781 104.988 210.536C104.988 211.296 105.653 211.916 106.458 211.916ZM118.164 215.982C117.921 214.173 116.464 213.054 113.983 213.054C111.471 213.054 109.816 214.217 109.822 216.109C109.816 217.58 110.743 218.532 112.66 218.915L114.361 219.254C115.217 219.427 115.607 219.74 115.62 220.232C115.607 220.814 114.974 221.229 114.022 221.229C113.05 221.229 112.405 220.814 112.238 220.015L109.56 220.156C109.816 222.035 111.414 223.192 114.015 223.192C116.559 223.192 118.381 221.894 118.388 219.957C118.381 218.538 117.454 217.688 115.55 217.298L113.773 216.94C112.858 216.742 112.52 216.429 112.526 215.956C112.52 215.368 113.184 214.984 114.028 214.984C114.974 214.984 115.537 215.502 115.671 216.135L118.164 215.982ZM125.325 213.182H123.477V210.83H120.754V213.182H119.412V215.227H120.754V220.341C120.741 222.265 122.052 223.217 124.027 223.134C124.73 223.109 125.229 222.968 125.504 222.879L125.075 220.852C124.941 220.878 124.653 220.942 124.398 220.942C123.854 220.942 123.477 220.737 123.477 219.983V215.227H125.325V213.182ZM127.098 223H129.821V213.182H127.098V223ZM128.466 211.916C129.278 211.916 129.943 211.296 129.943 210.536C129.943 209.781 129.278 209.161 128.466 209.161C127.661 209.161 126.996 209.781 126.996 210.536C126.996 211.296 127.661 211.916 128.466 211.916ZM134.726 217.324C134.732 216.058 135.486 215.317 136.586 215.317C137.679 215.317 138.337 216.033 138.331 217.234V223H141.054V216.749C141.054 214.46 139.711 213.054 137.666 213.054C136.209 213.054 135.154 213.77 134.713 214.914H134.598V213.182H132.003V223H134.726V217.324ZM150.364 223H153.061L155.548 214.441H155.65L158.143 223H160.84L164.586 209.909H161.563L159.396 219.024H159.281L156.896 209.909H154.308L151.917 219.005H151.808L149.642 209.909H146.618L150.364 223ZM168.58 223.16C170.165 223.16 170.989 222.246 171.366 221.428H171.482V223H174.166V213.182H171.45V214.831H171.366C171.002 214.032 170.216 213.054 168.573 213.054C166.419 213.054 164.597 214.729 164.597 218.104C164.597 221.389 166.342 223.16 168.58 223.16ZM169.442 220.993C168.107 220.993 167.378 219.804 167.378 218.091C167.378 216.391 168.094 215.221 169.442 215.221C170.766 215.221 171.507 216.339 171.507 218.091C171.507 219.842 170.753 220.993 169.442 220.993ZM181.627 213.182H179.78V210.83H177.057V213.182H175.715V215.227H177.057V220.341C177.044 222.265 178.355 223.217 180.33 223.134C181.033 223.109 181.531 222.968 181.806 222.879L181.378 220.852C181.244 220.878 180.956 220.942 180.7 220.942C180.157 220.942 179.78 220.737 179.78 219.983V215.227H181.627V213.182ZM191.43 215.982C191.187 214.173 189.729 213.054 187.249 213.054C184.737 213.054 183.081 214.217 183.088 216.109C183.081 217.58 184.008 218.532 185.926 218.915L187.626 219.254C188.483 219.427 188.873 219.74 188.885 220.232C188.873 220.814 188.24 221.229 187.287 221.229C186.316 221.229 185.67 220.814 185.504 220.015L182.826 220.156C183.081 222.035 184.68 223.192 187.281 223.192C189.825 223.192 191.647 221.894 191.653 219.957C191.647 218.538 190.72 217.688 188.815 217.298L187.038 216.94C186.124 216.742 185.785 216.429 185.792 215.956C185.785 215.368 186.45 214.984 187.294 214.984C188.24 214.984 188.802 215.502 188.937 216.135L191.43 215.982ZM197.804 223.192C200.783 223.192 202.636 221.153 202.636 218.129C202.636 215.087 200.783 213.054 197.804 213.054C194.825 213.054 192.972 215.087 192.972 218.129C192.972 221.153 194.825 223.192 197.804 223.192ZM197.817 221.082C196.442 221.082 195.739 219.823 195.739 218.11C195.739 216.397 196.442 215.131 197.817 215.131C199.165 215.131 199.869 216.397 199.869 218.11C199.869 219.823 199.165 221.082 197.817 221.082ZM207.13 217.324C207.136 216.058 207.891 215.317 208.99 215.317C210.083 215.317 210.741 216.033 210.735 217.234V223H213.458V216.749C213.458 214.46 212.116 213.054 210.07 213.054C208.613 213.054 207.558 213.77 207.117 214.914H207.002V213.182H204.407V223H207.13V217.324Z" fill="#18191F"/>
<path d="M93.5753 240.129C93.2273 237.952 91.522 236.679 89.3693 236.679C86.7344 236.679 84.7905 238.653 84.7905 241.909C84.7905 245.165 86.7244 247.139 89.3693 247.139C91.6065 247.139 93.2422 245.737 93.5753 243.724L92.0241 243.719C91.7607 245.021 90.6669 245.737 89.3793 245.737C87.6342 245.737 86.3168 244.4 86.3168 241.909C86.3168 239.438 87.6293 238.081 89.3842 238.081C90.6818 238.081 91.7706 238.812 92.0241 240.129H93.5753ZM98.5108 247.154C100.664 247.154 102.07 245.578 102.07 243.217C102.07 240.84 100.664 239.264 98.5108 239.264C96.3581 239.264 94.9512 240.84 94.9512 243.217C94.9512 245.578 96.3581 247.154 98.5108 247.154ZM98.5158 245.906C97.1088 245.906 96.4526 244.678 96.4526 243.212C96.4526 241.75 97.1088 240.507 98.5158 240.507C99.9128 240.507 100.569 241.75 100.569 243.212C100.569 244.678 99.9128 245.906 98.5158 245.906ZM108.229 242.053H103.715V243.341H108.229V242.053ZM110.33 247H111.866V242.56H116.191V241.243H111.866V238.141H116.643V236.818H110.33V247ZM121.069 247.154C123.222 247.154 124.629 245.578 124.629 243.217C124.629 240.84 123.222 239.264 121.069 239.264C118.917 239.264 117.51 240.84 117.51 243.217C117.51 245.578 118.917 247.154 121.069 247.154ZM121.074 245.906C119.667 245.906 119.011 244.678 119.011 243.212C119.011 241.75 119.667 240.507 121.074 240.507C122.471 240.507 123.128 241.75 123.128 243.212C123.128 244.678 122.471 245.906 121.074 245.906ZM131.126 243.833C131.131 245.131 130.166 245.747 129.331 245.747C128.411 245.747 127.775 245.081 127.775 244.042V239.364H126.288V244.221C126.288 246.115 127.327 247.099 128.794 247.099C129.942 247.099 130.723 246.493 131.076 245.678H131.156V247H132.617V239.364H131.126V243.833ZM136.101 242.466C136.101 241.248 136.847 240.552 137.881 240.552C138.89 240.552 139.502 241.213 139.502 242.322V247H140.988V242.143C140.988 240.254 139.949 239.264 138.388 239.264C137.24 239.264 136.489 239.796 136.136 240.607H136.041V239.364H134.615V247H136.101V242.466ZM145.84 247.149C147.232 247.149 147.779 246.299 148.048 245.812H148.172V247H149.624V236.818H148.137V240.602H148.048C147.779 240.129 147.272 239.264 145.85 239.264C144.006 239.264 142.649 240.721 142.649 243.197C142.649 245.668 143.986 247.149 145.84 247.149ZM146.169 245.881C144.841 245.881 144.15 244.713 144.15 243.182C144.15 241.665 144.826 240.527 146.169 240.527C147.466 240.527 148.162 241.586 148.162 243.182C148.162 244.788 147.451 245.881 146.169 245.881ZM155.037 247.154C156.702 247.154 157.88 246.334 158.218 245.091L156.811 244.837C156.543 245.558 155.897 245.926 155.051 245.926C153.779 245.926 152.924 245.101 152.884 243.629H158.313V243.102C158.313 240.343 156.662 239.264 154.932 239.264C152.804 239.264 151.402 240.885 151.402 243.232C151.402 245.603 152.784 247.154 155.037 247.154ZM152.889 242.516C152.949 241.432 153.734 240.492 154.942 240.492C156.096 240.492 156.851 241.347 156.856 242.516H152.889ZM159.962 247H161.449V242.337C161.449 241.342 162.219 240.621 163.248 240.621C163.537 240.621 163.76 240.681 163.939 240.771L164.417 239.528C164.163 239.359 163.835 239.249 163.417 239.249C162.513 239.249 161.757 239.756 161.479 240.577H161.399V239.364H159.962V247ZM166.572 245.608H165.14L165.09 246.165C164.976 247.512 164.658 248.869 164.524 249.486H165.578C165.816 248.835 166.343 247.343 166.497 246.15L166.572 245.608ZM172.331 247H176.234C178.601 247 179.67 245.822 179.67 244.261C179.67 242.685 178.566 241.795 177.557 241.74V241.641C178.491 241.402 179.272 240.766 179.272 239.493C179.272 237.987 178.228 236.818 176.06 236.818H172.331V247ZM173.868 245.683V242.421H176.14C177.373 242.421 178.143 243.217 178.143 244.186C178.143 245.041 177.562 245.683 176.085 245.683H173.868ZM173.868 241.223V238.126H175.966C177.184 238.126 177.765 238.767 177.765 239.612C177.765 240.597 176.96 241.223 175.926 241.223H173.868ZM184.589 247.154C186.742 247.154 188.149 245.578 188.149 243.217C188.149 240.84 186.742 239.264 184.589 239.264C182.436 239.264 181.029 240.84 181.029 243.217C181.029 245.578 182.436 247.154 184.589 247.154ZM184.594 245.906C183.187 245.906 182.531 244.678 182.531 243.212C182.531 241.75 183.187 240.507 184.594 240.507C185.991 240.507 186.647 241.75 186.647 243.212C186.647 244.678 185.991 245.906 184.594 245.906ZM193.025 247.154C195.177 247.154 196.584 245.578 196.584 243.217C196.584 240.84 195.177 239.264 193.025 239.264C190.872 239.264 189.465 240.84 189.465 243.217C189.465 245.578 190.872 247.154 193.025 247.154ZM193.029 245.906C191.623 245.906 190.966 244.678 190.966 243.212C190.966 241.75 191.623 240.507 193.029 240.507C194.426 240.507 195.083 241.75 195.083 243.212C195.083 244.678 194.426 245.906 193.029 245.906ZM198.243 247H199.73V244.29L200.471 243.55L203.066 247H204.89L201.589 242.64L204.682 239.364H202.902L199.859 242.595H199.73V236.818H198.243V247ZM206.156 236.818V247H207.617V239.627H207.712L210.715 246.985H211.928L214.931 239.632H215.025V247H216.487V236.818H214.622L211.381 244.733H211.262L208.02 236.818H206.156ZM219.54 249.864C220.768 249.864 221.544 249.222 221.987 248.019L225.143 239.379L223.538 239.364L221.604 245.29H221.524L219.59 239.364H217.999L220.793 247.099L220.609 247.607C220.232 248.621 219.7 248.705 218.884 248.482L218.526 249.7C218.705 249.779 219.093 249.864 219.54 249.864ZM232.217 239.493H233.698C233.654 237.862 232.212 236.679 230.144 236.679C228.1 236.679 226.534 237.847 226.534 239.602C226.534 241.019 227.548 241.849 229.184 242.292L230.387 242.62C231.476 242.908 232.316 243.266 232.316 244.171C232.316 245.165 231.367 245.822 230.059 245.822C228.876 245.822 227.892 245.295 227.802 244.186H226.261C226.36 246.031 227.787 247.169 230.069 247.169C232.46 247.169 233.838 245.911 233.838 244.186C233.838 242.352 232.202 241.641 230.909 241.322L229.915 241.064C229.119 240.86 228.061 240.487 228.066 239.513C228.066 238.648 228.856 238.006 230.109 238.006C231.277 238.006 232.107 238.553 232.217 239.493ZM237.04 242.466C237.04 241.248 237.811 240.552 238.87 240.552C239.894 240.552 240.506 241.203 240.506 242.322V247H241.992V242.143C241.992 240.239 240.948 239.264 239.377 239.264C238.189 239.264 237.473 239.781 237.115 240.607H237.021V236.818H235.554V247H237.04V242.466ZM247.192 247.154C249.345 247.154 250.752 245.578 250.752 243.217C250.752 240.84 249.345 239.264 247.192 239.264C245.04 239.264 243.633 240.84 243.633 243.217C243.633 245.578 245.04 247.154 247.192 247.154ZM247.197 245.906C245.79 245.906 245.134 244.678 245.134 243.212C245.134 241.75 245.79 240.507 247.197 240.507C248.594 240.507 249.251 241.75 249.251 243.212C249.251 244.678 248.594 245.906 247.197 245.906ZM253.835 247H255.346L256.897 241.487H257.011L258.562 247H260.079L262.321 239.364H260.785L259.298 244.947H259.224L257.732 239.364H256.196L254.695 244.972H254.62L253.124 239.364H251.587L253.835 247Z" fill="#969BAB"/>
</g>
<defs>
<filter id="filter0_d" x="0" y="0" width="390" height="316" filterUnits="userSpaceOnUse" color-interpolation-filters="sRGB">
<feFlood flood-opacity="0" result="BackgroundImageFix"/>
<feColorMatrix in="SourceAlpha" type="matrix" values="0 0 0 0 0 0 0 0 0 0 0 0 0 0 0 0 0 0 127 0" result="hardAlpha"/>
<feOffset dy="10"/>
<feGaussianBlur stdDeviation="10"/>
<feColorMatrix type="matrix" values="0 0 0 0 0.160784 0 0 0 0 0.160784 0 0 0 0 0.164706 0 0 0 0.07 0"/>
<feBlend mode="normal" in2="BackgroundImageFix" result="effect1_dropShadow"/>
<feBlend mode="normal" in="SourceGraphic" in2="effect1_dropShadow" result="shape"/>
</filter>
</defs>
</svg>
