<svg width="390" height="508" viewBox="0 0 390 508" fill="none" xmlns="http://www.w3.org/2000/svg">
<g filter="url(#filter0_d)">
<rect x="20" y="10" width="350" height="468" rx="8" fill="white"/>
<g clip-path="url(#clip0)">
<path d="M67.1612 48.6212V59.9041H56.8808V48.6212H52V75.5546H56.8808V64.6381H67.1612V75.5546H72.042V48.6212H67.1612Z" fill="#33475B"/>
<path d="M87.6624 66.8484C87.6624 67.9278 87.237 68.963 86.4798 69.7262C85.7226 70.4895 84.6955 70.9183 83.6246 70.9183C82.5537 70.9183 81.5267 70.4895 80.7695 69.7262C80.0122 68.963 79.5868 67.9278 79.5868 66.8484V55.3124H74.9571V66.8484C74.9571 69.1632 75.8694 71.3832 77.4933 73.02C79.1172 74.6568 81.3197 75.5763 83.6163 75.5763C85.9128 75.5763 88.1153 74.6568 89.7392 73.02C91.3631 71.3832 92.2754 69.1632 92.2754 66.8484V55.3124H87.6624V66.8484Z" fill="#33475B"/>
<path d="M121.964 56.5007C121.964 54.1361 123.516 53.3865 125.217 53.3865C126.587 53.3865 128.397 54.4374 129.581 55.7125L132.613 52.1114C131.099 50.0482 128.029 48.6212 125.516 48.6212C120.494 48.6212 116.861 51.586 116.861 56.5007C116.861 65.6191 127.919 62.7267 127.919 67.8294C127.919 69.4034 126.403 70.7942 124.667 70.7942C121.929 70.7942 121.041 69.4444 119.783 68.0174L116.419 71.5438C118.571 74.2072 121.225 75.5595 124.406 75.5595C129.177 75.5595 133.015 72.5585 133.015 67.868C133.015 57.7444 121.957 60.89 121.957 56.5007" fill="#33475B"/>
<path d="M190.371 71.252C187.636 71.252 186.859 70.0589 186.859 68.2318V60.1451H191.11V56.0474H186.859V50.641L182.164 52.7645V69.237C182.164 73.4503 185.048 75.5738 189.004 75.5738C189.624 75.5852 190.244 75.5351 190.854 75.4244L192 71.1749C191.483 71.211 190.89 71.2472 190.371 71.2472" fill="#33475B"/>
<path d="M105.284 55.4472C102.991 55.4472 101.391 56.1173 99.8441 57.6479V48.7826H95.2072V65.214C95.2072 71.3653 99.6193 75.5786 104.577 75.5786C110.077 75.5786 114.914 71.2906 114.914 65.5153C114.914 59.8124 110.462 55.4497 105.284 55.4497V55.4472ZM105.256 70.876C104.215 70.876 103.198 70.565 102.333 69.9823C101.468 69.3996 100.793 68.5714 100.395 67.6025C99.997 66.6335 99.8928 65.5673 100.096 64.5387C100.299 63.51 100.8 62.5652 101.536 61.8235C102.271 61.0819 103.209 60.5769 104.229 60.3723C105.25 60.1677 106.308 60.2727 107.269 60.674C108.23 61.0754 109.052 61.7551 109.63 62.6271C110.208 63.4992 110.517 64.5244 110.517 65.5732C110.517 66.9796 109.962 68.3284 108.976 69.3228C107.989 70.3173 106.651 70.876 105.256 70.876Z" fill="#33475B"/>
<path d="M155.632 65.2697C155.632 59.4848 150.804 55.2064 145.294 55.2064C140.337 55.2064 135.925 59.4197 135.925 65.571V82.0121H140.562V73.1347C142.106 74.6629 143.709 75.3354 146 75.3354C151.177 75.3354 155.63 70.975 155.63 65.2697H155.632ZM151.241 65.2118C151.241 66.2606 150.933 67.2859 150.355 68.1579C149.777 69.03 148.955 69.7096 147.994 70.111C147.032 70.5123 145.975 70.6174 144.954 70.4127C143.934 70.2081 142.996 69.7031 142.26 68.9615C141.525 68.2199 141.024 67.275 140.821 66.2464C140.618 65.2177 140.722 64.1515 141.12 63.1825C141.518 62.2136 142.192 61.3854 143.058 60.8027C143.923 60.22 144.94 59.909 145.98 59.909C147.376 59.909 148.714 60.4677 149.701 61.4622C150.687 62.4567 151.241 63.8054 151.241 65.2118Z" fill="#33475B"/>
<path d="M170.612 54.9798V50.2844C171.227 49.9945 171.749 49.5342 172.115 48.9573C172.481 48.3804 172.677 47.7105 172.68 47.0256V46.9171C172.68 45.9582 172.302 45.0386 171.63 44.3605C170.957 43.6825 170.045 43.3016 169.093 43.3016H168.986C168.034 43.3016 167.122 43.6825 166.449 44.3605C165.776 45.0386 165.399 45.9582 165.399 46.9171V47.0256C165.402 47.7105 165.598 48.3804 165.964 48.9573C166.33 49.5342 166.851 49.9945 167.467 50.2844V54.9798C165.698 55.2526 164.031 55.9918 162.637 57.1226L149.862 47.0931C149.952 46.7623 150 46.4213 150.005 46.0783C150.007 45.2725 149.771 44.4844 149.328 43.8137C148.885 43.143 148.255 42.6197 147.517 42.3102C146.779 42.0006 145.966 41.9186 145.182 42.0746C144.397 42.2306 143.677 42.6175 143.11 43.1864C142.544 43.7553 142.158 44.4807 142.001 45.2708C141.844 46.0608 141.923 46.8801 142.228 47.6249C142.533 48.3698 143.05 49.0067 143.714 49.4552C144.379 49.9037 145.16 50.1436 145.959 50.1446C146.658 50.1414 147.344 49.9536 147.949 49.5998L160.53 59.4655C159.399 61.1864 158.809 63.2107 158.837 65.2745C158.865 67.3383 159.509 69.3458 160.685 71.0352L156.859 74.8918C156.55 74.7922 156.227 74.7394 155.902 74.7351C155.246 74.7356 154.605 74.9322 154.059 75.3C153.514 75.6678 153.089 76.1903 152.838 76.8015C152.587 77.4128 152.521 78.0852 152.65 78.734C152.778 79.3827 153.094 79.9787 153.558 80.4464C154.022 80.9141 154.613 81.2327 155.257 81.3619C155.9 81.4911 156.568 81.425 157.174 81.1721C157.78 80.9192 158.299 80.4907 158.664 79.9409C159.029 79.3911 159.224 78.7446 159.224 78.0831C159.22 77.7558 159.168 77.4308 159.069 77.119L162.854 73.3034C164.089 74.2608 165.524 74.9208 167.05 75.2328C168.577 75.5447 170.154 75.5004 171.661 75.1032C173.168 74.706 174.564 73.9664 175.744 72.9412C176.924 71.9159 177.855 70.6321 178.466 69.1882C179.077 67.7442 179.353 66.1784 179.271 64.6106C179.189 63.0429 178.752 61.5147 177.994 60.1433C177.236 58.7719 176.177 57.5936 174.897 56.6986C173.618 55.8035 172.152 55.2156 170.612 54.9798ZM169.043 70.4206C168.008 70.4196 166.996 70.1093 166.135 69.5288C165.274 68.9483 164.604 68.1237 164.208 67.1592C163.812 66.1947 163.709 65.1336 163.912 64.11C164.114 63.0864 164.613 62.1463 165.345 61.4084C166.078 60.6706 167.011 60.1681 168.026 59.9646C169.042 59.761 170.095 59.8655 171.051 60.2648C172.008 60.6641 172.826 61.3403 173.401 62.2079C173.977 63.0756 174.284 64.0957 174.285 65.1395C174.285 66.5395 173.733 67.8821 172.751 68.8721C171.769 69.862 170.437 70.4182 169.048 70.4182" fill="#FF7A59"/>
</g>
<g opacity="0.3">
<path fill-rule="evenodd" clip-rule="evenodd" d="M67.9298 116.187C65.5439 117.401 64.351 118.829 64.351 120.469C65.3679 120.59 66.2088 121.02 66.8738 121.759C67.5387 122.498 67.8712 123.354 67.8712 124.325C67.8712 125.358 67.5485 126.228 66.9031 126.937C66.2577 127.646 65.4461 128 64.4683 128C63.3731 128 62.4246 127.539 61.6228 126.618C60.821 125.697 60.4201 124.578 60.4201 123.262C60.4201 119.315 62.5517 116.227 66.8151 114L67.9298 116.187ZM59.5098 116.187C57.1043 117.401 55.9016 118.829 55.9016 120.469C56.9381 120.59 57.7888 121.02 58.4537 121.759C59.1186 122.498 59.4511 123.354 59.4511 124.325C59.4511 125.358 59.1235 126.228 58.4684 126.937C57.8132 127.646 56.9967 128 56.0189 128C54.9237 128 53.9801 127.539 53.1881 126.618C52.396 125.697 52 124.578 52 123.262C52 119.315 54.1219 116.227 58.3657 114L59.5098 116.187Z" fill="#2EC5CE"/>
</g>
<path d="M84.8693 125.315H88.9858V137H90.571V125.315H94.6875V123.909H84.8693V125.315ZM99.4943 137.205C102.153 137.205 103.943 135.185 103.943 132.142C103.943 129.074 102.153 127.054 99.4943 127.054C96.8352 127.054 95.0455 129.074 95.0455 132.142C95.0455 135.185 96.8352 137.205 99.4943 137.205ZM99.4943 135.849C97.4744 135.849 96.554 134.111 96.554 132.142C96.554 130.173 97.4744 128.409 99.4943 128.409C101.514 128.409 102.435 130.173 102.435 132.142C102.435 134.111 101.514 135.849 99.4943 135.849ZM119.516 140.682V127.182H118.058V128.741H117.879C117.547 128.23 116.959 127.054 115.041 127.054C112.561 127.054 110.848 129.023 110.848 132.116C110.848 135.236 112.561 137.205 115.016 137.205C116.908 137.205 117.547 136.028 117.879 135.491H118.007V140.682H119.516ZM118.033 132.091C118.033 134.315 117.036 135.849 115.22 135.849C113.328 135.849 112.357 134.188 112.357 132.091C112.357 130.02 113.303 128.409 115.22 128.409C117.061 128.409 118.033 129.892 118.033 132.091ZM128.465 132.986C128.465 134.827 127.058 135.67 125.933 135.67C124.681 135.67 123.786 134.75 123.786 133.318V127.182H122.277V133.42C122.277 135.926 123.607 137.128 125.448 137.128C126.931 137.128 127.902 136.335 128.362 135.338H128.465V137H129.973V127.182H128.465V132.986ZM132.736 137H134.245V127.182H132.736V137ZM133.503 125.545C134.091 125.545 134.577 125.085 134.577 124.523C134.577 123.96 134.091 123.5 133.503 123.5C132.915 123.5 132.429 123.96 132.429 124.523C132.429 125.085 132.915 125.545 133.503 125.545ZM140.996 137.205C143.17 137.205 144.601 135.875 144.857 134.136H143.349C143.067 135.21 142.172 135.849 140.996 135.849C139.206 135.849 138.056 134.366 138.056 132.091C138.056 129.866 139.232 128.409 140.996 128.409C142.326 128.409 143.118 129.227 143.349 130.122H144.857C144.601 128.281 143.042 127.054 140.971 127.054C138.312 127.054 136.547 129.151 136.547 132.142C136.547 135.082 138.235 137.205 140.996 137.205ZM147.062 137H148.571V133.325L149.626 132.347L153.301 137H155.219L150.763 131.375L154.912 127.182H153.045L148.75 131.554H148.571V123.909H147.062V137ZM156.853 123.909V134.852C156.853 136.252 157.569 137.077 159.001 137.077C159.436 137.077 159.864 137 160.126 136.923L159.819 135.619C159.672 135.664 159.538 135.709 159.18 135.722C158.515 135.741 158.362 135.396 158.362 134.443V123.909H156.853ZM162.483 140.682C163.845 140.682 164.803 139.96 165.372 138.432L169.553 127.207L167.904 127.182L165.193 135.006H165.091L162.381 127.182H160.744L164.375 137.051L164.094 137.818C163.544 139.314 162.867 139.455 161.767 139.173L161.384 140.503C161.537 140.58 161.972 140.682 162.483 140.682ZM183.566 129.381C183.093 127.987 182.032 127.054 180.088 127.054C178.017 127.054 176.483 128.23 176.483 129.892C176.483 131.247 177.289 132.155 179.091 132.577L180.728 132.96C181.718 133.19 182.185 133.663 182.185 134.341C182.185 135.185 181.29 135.875 179.884 135.875C178.65 135.875 177.877 135.344 177.608 134.29L176.176 134.648C176.528 136.316 177.902 137.205 179.909 137.205C182.191 137.205 183.745 135.958 183.745 134.264C183.745 132.896 182.888 132.033 181.137 131.605L179.679 131.247C178.516 130.96 177.992 130.57 177.992 129.815C177.992 128.972 178.887 128.358 180.088 128.358C181.405 128.358 181.949 129.087 182.211 129.764L183.566 129.381ZM190.285 127.182H188.189V124.83H186.68V127.182H185.197V128.46H186.68V134.597C186.68 136.31 188.061 137.128 189.339 137.128C189.902 137.128 190.26 137.026 190.464 136.949L190.157 135.594C190.03 135.619 189.825 135.67 189.493 135.67C188.828 135.67 188.189 135.466 188.189 134.188V128.46H190.285V127.182ZM196.156 137.205C198.048 137.205 198.688 136.028 199.02 135.491H199.199V137H200.656V127.182H199.148V128.741H199.02C198.688 128.23 198.1 127.054 196.182 127.054C193.702 127.054 191.989 129.023 191.989 132.116C191.989 135.236 193.702 137.205 196.156 137.205ZM196.361 135.849C194.469 135.849 193.497 134.188 193.497 132.091C193.497 130.02 194.443 128.409 196.361 128.409C198.202 128.409 199.173 129.892 199.173 132.091C199.173 134.315 198.176 135.849 196.361 135.849ZM203.629 137H205.137V130.787C205.137 129.464 206.186 128.486 207.617 128.486C207.994 128.486 208.276 128.556 208.487 128.665L208.998 127.386C208.691 127.169 208.289 127.028 207.745 127.028C206.556 127.028 205.54 127.693 205.188 128.665H205.086V127.182H203.629V137ZM215.422 127.182H213.325V124.83H211.817V127.182H210.334V128.46H211.817V134.597C211.817 136.31 213.198 137.128 214.476 137.128C215.039 137.128 215.396 137.026 215.601 136.949L215.294 135.594C215.166 135.619 214.962 135.67 214.629 135.67C213.965 135.67 213.325 135.466 213.325 134.188V128.46H215.422V127.182ZM222.754 137H224.262V130.864C224.262 129.425 225.311 128.409 226.487 128.409C227.631 128.409 228.43 129.157 228.43 130.276V137H229.964V130.608C229.964 129.342 230.757 128.409 232.137 128.409C233.211 128.409 234.132 128.978 234.132 130.429V137H235.64V130.429C235.64 128.121 234.4 127.054 232.649 127.054C231.242 127.054 230.213 127.7 229.708 128.716H229.606C229.12 127.668 228.264 127.054 226.972 127.054C225.694 127.054 224.748 127.668 224.339 128.716H224.211V127.182H222.754V137ZM239.018 140.682C240.38 140.682 241.339 139.96 241.907 138.432L246.088 127.207L244.439 127.182L241.729 135.006H241.626L238.916 127.182H237.28L240.91 137.051L240.629 137.818C240.079 139.314 239.402 139.455 238.302 139.173L237.919 140.503C238.072 140.58 238.507 140.682 239.018 140.682ZM260.101 129.381C259.628 127.987 258.567 127.054 256.624 127.054C254.553 127.054 253.018 128.23 253.018 129.892C253.018 131.247 253.824 132.155 255.626 132.577L257.263 132.96C258.254 133.19 258.72 133.663 258.72 134.341C258.72 135.185 257.825 135.875 256.419 135.875C255.185 135.875 254.412 135.344 254.143 134.29L252.712 134.648C253.063 136.316 254.438 137.205 256.445 137.205C258.727 137.205 260.28 135.958 260.28 134.264C260.28 132.896 259.423 132.033 257.672 131.605L256.214 131.247C255.051 130.96 254.527 130.57 254.527 129.815C254.527 128.972 255.422 128.358 256.624 128.358C257.94 128.358 258.484 129.087 258.746 129.764L260.101 129.381ZM266.82 127.182H264.724V124.83H263.215V127.182H261.732V128.46H263.215V134.597C263.215 136.31 264.596 137.128 265.874 137.128C266.437 137.128 266.795 137.026 266.999 136.949L266.693 135.594C266.565 135.619 266.36 135.67 266.028 135.67C265.363 135.67 264.724 135.466 264.724 134.188V128.46H266.82V127.182ZM272.692 137.205C274.584 137.205 275.223 136.028 275.555 135.491H275.734V137H277.192V127.182H275.683V128.741H275.555C275.223 128.23 274.635 127.054 272.717 127.054C270.237 127.054 268.524 129.023 268.524 132.116C268.524 135.236 270.237 137.205 272.692 137.205ZM272.896 135.849C271.004 135.849 270.032 134.188 270.032 132.091C270.032 130.02 270.979 128.409 272.896 128.409C274.737 128.409 275.709 129.892 275.709 132.091C275.709 134.315 274.711 135.849 272.896 135.849ZM280.164 137H281.672V130.787C281.672 129.464 282.721 128.486 284.153 128.486C284.53 128.486 284.811 128.556 285.022 128.665L285.533 127.386C285.226 127.169 284.824 127.028 284.28 127.028C283.091 127.028 282.075 127.693 281.724 128.665H281.621V127.182H280.164V137ZM291.957 127.182H289.861V124.83H288.352V127.182H286.869V128.46H288.352V134.597C288.352 136.31 289.733 137.128 291.011 137.128C291.574 137.128 291.932 137.026 292.136 136.949L291.829 135.594C291.702 135.619 291.497 135.67 291.165 135.67C290.5 135.67 289.861 135.466 289.861 134.188V128.46H291.957V127.182ZM300.414 132.986C300.414 134.827 299.008 135.67 297.883 135.67C296.63 135.67 295.735 134.75 295.735 133.318V127.182H294.226V133.42C294.226 135.926 295.556 137.128 297.397 137.128C298.88 137.128 299.851 136.335 300.312 135.338H300.414V137H301.922V127.182H300.414V132.986ZM304.685 140.682H306.194V135.491H306.322C306.654 136.028 307.293 137.205 309.185 137.205C311.64 137.205 313.353 135.236 313.353 132.116C313.353 129.023 311.64 127.054 309.16 127.054C307.242 127.054 306.654 128.23 306.322 128.741H306.143V127.182H304.685V140.682ZM306.168 132.091C306.168 129.892 307.14 128.409 308.981 128.409C310.898 128.409 311.844 130.02 311.844 132.091C311.844 134.188 310.873 135.849 308.981 135.849C307.165 135.849 306.168 134.315 306.168 132.091ZM85.3807 155.909V166.852C85.3807 168.252 86.0966 169.077 87.5284 169.077C87.9631 169.077 88.3913 169 88.6534 168.923L88.3466 167.619C88.1996 167.664 88.0653 167.709 87.7074 167.722C87.0426 167.741 86.8892 167.396 86.8892 166.443V155.909H85.3807ZM93.7463 169.205C95.6383 169.205 96.2775 168.028 96.6099 167.491H96.7889V169H98.2463V159.182H96.7377V160.741H96.6099C96.2775 160.23 95.6895 159.054 93.7718 159.054C91.2917 159.054 89.5787 161.023 89.5787 164.116C89.5787 167.236 91.2917 169.205 93.7463 169.205ZM93.9508 167.849C92.0588 167.849 91.0872 166.188 91.0872 164.091C91.0872 162.02 92.0332 160.409 93.9508 160.409C95.7917 160.409 96.7633 161.892 96.7633 164.091C96.7633 166.315 95.7662 167.849 93.9508 167.849ZM102.727 163.094C102.727 161.381 103.788 160.409 105.233 160.409C106.633 160.409 107.483 161.323 107.483 162.864V169H108.991V162.761C108.991 160.256 107.655 159.054 105.667 159.054C104.184 159.054 103.264 159.719 102.804 160.716H102.676V159.182H101.219V169H102.727V163.094ZM115.455 169.205C117.347 169.205 117.987 168.028 118.319 167.491H118.498V169H119.955V155.909H118.447V160.741H118.319C117.987 160.23 117.398 159.054 115.481 159.054C113.001 159.054 111.288 161.023 111.288 164.116C111.288 167.236 113.001 169.205 115.455 169.205ZM115.66 167.849C113.768 167.849 112.796 166.188 112.796 164.091C112.796 162.02 113.742 160.409 115.66 160.409C117.501 160.409 118.472 161.892 118.472 164.091C118.472 166.315 117.475 167.849 115.66 167.849ZM122.928 169H124.436V159.182H122.928V169ZM123.695 157.545C124.283 157.545 124.768 157.085 124.768 156.523C124.768 155.96 124.283 155.5 123.695 155.5C123.107 155.5 122.621 155.96 122.621 156.523C122.621 157.085 123.107 157.545 123.695 157.545ZM128.708 163.094C128.708 161.381 129.769 160.409 131.213 160.409C132.613 160.409 133.463 161.323 133.463 162.864V169H134.972V162.761C134.972 160.256 133.636 159.054 131.648 159.054C130.165 159.054 129.244 159.719 128.784 160.716H128.656V159.182H127.199V169H128.708V163.094ZM141.691 172.886C144.044 172.886 145.936 171.812 145.936 169.281V159.182H144.478V160.741H144.325C143.993 160.23 143.379 159.054 141.461 159.054C138.981 159.054 137.268 161.023 137.268 164.04C137.268 167.108 139.058 168.847 141.436 168.847C143.353 168.847 143.967 167.722 144.299 167.185H144.427V169.179C144.427 170.815 143.277 171.557 141.691 171.557C139.908 171.557 139.282 170.617 138.879 170.074L137.677 170.918C138.291 171.947 139.499 172.886 141.691 172.886ZM141.64 167.491C139.748 167.491 138.777 166.06 138.777 164.014C138.777 162.02 139.723 160.409 141.64 160.409C143.481 160.409 144.453 161.892 144.453 164.014C144.453 166.188 143.456 167.491 141.64 167.491ZM153.76 172.682H155.268V167.491H155.396C155.728 168.028 156.368 169.205 158.26 169.205C160.714 169.205 162.427 167.236 162.427 164.116C162.427 161.023 160.714 159.054 158.234 159.054C156.316 159.054 155.728 160.23 155.396 160.741H155.217V159.182H153.76V172.682ZM155.243 164.091C155.243 161.892 156.214 160.409 158.055 160.409C159.973 160.409 160.919 162.02 160.919 164.091C160.919 166.188 159.947 167.849 158.055 167.849C156.24 167.849 155.243 166.315 155.243 164.091ZM168.436 169.205C170.328 169.205 170.967 168.028 171.299 167.491H171.478V169H172.936V159.182H171.427V160.741H171.299C170.967 160.23 170.379 159.054 168.461 159.054C165.981 159.054 164.268 161.023 164.268 164.116C164.268 167.236 165.981 169.205 168.436 169.205ZM168.64 167.849C166.748 167.849 165.777 166.188 165.777 164.091C165.777 162.02 166.723 160.409 168.64 160.409C170.481 160.409 171.453 161.892 171.453 164.091C171.453 166.315 170.456 167.849 168.64 167.849ZM179.871 172.886C182.223 172.886 184.115 171.812 184.115 169.281V159.182H182.658V160.741H182.505C182.172 160.23 181.559 159.054 179.641 159.054C177.161 159.054 175.448 161.023 175.448 164.04C175.448 167.108 177.238 168.847 179.615 168.847C181.533 168.847 182.147 167.722 182.479 167.185H182.607V169.179C182.607 170.815 181.456 171.557 179.871 171.557C178.088 171.557 177.461 170.617 177.059 170.074L175.857 170.918C176.471 171.947 177.679 172.886 179.871 172.886ZM179.82 167.491C177.928 167.491 176.956 166.06 176.956 164.014C176.956 162.02 177.902 160.409 179.82 160.409C181.661 160.409 182.632 161.892 182.632 164.014C182.632 166.188 181.635 167.491 179.82 167.491ZM190.993 169.205C192.988 169.205 194.445 168.207 194.905 166.724L193.448 166.315C193.064 167.338 192.176 167.849 190.993 167.849C189.223 167.849 188.002 166.705 187.931 164.602H195.059V163.963C195.059 160.307 192.885 159.054 190.84 159.054C188.181 159.054 186.417 161.151 186.417 164.168C186.417 167.185 188.155 169.205 190.993 169.205ZM187.931 163.298C188.034 161.771 189.114 160.409 190.84 160.409C192.476 160.409 193.525 161.636 193.525 163.298H187.931ZM206.123 169.205C208.015 169.205 208.654 168.028 208.987 167.491H209.166V169H210.623V155.909H209.115V160.741H208.987C208.654 160.23 208.066 159.054 206.149 159.054C203.669 159.054 201.956 161.023 201.956 164.116C201.956 167.236 203.669 169.205 206.123 169.205ZM206.328 167.849C204.436 167.849 203.464 166.188 203.464 164.091C203.464 162.02 204.41 160.409 206.328 160.409C208.169 160.409 209.14 161.892 209.14 164.091C209.14 166.315 208.143 167.849 206.328 167.849ZM217.712 169.205C219.706 169.205 221.164 168.207 221.624 166.724L220.167 166.315C219.783 167.338 218.895 167.849 217.712 167.849C215.941 167.849 214.721 166.705 214.65 164.602H221.777V163.963C221.777 160.307 219.604 159.054 217.559 159.054C214.9 159.054 213.135 161.151 213.135 164.168C213.135 167.185 214.874 169.205 217.712 169.205ZM214.65 163.298C214.752 161.771 215.833 160.409 217.559 160.409C219.195 160.409 220.243 161.636 220.243 163.298H214.65ZM231.027 161.381C230.554 159.987 229.493 159.054 227.549 159.054C225.478 159.054 223.944 160.23 223.944 161.892C223.944 163.247 224.75 164.155 226.552 164.577L228.189 164.96C229.179 165.19 229.646 165.663 229.646 166.341C229.646 167.185 228.751 167.875 227.345 167.875C226.111 167.875 225.338 167.344 225.069 166.29L223.637 166.648C223.989 168.316 225.363 169.205 227.37 169.205C229.652 169.205 231.206 167.958 231.206 166.264C231.206 164.896 230.349 164.033 228.598 163.605L227.14 163.247C225.977 162.96 225.453 162.57 225.453 161.815C225.453 160.972 226.348 160.358 227.549 160.358C228.866 160.358 229.409 161.087 229.672 161.764L231.027 161.381ZM233.476 169H234.985V159.182H233.476V169ZM234.243 157.545C234.831 157.545 235.317 157.085 235.317 156.523C235.317 155.96 234.831 155.5 234.243 155.5C233.655 155.5 233.17 155.96 233.17 156.523C233.17 157.085 233.655 157.545 234.243 157.545ZM241.711 172.886C244.063 172.886 245.955 171.812 245.955 169.281V159.182H244.498V160.741H244.344C244.012 160.23 243.398 159.054 241.481 159.054C239.001 159.054 237.288 161.023 237.288 164.04C237.288 167.108 239.077 168.847 241.455 168.847C243.373 168.847 243.987 167.722 244.319 167.185H244.447V169.179C244.447 170.815 243.296 171.557 241.711 171.557C239.928 171.557 239.301 170.617 238.898 170.074L237.697 170.918C238.31 171.947 239.518 172.886 241.711 172.886ZM241.66 167.491C239.768 167.491 238.796 166.06 238.796 164.014C238.796 162.02 239.742 160.409 241.66 160.409C243.501 160.409 244.472 161.892 244.472 164.014C244.472 166.188 243.475 167.491 241.66 167.491ZM250.225 163.094C250.225 161.381 251.286 160.409 252.731 160.409C254.131 160.409 254.981 161.323 254.981 162.864V169H256.489V162.761C256.489 160.256 255.153 159.054 253.165 159.054C251.683 159.054 250.762 159.719 250.302 160.716H250.174V159.182H248.717V169H250.225V163.094ZM261.496 167.21H259.86L259.783 167.926C259.597 169.658 259.233 171.384 259.067 172.196H260.218C260.524 171.327 261.176 169.358 261.394 167.901L261.496 167.21ZM271.143 155.909H269.558V169H271.143V155.909ZM281.404 169H282.887L285.035 161.457H285.188L287.336 169H288.819L291.81 159.182H290.225L288.103 166.673H288.001L285.93 159.182H284.319L282.222 166.699H282.12L279.998 159.182H278.412L281.404 169ZM297.178 169.205C299.07 169.205 299.709 168.028 300.042 167.491H300.221V169H301.678V159.182H300.169V160.741H300.042C299.709 160.23 299.121 159.054 297.203 159.054C294.723 159.054 293.01 161.023 293.01 164.116C293.01 167.236 294.723 169.205 297.178 169.205ZM297.382 167.849C295.49 167.849 294.519 166.188 294.519 164.091C294.519 162.02 295.465 160.409 297.382 160.409C299.223 160.409 300.195 161.892 300.195 164.091C300.195 166.315 299.198 167.849 297.382 167.849ZM311.605 161.381C311.132 159.987 310.071 159.054 308.127 159.054C306.056 159.054 304.522 160.23 304.522 161.892C304.522 163.247 305.328 164.155 307.13 164.577L308.767 164.96C309.757 165.19 310.224 165.663 310.224 166.341C310.224 167.185 309.329 167.875 307.923 167.875C306.689 167.875 305.916 167.344 305.647 166.29L304.216 166.648C304.567 168.316 305.941 169.205 307.949 169.205C310.23 169.205 311.784 167.958 311.784 166.264C311.784 164.896 310.927 164.033 309.176 163.605L307.718 163.247C306.555 162.96 306.031 162.57 306.031 161.815C306.031 160.972 306.926 160.358 308.127 160.358C309.444 160.358 309.988 161.087 310.25 161.764L311.605 161.381ZM85.3807 187.909V198.852C85.3807 200.252 86.0966 201.077 87.5284 201.077C87.9631 201.077 88.3913 201 88.6534 200.923L88.3466 199.619C88.1996 199.664 88.0653 199.709 87.7074 199.722C87.0426 199.741 86.8892 199.396 86.8892 198.443V187.909H85.3807ZM94.0275 201.205C96.6866 201.205 98.4764 199.185 98.4764 196.142C98.4764 193.074 96.6866 191.054 94.0275 191.054C91.3684 191.054 89.5787 193.074 89.5787 196.142C89.5787 199.185 91.3684 201.205 94.0275 201.205ZM94.0275 199.849C92.0076 199.849 91.0872 198.111 91.0872 196.142C91.0872 194.173 92.0076 192.409 94.0275 192.409C96.0474 192.409 96.9679 194.173 96.9679 196.142C96.9679 198.111 96.0474 199.849 94.0275 199.849ZM104.768 201.205C107.427 201.205 109.217 199.185 109.217 196.142C109.217 193.074 107.427 191.054 104.768 191.054C102.109 191.054 100.319 193.074 100.319 196.142C100.319 199.185 102.109 201.205 104.768 201.205ZM104.768 199.849C102.748 199.849 101.827 198.111 101.827 196.142C101.827 194.173 102.748 192.409 104.768 192.409C106.788 192.409 107.708 194.173 107.708 196.142C107.708 198.111 106.788 199.849 104.768 199.849ZM111.519 201H113.028V197.325L114.083 196.347L117.758 201H119.676L115.22 195.375L119.369 191.182H117.502L113.207 195.554H113.028V187.909H111.519V201ZM121.31 201H122.819V191.182H121.31V201ZM122.077 189.545C122.665 189.545 123.151 189.085 123.151 188.523C123.151 187.96 122.665 187.5 122.077 187.5C121.489 187.5 121.004 187.96 121.004 188.523C121.004 189.085 121.489 189.545 122.077 189.545ZM127.09 195.094C127.09 193.381 128.151 192.409 129.596 192.409C130.996 192.409 131.846 193.323 131.846 194.864V201H133.355V194.761C133.355 192.256 132.019 191.054 130.031 191.054C128.548 191.054 127.627 191.719 127.167 192.716H127.039V191.182H125.582V201H127.09V195.094ZM140.074 204.886C142.426 204.886 144.319 203.812 144.319 201.281V191.182H142.861V192.741H142.708C142.375 192.23 141.762 191.054 139.844 191.054C137.364 191.054 135.651 193.023 135.651 196.04C135.651 199.108 137.441 200.847 139.819 200.847C141.736 200.847 142.35 199.722 142.682 199.185H142.81V201.179C142.81 202.815 141.659 203.557 140.074 203.557C138.291 203.557 137.664 202.617 137.262 202.074L136.06 202.918C136.674 203.947 137.882 204.886 140.074 204.886ZM140.023 199.491C138.131 199.491 137.159 198.06 137.159 196.014C137.159 194.02 138.105 192.409 140.023 192.409C141.864 192.409 142.836 193.892 142.836 196.014C142.836 198.188 141.838 199.491 140.023 199.491ZM156.515 191.182H154.316V190.185C154.316 189.213 154.725 188.702 155.722 188.702C156.157 188.702 156.412 188.804 156.566 188.855L157 187.551C156.77 187.449 156.31 187.295 155.569 187.295C154.162 187.295 152.807 188.139 152.807 189.827V191.182H151.222V192.46H152.807V201H154.316V192.46H156.515V191.182ZM162.213 201.205C164.872 201.205 166.662 199.185 166.662 196.142C166.662 193.074 164.872 191.054 162.213 191.054C159.554 191.054 157.764 193.074 157.764 196.142C157.764 199.185 159.554 201.205 162.213 201.205ZM162.213 199.849C160.193 199.849 159.273 198.111 159.273 196.142C159.273 194.173 160.193 192.409 162.213 192.409C164.233 192.409 165.153 194.173 165.153 196.142C165.153 198.111 164.233 199.849 162.213 199.849ZM168.965 201H170.473V194.787C170.473 193.464 171.521 192.486 172.953 192.486C173.33 192.486 173.612 192.556 173.823 192.665L174.334 191.386C174.027 191.169 173.624 191.028 173.081 191.028C171.892 191.028 170.876 191.693 170.524 192.665H170.422V191.182H168.965V201ZM184.643 201.205C186.535 201.205 187.174 200.028 187.506 199.491H187.685V201H189.143V191.182H187.634V192.741H187.506C187.174 192.23 186.586 191.054 184.668 191.054C182.188 191.054 180.475 193.023 180.475 196.116C180.475 199.236 182.188 201.205 184.643 201.205ZM184.847 199.849C182.955 199.849 181.984 198.188 181.984 196.091C181.984 194.02 182.93 192.409 184.847 192.409C186.688 192.409 187.66 193.892 187.66 196.091C187.66 198.315 186.663 199.849 184.847 199.849ZM197.178 187.909V198.852C197.178 200.252 197.893 201.077 199.325 201.077C199.76 201.077 200.188 201 200.45 200.923L200.143 199.619C199.996 199.664 199.862 199.709 199.504 199.722C198.839 199.741 198.686 199.396 198.686 198.443V187.909H197.178ZM205.543 201.205C207.435 201.205 208.074 200.028 208.407 199.491H208.586V201H210.043V191.182H208.535V192.741H208.407C208.074 192.23 207.486 191.054 205.569 191.054C203.089 191.054 201.376 193.023 201.376 196.116C201.376 199.236 203.089 201.205 205.543 201.205ZM205.748 199.849C203.856 199.849 202.884 198.188 202.884 196.091C202.884 194.02 203.83 192.409 205.748 192.409C207.589 192.409 208.56 193.892 208.56 196.091C208.56 198.315 207.563 199.849 205.748 199.849ZM214.524 195.094C214.524 193.381 215.585 192.409 217.03 192.409C218.43 192.409 219.28 193.323 219.28 194.864V201H220.788V194.761C220.788 192.256 219.452 191.054 217.464 191.054C215.981 191.054 215.061 191.719 214.601 192.716H214.473V191.182H213.015V201H214.524V195.094ZM227.252 201.205C229.144 201.205 229.783 200.028 230.116 199.491H230.295V201H231.752V187.909H230.244V192.741H230.116C229.783 192.23 229.195 191.054 227.278 191.054C224.798 191.054 223.085 193.023 223.085 196.116C223.085 199.236 224.798 201.205 227.252 201.205ZM227.457 199.849C225.565 199.849 224.593 198.188 224.593 196.091C224.593 194.02 225.539 192.409 227.457 192.409C229.298 192.409 230.269 193.892 230.269 196.091C230.269 198.315 229.272 199.849 227.457 199.849ZM234.724 201H236.233V191.182H234.724V201ZM235.491 189.545C236.08 189.545 236.565 189.085 236.565 188.523C236.565 187.96 236.08 187.5 235.491 187.5C234.903 187.5 234.418 187.96 234.418 188.523C234.418 189.085 234.903 189.545 235.491 189.545ZM240.504 195.094C240.504 193.381 241.566 192.409 243.01 192.409C244.41 192.409 245.26 193.323 245.26 194.864V201H246.769V194.761C246.769 192.256 245.433 191.054 243.445 191.054C241.962 191.054 241.041 191.719 240.581 192.716H240.453V191.182H238.996V201H240.504V195.094ZM253.488 204.886C255.841 204.886 257.733 203.812 257.733 201.281V191.182H256.275V192.741H256.122C255.789 192.23 255.176 191.054 253.258 191.054C250.778 191.054 249.065 193.023 249.065 196.04C249.065 199.108 250.855 200.847 253.233 200.847C255.15 200.847 255.764 199.722 256.096 199.185H256.224V201.179C256.224 202.815 255.074 203.557 253.488 203.557C251.705 203.557 251.078 202.617 250.676 202.074L249.474 202.918C250.088 203.947 251.296 204.886 253.488 204.886ZM253.437 199.491C251.545 199.491 250.574 198.06 250.574 196.014C250.574 194.02 251.52 192.409 253.437 192.409C255.278 192.409 256.25 193.892 256.25 196.014C256.25 198.188 255.252 199.491 253.437 199.491ZM265.556 204.682H267.065V199.491H267.193C267.525 200.028 268.164 201.205 270.056 201.205C272.511 201.205 274.224 199.236 274.224 196.116C274.224 193.023 272.511 191.054 270.031 191.054C268.113 191.054 267.525 192.23 267.193 192.741H267.014V191.182H265.556V204.682ZM267.039 196.091C267.039 193.892 268.011 192.409 269.852 192.409C271.77 192.409 272.716 194.02 272.716 196.091C272.716 198.188 271.744 199.849 269.852 199.849C268.037 199.849 267.039 198.315 267.039 196.091ZM280.233 201.205C282.125 201.205 282.764 200.028 283.096 199.491H283.275V201H284.733V191.182H283.224V192.741H283.096C282.764 192.23 282.176 191.054 280.258 191.054C277.778 191.054 276.065 193.023 276.065 196.116C276.065 199.236 277.778 201.205 280.233 201.205ZM280.437 199.849C278.545 199.849 277.574 198.188 277.574 196.091C277.574 194.02 278.52 192.409 280.437 192.409C282.278 192.409 283.25 193.892 283.25 196.091C283.25 198.315 282.252 199.849 280.437 199.849ZM291.668 204.886C294.02 204.886 295.912 203.812 295.912 201.281V191.182H294.455V192.741H294.301C293.969 192.23 293.355 191.054 291.438 191.054C288.958 191.054 287.245 193.023 287.245 196.04C287.245 199.108 289.034 200.847 291.412 200.847C293.33 200.847 293.944 199.722 294.276 199.185H294.404V201.179C294.404 202.815 293.253 203.557 291.668 203.557C289.885 203.557 289.258 202.617 288.855 202.074L287.654 202.918C288.267 203.947 289.475 204.886 291.668 204.886ZM291.617 199.491C289.725 199.491 288.753 198.06 288.753 196.014C288.753 194.02 289.699 192.409 291.617 192.409C293.458 192.409 294.429 193.892 294.429 196.014C294.429 198.188 293.432 199.491 291.617 199.491ZM302.79 201.205C304.784 201.205 306.242 200.207 306.702 198.724L305.245 198.315C304.861 199.338 303.973 199.849 302.79 199.849C301.02 199.849 299.799 198.705 299.728 196.602H306.855V195.963C306.855 192.307 304.682 191.054 302.637 191.054C299.978 191.054 298.213 193.151 298.213 196.168C298.213 199.185 299.952 201.205 302.79 201.205ZM299.728 195.298C299.831 193.771 300.911 192.409 302.637 192.409C304.273 192.409 305.321 193.636 305.321 195.298H299.728ZM323.008 187.909V196.449C323.008 198.366 321.691 199.747 319.505 199.747C317.319 199.747 316.002 198.366 316.002 196.449V187.909H314.417V196.577C314.417 199.261 316.424 201.23 319.505 201.23C322.586 201.23 324.593 199.261 324.593 196.577V187.909H323.008ZM329.344 187.909H327.759V201H329.344V187.909ZM85.5852 233H87.1705V228.756L88.8068 226.915L93.358 233H95.2756L89.7784 225.815L95.2756 219.909H93.2045L87.3239 226.403H87.1705V219.909H85.5852V233ZM97.7381 233H99.2466V223.182H97.7381V233ZM98.5051 221.545C99.0932 221.545 99.579 221.085 99.579 220.523C99.579 219.96 99.0932 219.5 98.5051 219.5C97.9171 219.5 97.4313 219.96 97.4313 220.523C97.4313 221.085 97.9171 221.545 98.5051 221.545ZM106.279 223.182H104.183V220.83H102.674V223.182H101.191V224.46H102.674V230.597C102.674 232.31 104.055 233.128 105.333 233.128C105.896 233.128 106.254 233.026 106.458 232.949L106.152 231.594C106.024 231.619 105.819 231.67 105.487 231.67C104.822 231.67 104.183 231.466 104.183 230.188V224.46H106.279V223.182ZM109.648 233.102C110.281 233.102 110.799 232.585 110.799 231.952C110.799 231.319 110.281 230.801 109.648 230.801C109.015 230.801 108.498 231.319 108.498 231.952C108.498 232.585 109.015 233.102 109.648 233.102ZM118.773 233H126.443V231.594H120.358V219.909H118.773V233ZM132.401 233.205C134.293 233.205 134.932 232.028 135.264 231.491H135.443V233H136.901V223.182H135.392V224.741H135.264C134.932 224.23 134.344 223.054 132.426 223.054C129.946 223.054 128.233 225.023 128.233 228.116C128.233 231.236 129.946 233.205 132.401 233.205ZM132.605 231.849C130.713 231.849 129.741 230.188 129.741 228.091C129.741 226.02 130.688 224.409 132.605 224.409C134.446 224.409 135.418 225.892 135.418 228.091C135.418 230.315 134.42 231.849 132.605 231.849ZM141.381 227.094C141.381 225.381 142.442 224.409 143.887 224.409C145.287 224.409 146.137 225.323 146.137 226.864V233H147.646V226.761C147.646 224.256 146.31 223.054 144.322 223.054C142.839 223.054 141.918 223.719 141.458 224.716H141.33V223.182H139.873V233H141.381V227.094ZM154.11 233.205C156.002 233.205 156.641 232.028 156.973 231.491H157.152V233H158.61V219.909H157.101V224.741H156.973C156.641 224.23 156.053 223.054 154.135 223.054C151.655 223.054 149.942 225.023 149.942 228.116C149.942 231.236 151.655 233.205 154.11 233.205ZM154.314 231.849C152.422 231.849 151.45 230.188 151.45 228.091C151.45 226.02 152.396 224.409 154.314 224.409C156.155 224.409 157.127 225.892 157.127 228.091C157.127 230.315 156.129 231.849 154.314 231.849ZM161.582 233H163.09V223.182H161.582V233ZM162.349 221.545C162.937 221.545 163.423 221.085 163.423 220.523C163.423 219.96 162.937 219.5 162.349 219.5C161.761 219.5 161.275 219.96 161.275 220.523C161.275 221.085 161.761 221.545 162.349 221.545ZM170.225 223.182H168.027V222.185C168.027 221.213 168.436 220.702 169.433 220.702C169.868 220.702 170.123 220.804 170.277 220.855L170.711 219.551C170.481 219.449 170.021 219.295 169.279 219.295C167.873 219.295 166.518 220.139 166.518 221.827V223.182H164.933V224.46H166.518V233H168.027V224.46H170.225V223.182ZM173.311 236.682C174.673 236.682 175.632 235.96 176.2 234.432L180.381 223.207L178.732 223.182L176.021 231.006H175.919L173.209 223.182H171.573L175.203 233.051L174.922 233.818C174.372 235.314 173.695 235.455 172.595 235.173L172.212 236.503C172.365 236.58 172.8 236.682 173.311 236.682ZM187.439 233H188.948V223.182H187.439V233ZM188.206 221.545C188.794 221.545 189.28 221.085 189.28 220.523C189.28 219.96 188.794 219.5 188.206 219.5C187.618 219.5 187.132 219.96 187.132 220.523C187.132 221.085 187.618 221.545 188.206 221.545ZM198.665 225.381C198.192 223.987 197.131 223.054 195.188 223.054C193.117 223.054 191.583 224.23 191.583 225.892C191.583 227.247 192.388 228.155 194.191 228.577L195.827 228.96C196.818 229.19 197.285 229.663 197.285 230.341C197.285 231.185 196.39 231.875 194.983 231.875C193.75 231.875 192.976 231.344 192.708 230.29L191.276 230.648C191.628 232.316 193.002 233.205 195.009 233.205C197.291 233.205 198.844 231.958 198.844 230.264C198.844 228.896 197.988 228.033 196.236 227.605L194.779 227.247C193.616 226.96 193.091 226.57 193.091 225.815C193.091 224.972 193.986 224.358 195.188 224.358C196.505 224.358 197.048 225.087 197.31 225.764L198.665 225.381ZM210.166 233.205C212.825 233.205 214.615 231.185 214.615 228.142C214.615 225.074 212.825 223.054 210.166 223.054C207.507 223.054 205.717 225.074 205.717 228.142C205.717 231.185 207.507 233.205 210.166 233.205ZM210.166 231.849C208.146 231.849 207.226 230.111 207.226 228.142C207.226 226.173 208.146 224.409 210.166 224.409C212.186 224.409 213.107 226.173 213.107 228.142C213.107 230.111 212.186 231.849 210.166 231.849ZM218.426 227.094C218.426 225.381 219.487 224.409 220.932 224.409C222.332 224.409 223.182 225.323 223.182 226.864V233H224.691V226.761C224.691 224.256 223.355 223.054 221.367 223.054C219.884 223.054 218.963 223.719 218.503 224.716H218.375V223.182H216.918V233H218.426V227.094ZM231.564 233.205C233.558 233.205 235.015 232.207 235.475 230.724L234.018 230.315C233.635 231.338 232.746 231.849 231.564 231.849C229.793 231.849 228.572 230.705 228.502 228.602H235.629V227.963C235.629 224.307 233.456 223.054 231.41 223.054C228.751 223.054 226.987 225.151 226.987 228.168C226.987 231.185 228.725 233.205 231.564 233.205ZM228.502 227.298C228.604 225.771 229.684 224.409 231.41 224.409C233.047 224.409 234.095 225.636 234.095 227.298H228.502ZM246.975 233.205C249.634 233.205 251.424 231.185 251.424 228.142C251.424 225.074 249.634 223.054 246.975 223.054C244.316 223.054 242.526 225.074 242.526 228.142C242.526 231.185 244.316 233.205 246.975 233.205ZM246.975 231.849C244.955 231.849 244.034 230.111 244.034 228.142C244.034 226.173 244.955 224.409 246.975 224.409C248.995 224.409 249.915 226.173 249.915 228.142C249.915 230.111 248.995 231.849 246.975 231.849ZM258.099 223.182H255.9V222.185C255.9 221.213 256.309 220.702 257.306 220.702C257.741 220.702 257.996 220.804 258.15 220.855L258.584 219.551C258.354 219.449 257.894 219.295 257.153 219.295C255.746 219.295 254.391 220.139 254.391 221.827V223.182H252.806V224.46H254.391V233H255.9V224.46H258.099V223.182ZM269.545 223.182H267.449V220.83H265.94V223.182H264.457V224.46H265.94V230.597C265.94 232.31 267.321 233.128 268.599 233.128C269.162 233.128 269.52 233.026 269.724 232.949L269.417 231.594C269.289 231.619 269.085 231.67 268.752 231.67C268.088 231.67 267.449 231.466 267.449 230.188V224.46H269.545V223.182ZM273.534 227.094C273.534 225.381 274.627 224.409 276.116 224.409C277.535 224.409 278.392 225.304 278.392 226.864V233H279.9V226.761C279.9 224.237 278.558 223.054 276.551 223.054C275.004 223.054 274.122 223.7 273.662 224.716H273.534V219.909H272.025V233H273.534V227.094ZM286.776 233.205C288.771 233.205 290.228 232.207 290.688 230.724L289.231 230.315C288.847 231.338 287.959 231.849 286.776 231.849C285.006 231.849 283.785 230.705 283.715 228.602H290.842V227.963C290.842 224.307 288.669 223.054 286.623 223.054C283.964 223.054 282.2 225.151 282.2 228.168C282.2 231.185 283.938 233.205 286.776 233.205ZM283.715 227.298C283.817 225.771 284.897 224.409 286.623 224.409C288.259 224.409 289.308 225.636 289.308 227.298H283.715ZM298.404 233H299.861V231.491H300.04C300.372 232.028 301.012 233.205 302.904 233.205C305.358 233.205 307.071 231.236 307.071 228.116C307.071 225.023 305.358 223.054 302.878 223.054C300.96 223.054 300.372 224.23 300.04 224.741H299.912V219.909H298.404V233ZM299.887 228.091C299.887 225.892 300.858 224.409 302.699 224.409C304.617 224.409 305.563 226.02 305.563 228.091C305.563 230.188 304.591 231.849 302.699 231.849C300.884 231.849 299.887 230.315 299.887 228.091ZM313.495 233.205C315.49 233.205 316.947 232.207 317.407 230.724L315.95 230.315C315.566 231.338 314.678 231.849 313.495 231.849C311.725 231.849 310.504 230.705 310.433 228.602H317.561V227.963C317.561 224.307 315.387 223.054 313.342 223.054C310.683 223.054 308.919 225.151 308.919 228.168C308.919 231.185 310.657 233.205 313.495 233.205ZM310.433 227.298C310.536 225.771 311.616 224.409 313.342 224.409C314.978 224.409 316.026 225.636 316.026 227.298H310.433ZM326.81 225.381C326.337 223.987 325.276 223.054 323.333 223.054C321.262 223.054 319.727 224.23 319.727 225.892C319.727 227.247 320.533 228.155 322.335 228.577L323.972 228.96C324.963 229.19 325.429 229.663 325.429 230.341C325.429 231.185 324.534 231.875 323.128 231.875C321.894 231.875 321.121 231.344 320.852 230.29L319.421 230.648C319.772 232.316 321.146 233.205 323.154 233.205C325.436 233.205 326.989 231.958 326.989 230.264C326.989 228.896 326.132 228.033 324.381 227.605L322.923 227.247C321.76 226.96 321.236 226.57 321.236 225.815C321.236 224.972 322.131 224.358 323.333 224.358C324.649 224.358 325.193 225.087 325.455 225.764L326.81 225.381ZM333.529 223.182H331.433V220.83H329.924V223.182H328.441V224.46H329.924V230.597C329.924 232.31 331.305 233.128 332.583 233.128C333.146 233.128 333.504 233.026 333.708 232.949L333.402 231.594C333.274 231.619 333.069 231.67 332.737 231.67C332.072 231.67 331.433 231.466 331.433 230.188V224.46H333.529V223.182ZM85.3807 251.909V262.852C85.3807 264.252 86.0966 265.077 87.5284 265.077C87.9631 265.077 88.3913 265 88.6534 264.923L88.3466 263.619C88.1996 263.664 88.0653 263.709 87.7074 263.722C87.0426 263.741 86.8892 263.396 86.8892 262.443V251.909H85.3807ZM93.7463 265.205C95.6383 265.205 96.2775 264.028 96.6099 263.491H96.7889V265H98.2463V255.182H96.7377V256.741H96.6099C96.2775 256.23 95.6895 255.054 93.7718 255.054C91.2917 255.054 89.5787 257.023 89.5787 260.116C89.5787 263.236 91.2917 265.205 93.7463 265.205ZM93.9508 263.849C92.0588 263.849 91.0872 262.188 91.0872 260.091C91.0872 258.02 92.0332 256.409 93.9508 256.409C95.7917 256.409 96.7633 257.892 96.7633 260.091C96.7633 262.315 95.7662 263.849 93.9508 263.849ZM102.727 259.094C102.727 257.381 103.788 256.409 105.233 256.409C106.633 256.409 107.483 257.323 107.483 258.864V265H108.991V258.761C108.991 256.256 107.655 255.054 105.667 255.054C104.184 255.054 103.264 255.719 102.804 256.716H102.676V255.182H101.219V265H102.727V259.094ZM115.455 265.205C117.347 265.205 117.987 264.028 118.319 263.491H118.498V265H119.955V251.909H118.447V256.741H118.319C117.987 256.23 117.398 255.054 115.481 255.054C113.001 255.054 111.288 257.023 111.288 260.116C111.288 263.236 113.001 265.205 115.455 265.205ZM115.66 263.849C113.768 263.849 112.796 262.188 112.796 260.091C112.796 258.02 113.742 256.409 115.66 256.409C117.501 256.409 118.472 257.892 118.472 260.091C118.472 262.315 117.475 263.849 115.66 263.849ZM122.928 265H124.436V255.182H122.928V265ZM123.695 253.545C124.283 253.545 124.768 253.085 124.768 252.523C124.768 251.96 124.283 251.5 123.695 251.5C123.107 251.5 122.621 251.96 122.621 252.523C122.621 253.085 123.107 253.545 123.695 253.545ZM128.708 259.094C128.708 257.381 129.769 256.409 131.213 256.409C132.613 256.409 133.463 257.323 133.463 258.864V265H134.972V258.761C134.972 256.256 133.636 255.054 131.648 255.054C130.165 255.054 129.244 255.719 128.784 256.716H128.656V255.182H127.199V265H128.708V259.094ZM141.691 268.886C144.044 268.886 145.936 267.812 145.936 265.281V255.182H144.478V256.741H144.325C143.993 256.23 143.379 255.054 141.461 255.054C138.981 255.054 137.268 257.023 137.268 260.04C137.268 263.108 139.058 264.847 141.436 264.847C143.353 264.847 143.967 263.722 144.299 263.185H144.427V265.179C144.427 266.815 143.277 267.557 141.691 267.557C139.908 267.557 139.282 266.617 138.879 266.074L137.677 266.918C138.291 267.947 139.499 268.886 141.691 268.886ZM141.64 263.491C139.748 263.491 138.777 262.06 138.777 260.014C138.777 258.02 139.723 256.409 141.64 256.409C143.481 256.409 144.453 257.892 144.453 260.014C144.453 262.188 143.456 263.491 141.64 263.491ZM153.76 268.682H155.268V263.491H155.396C155.728 264.028 156.368 265.205 158.26 265.205C160.714 265.205 162.427 263.236 162.427 260.116C162.427 257.023 160.714 255.054 158.234 255.054C156.316 255.054 155.728 256.23 155.396 256.741H155.217V255.182H153.76V268.682ZM155.243 260.091C155.243 257.892 156.214 256.409 158.055 256.409C159.973 256.409 160.919 258.02 160.919 260.091C160.919 262.188 159.947 263.849 158.055 263.849C156.24 263.849 155.243 262.315 155.243 260.091ZM168.436 265.205C170.328 265.205 170.967 264.028 171.299 263.491H171.478V265H172.936V255.182H171.427V256.741H171.299C170.967 256.23 170.379 255.054 168.461 255.054C165.981 255.054 164.268 257.023 164.268 260.116C164.268 263.236 165.981 265.205 168.436 265.205ZM168.64 263.849C166.748 263.849 165.777 262.188 165.777 260.091C165.777 258.02 166.723 256.409 168.64 256.409C170.481 256.409 171.453 257.892 171.453 260.091C171.453 262.315 170.456 263.849 168.64 263.849ZM179.871 268.886C182.223 268.886 184.115 267.812 184.115 265.281V255.182H182.658V256.741H182.505C182.172 256.23 181.559 255.054 179.641 255.054C177.161 255.054 175.448 257.023 175.448 260.04C175.448 263.108 177.238 264.847 179.615 264.847C181.533 264.847 182.147 263.722 182.479 263.185H182.607V265.179C182.607 266.815 181.456 267.557 179.871 267.557C178.088 267.557 177.461 266.617 177.059 266.074L175.857 266.918C176.471 267.947 177.679 268.886 179.871 268.886ZM179.82 263.491C177.928 263.491 176.956 262.06 176.956 260.014C176.956 258.02 177.902 256.409 179.82 256.409C181.661 256.409 182.632 257.892 182.632 260.014C182.632 262.188 181.635 263.491 179.82 263.491ZM190.993 265.205C192.988 265.205 194.445 264.207 194.905 262.724L193.448 262.315C193.064 263.338 192.176 263.849 190.993 263.849C189.223 263.849 188.002 262.705 187.931 260.602H195.059V259.963C195.059 256.307 192.885 255.054 190.84 255.054C188.181 255.054 186.417 257.151 186.417 260.168C186.417 263.185 188.155 265.205 190.993 265.205ZM187.931 259.298C188.034 257.771 189.114 256.409 190.84 256.409C192.476 256.409 193.525 257.636 193.525 259.298H187.931ZM211.211 251.909V260.449C211.211 262.366 209.895 263.747 207.708 263.747C205.522 263.747 204.206 262.366 204.206 260.449V251.909H202.62V260.577C202.62 263.261 204.627 265.23 207.708 265.23C210.789 265.23 212.797 263.261 212.797 260.577V251.909H211.211ZM217.547 251.909H215.962V265H217.547V251.909ZM225.584 265H227.092V261.325L228.147 260.347L231.822 265H233.74L229.285 259.375L233.433 255.182H231.567L227.271 259.554H227.092V251.909H225.584V265ZM235.375 265H236.883V255.182H235.375V265ZM236.142 253.545C236.73 253.545 237.216 253.085 237.216 252.523C237.216 251.96 236.73 251.5 236.142 251.5C235.554 251.5 235.068 251.96 235.068 252.523C235.068 253.085 235.554 253.545 236.142 253.545ZM243.916 255.182H241.82V252.83H240.311V255.182H238.828V256.46H240.311V262.597C240.311 264.31 241.692 265.128 242.97 265.128C243.533 265.128 243.891 265.026 244.095 264.949L243.788 263.594C243.661 263.619 243.456 263.67 243.124 263.67C242.459 263.67 241.82 263.466 241.82 262.188V256.46H243.916V255.182ZM253.038 251.909H251.452V265H253.038V251.909ZM262.583 259.094C262.583 257.381 263.676 256.409 265.165 256.409C266.584 256.409 267.441 257.304 267.441 258.864V265H268.949V258.761C268.949 256.237 267.607 255.054 265.6 255.054C264.053 255.054 263.171 255.7 262.71 256.716H262.583V251.909H261.074V265H262.583V259.094ZM275.416 265.205C277.308 265.205 277.947 264.028 278.28 263.491H278.459V265H279.916V255.182H278.408V256.741H278.28C277.947 256.23 277.359 255.054 275.442 255.054C272.962 255.054 271.249 257.023 271.249 260.116C271.249 263.236 272.962 265.205 275.416 265.205ZM275.621 263.849C273.729 263.849 272.757 262.188 272.757 260.091C272.757 258.02 273.703 256.409 275.621 256.409C277.462 256.409 278.433 257.892 278.433 260.091C278.433 262.315 277.436 263.849 275.621 263.849ZM290.917 255.182H289.281L286.57 263.006H286.468L283.758 255.182H282.121L285.752 265H287.286L290.917 255.182ZM296.673 265.205C298.667 265.205 300.125 264.207 300.585 262.724L299.127 262.315C298.744 263.338 297.855 263.849 296.673 263.849C294.902 263.849 293.681 262.705 293.611 260.602H300.738V259.963C300.738 256.307 298.565 255.054 296.52 255.054C293.86 255.054 292.096 257.151 292.096 260.168C292.096 263.185 293.835 265.205 296.673 265.205ZM293.611 259.298C293.713 257.771 294.794 256.409 296.52 256.409C298.156 256.409 299.204 257.636 299.204 259.298H293.611ZM89.3693 297.205C91.5426 297.205 92.9744 295.875 93.2301 294.136H91.7216C91.4403 295.21 90.5455 295.849 89.3693 295.849C87.5795 295.849 86.429 294.366 86.429 292.091C86.429 289.866 87.6051 288.409 89.3693 288.409C90.6989 288.409 91.4915 289.227 91.7216 290.122H93.2301C92.9744 288.281 91.4148 287.054 89.3438 287.054C86.6847 287.054 84.9205 289.151 84.9205 292.142C84.9205 295.082 86.608 297.205 89.3693 297.205ZM99.424 297.205C102.083 297.205 103.873 295.185 103.873 292.142C103.873 289.074 102.083 287.054 99.424 287.054C96.7649 287.054 94.9751 289.074 94.9751 292.142C94.9751 295.185 96.7649 297.205 99.424 297.205ZM99.424 295.849C97.4041 295.849 96.4837 294.111 96.4837 292.142C96.4837 290.173 97.4041 288.409 99.424 288.409C101.444 288.409 102.364 290.173 102.364 292.142C102.364 294.111 101.444 295.849 99.424 295.849ZM106.176 297H107.684V290.864C107.684 289.425 108.732 288.409 109.909 288.409C111.053 288.409 111.852 289.157 111.852 290.276V297H113.386V290.608C113.386 289.342 114.178 288.409 115.559 288.409C116.633 288.409 117.553 288.978 117.553 290.429V297H119.062V290.429C119.062 288.121 117.822 287.054 116.07 287.054C114.664 287.054 113.635 287.7 113.13 288.716H113.028C112.542 287.668 111.686 287.054 110.394 287.054C109.116 287.054 108.17 287.668 107.761 288.716H107.633V287.182H106.176V297ZM125.937 297.205C127.931 297.205 129.388 296.207 129.849 294.724L128.391 294.315C128.008 295.338 127.119 295.849 125.937 295.849C124.166 295.849 122.945 294.705 122.875 292.602H130.002V291.963C130.002 288.307 127.829 287.054 125.783 287.054C123.124 287.054 121.36 289.151 121.36 292.168C121.36 295.185 123.099 297.205 125.937 297.205ZM122.875 291.298C122.977 289.771 124.057 288.409 125.783 288.409C127.42 288.409 128.468 289.636 128.468 291.298H122.875ZM141.067 297.205C142.959 297.205 143.598 296.028 143.93 295.491H144.109V297H145.567V287.182H144.058V288.741H143.93C143.598 288.23 143.01 287.054 141.092 287.054C138.612 287.054 136.899 289.023 136.899 292.116C136.899 295.236 138.612 297.205 141.067 297.205ZM141.271 295.849C139.379 295.849 138.407 294.188 138.407 292.091C138.407 290.02 139.354 288.409 141.271 288.409C143.112 288.409 144.084 289.892 144.084 292.091C144.084 294.315 143.086 295.849 141.271 295.849ZM152.528 297.205C154.701 297.205 156.133 295.875 156.388 294.136H154.88C154.599 295.21 153.704 295.849 152.528 295.849C150.738 295.849 149.587 294.366 149.587 292.091C149.587 289.866 150.763 288.409 152.528 288.409C153.857 288.409 154.65 289.227 154.88 290.122H156.388C156.133 288.281 154.573 287.054 152.502 287.054C149.843 287.054 148.079 289.151 148.079 292.142C148.079 295.082 149.766 297.205 152.528 297.205ZM158.594 297H160.102V290.787C160.102 289.464 161.15 288.486 162.582 288.486C162.959 288.486 163.241 288.556 163.452 288.665L163.963 287.386C163.656 287.169 163.253 287.028 162.71 287.028C161.521 287.028 160.505 287.693 160.153 288.665H160.051V287.182H158.594V297ZM169.192 297.205C171.851 297.205 173.64 295.185 173.64 292.142C173.64 289.074 171.851 287.054 169.192 287.054C166.532 287.054 164.743 289.074 164.743 292.142C164.743 295.185 166.532 297.205 169.192 297.205ZM169.192 295.849C167.172 295.849 166.251 294.111 166.251 292.142C166.251 290.173 167.172 288.409 169.192 288.409C171.211 288.409 172.132 290.173 172.132 292.142C172.132 294.111 171.211 295.849 169.192 295.849ZM182.898 289.381C182.425 287.987 181.364 287.054 179.42 287.054C177.349 287.054 175.815 288.23 175.815 289.892C175.815 291.247 176.621 292.155 178.423 292.577L180.06 292.96C181.05 293.19 181.517 293.663 181.517 294.341C181.517 295.185 180.622 295.875 179.216 295.875C177.982 295.875 177.209 295.344 176.94 294.29L175.509 294.648C175.86 296.316 177.234 297.205 179.241 297.205C181.523 297.205 183.077 295.958 183.077 294.264C183.077 292.896 182.22 292.033 180.469 291.605L179.011 291.247C177.848 290.96 177.324 290.57 177.324 289.815C177.324 288.972 178.219 288.358 179.42 288.358C180.737 288.358 181.281 289.087 181.543 289.764L182.898 289.381ZM192.302 289.381C191.829 287.987 190.768 287.054 188.825 287.054C186.754 287.054 185.22 288.23 185.22 289.892C185.22 291.247 186.025 292.155 187.828 292.577L189.464 292.96C190.455 293.19 190.921 293.663 190.921 294.341C190.921 295.185 190.026 295.875 188.62 295.875C187.387 295.875 186.613 295.344 186.345 294.29L184.913 294.648C185.264 296.316 186.639 297.205 188.646 297.205C190.928 297.205 192.481 295.958 192.481 294.264C192.481 292.896 191.624 292.033 189.873 291.605L188.416 291.247C187.252 290.96 186.728 290.57 186.728 289.815C186.728 288.972 187.623 288.358 188.825 288.358C190.142 288.358 190.685 289.087 190.947 289.764L192.302 289.381ZM195.851 297.102C196.484 297.102 197.002 296.585 197.002 295.952C197.002 295.319 196.484 294.801 195.851 294.801C195.218 294.801 194.701 295.319 194.701 295.952C194.701 296.585 195.218 297.102 195.851 297.102ZM206.561 283.909H204.976V297H206.561V283.909ZM213.805 287.182H211.708V284.83H210.2V287.182H208.717V288.46H210.2V294.597C210.2 296.31 211.58 297.128 212.859 297.128C213.421 297.128 213.779 297.026 213.984 296.949L213.677 295.594C213.549 295.619 213.345 295.67 213.012 295.67C212.347 295.67 211.708 295.466 211.708 294.188V288.46H213.805V287.182ZM217.913 283.909H216.482V285.085C216.482 286.031 216.021 286.849 215.484 287.616L216.303 288.281C217.325 287.463 217.913 286.108 217.913 285.06V283.909ZM225.472 289.381C224.999 287.987 223.938 287.054 221.995 287.054C219.924 287.054 218.39 288.23 218.39 289.892C218.39 291.247 219.195 292.155 220.998 292.577L222.634 292.96C223.625 293.19 224.091 293.663 224.091 294.341C224.091 295.185 223.196 295.875 221.79 295.875C220.556 295.875 219.783 295.344 219.515 294.29L218.083 294.648C218.434 296.316 219.809 297.205 221.816 297.205C224.098 297.205 225.651 295.958 225.651 294.264C225.651 292.896 224.794 292.033 223.043 291.605L221.586 291.247C220.422 290.96 219.898 290.57 219.898 289.815C219.898 288.972 220.793 288.358 221.995 288.358C223.311 288.358 223.855 289.087 224.117 289.764L225.472 289.381ZM239.939 289.381C239.466 287.987 238.405 287.054 236.461 287.054C234.39 287.054 232.856 288.23 232.856 289.892C232.856 291.247 233.662 292.155 235.464 292.577L237.101 292.96C238.091 293.19 238.558 293.663 238.558 294.341C238.558 295.185 237.663 295.875 236.257 295.875C235.023 295.875 234.25 295.344 233.981 294.29L232.55 294.648C232.901 296.316 234.275 297.205 236.282 297.205C238.564 297.205 240.118 295.958 240.118 294.264C240.118 292.896 239.261 292.033 237.51 291.605L236.052 291.247C234.889 290.96 234.365 290.57 234.365 289.815C234.365 288.972 235.26 288.358 236.461 288.358C237.778 288.358 238.322 289.087 238.584 289.764L239.939 289.381ZM246.377 297.205C249.036 297.205 250.826 295.185 250.826 292.142C250.826 289.074 249.036 287.054 246.377 287.054C243.718 287.054 241.928 289.074 241.928 292.142C241.928 295.185 243.718 297.205 246.377 297.205ZM246.377 295.849C244.357 295.849 243.437 294.111 243.437 292.142C243.437 290.173 244.357 288.409 246.377 288.409C248.397 288.409 249.317 290.173 249.317 292.142C249.317 294.111 248.397 295.849 246.377 295.849ZM262.563 287.182H260.365V286.185C260.365 285.213 260.774 284.702 261.771 284.702C262.205 284.702 262.461 284.804 262.615 284.855L263.049 283.551C262.819 283.449 262.359 283.295 261.617 283.295C260.211 283.295 258.856 284.139 258.856 285.827V287.182H257.271V288.46H258.856V297H260.365V288.46H262.563V287.182ZM264.678 283.909V294.852C264.678 296.252 265.393 297.077 266.825 297.077C267.26 297.077 267.688 297 267.95 296.923L267.643 295.619C267.496 295.664 267.362 295.709 267.004 295.722C266.339 295.741 266.186 295.396 266.186 294.443V283.909H264.678ZM273.452 297.205C275.447 297.205 276.904 296.207 277.364 294.724L275.907 294.315C275.523 295.338 274.635 295.849 273.452 295.849C271.682 295.849 270.461 294.705 270.39 292.602H277.518V291.963C277.518 288.307 275.344 287.054 273.299 287.054C270.64 287.054 268.876 289.151 268.876 292.168C268.876 295.185 270.614 297.205 273.452 297.205ZM270.39 291.298C270.493 289.771 271.573 288.409 273.299 288.409C274.935 288.409 275.983 289.636 275.983 291.298H270.39ZM280.674 287.182H278.935L282.054 292.091L278.935 297H280.674L283.026 293.19L285.378 297H287.117L283.946 292.091L287.117 287.182H285.378L283.026 291.196L280.674 287.182ZM289.269 297H290.778V287.182H289.269V297ZM290.036 285.545C290.624 285.545 291.11 285.085 291.11 284.523C291.11 283.96 290.624 283.5 290.036 283.5C289.448 283.5 288.963 283.96 288.963 284.523C288.963 285.085 289.448 285.545 290.036 285.545ZM293.745 297H295.203V295.491H295.382C295.714 296.028 296.353 297.205 298.245 297.205C300.7 297.205 302.413 295.236 302.413 292.116C302.413 289.023 300.7 287.054 298.22 287.054C296.302 287.054 295.714 288.23 295.382 288.741H295.254V283.909H293.745V297ZM295.228 292.091C295.228 289.892 296.2 288.409 298.041 288.409C299.958 288.409 300.904 290.02 300.904 292.091C300.904 294.188 299.933 295.849 298.041 295.849C296.225 295.849 295.228 294.315 295.228 292.091ZM304.721 283.909V294.852C304.721 296.252 305.436 297.077 306.868 297.077C307.303 297.077 307.731 297 307.993 296.923L307.686 295.619C307.539 295.664 307.405 295.709 307.047 295.722C306.382 295.741 306.229 295.396 306.229 294.443V283.909H304.721ZM313.495 297.205C315.49 297.205 316.947 296.207 317.407 294.724L315.95 294.315C315.566 295.338 314.678 295.849 313.495 295.849C311.725 295.849 310.504 294.705 310.433 292.602H317.561V291.963C317.561 288.307 315.387 287.054 313.342 287.054C310.683 287.054 308.919 289.151 308.919 292.168C308.919 295.185 310.657 297.205 313.495 297.205ZM310.433 291.298C310.536 289.771 311.616 288.409 313.342 288.409C314.978 288.409 316.026 289.636 316.026 291.298H310.433ZM322.105 295.21H320.469L320.392 295.926C320.207 297.658 319.843 299.384 319.676 300.196H320.827C321.134 299.327 321.786 297.358 322.003 295.901L322.105 295.21ZM87.6051 329H89.0881L91.2358 321.457H91.3892L93.5369 329H95.0199L98.0114 319.182H96.4261L94.304 326.673H94.2017L92.1307 319.182H90.5199L88.4233 326.699H88.321L86.1989 319.182H84.6136L87.6051 329ZM103.788 329.205C105.782 329.205 107.24 328.207 107.7 326.724L106.243 326.315C105.859 327.338 104.971 327.849 103.788 327.849C102.018 327.849 100.797 326.705 100.726 324.602H107.854V323.963C107.854 320.307 105.68 319.054 103.635 319.054C100.976 319.054 99.2115 321.151 99.2115 324.168C99.2115 327.185 100.95 329.205 103.788 329.205ZM100.726 323.298C100.829 321.771 101.909 320.409 103.635 320.409C105.271 320.409 106.319 321.636 106.319 323.298H100.726ZM110.148 315.909V326.852C110.148 328.252 110.864 329.077 112.296 329.077C112.731 329.077 113.159 329 113.421 328.923L113.114 327.619C112.967 327.664 112.833 327.709 112.475 327.722C111.81 327.741 111.657 327.396 111.657 326.443V315.909H110.148ZM115.07 315.909V326.852C115.07 328.252 115.786 329.077 117.218 329.077C117.653 329.077 118.081 329 118.343 328.923L118.036 327.619C117.889 327.664 117.755 327.709 117.397 327.722C116.732 327.741 116.579 327.396 116.579 326.443V315.909H115.07ZM128.779 329.205C131.439 329.205 133.228 327.185 133.228 324.142C133.228 321.074 131.439 319.054 128.779 319.054C126.12 319.054 124.331 321.074 124.331 324.142C124.331 327.185 126.12 329.205 128.779 329.205ZM128.779 327.849C126.76 327.849 125.839 326.111 125.839 324.142C125.839 322.173 126.76 320.409 128.779 320.409C130.799 320.409 131.72 322.173 131.72 324.142C131.72 326.111 130.799 327.849 128.779 327.849ZM135.531 329H137.04V322.787C137.04 321.464 138.088 320.486 139.52 320.486C139.897 320.486 140.178 320.556 140.389 320.665L140.9 319.386C140.594 319.169 140.191 319.028 139.648 319.028C138.459 319.028 137.442 319.693 137.091 320.665H136.988V319.182H135.531V329ZM146.104 332.886C148.456 332.886 150.348 331.812 150.348 329.281V319.182H148.89V320.741H148.737C148.405 320.23 147.791 319.054 145.873 319.054C143.393 319.054 141.68 321.023 141.68 324.04C141.68 327.108 143.47 328.847 145.848 328.847C147.765 328.847 148.379 327.722 148.711 327.185H148.839V329.179C148.839 330.815 147.689 331.557 146.104 331.557C144.32 331.557 143.694 330.617 143.291 330.074L142.089 330.918C142.703 331.947 143.911 332.886 146.104 332.886ZM146.052 327.491C144.16 327.491 143.189 326.06 143.189 324.014C143.189 322.02 144.135 320.409 146.052 320.409C147.893 320.409 148.865 321.892 148.865 324.014C148.865 326.188 147.868 327.491 146.052 327.491ZM156.817 329.205C158.709 329.205 159.348 328.028 159.68 327.491H159.859V329H161.317V319.182H159.808V320.741H159.68C159.348 320.23 158.76 319.054 156.842 319.054C154.362 319.054 152.649 321.023 152.649 324.116C152.649 327.236 154.362 329.205 156.817 329.205ZM157.021 327.849C155.129 327.849 154.157 326.188 154.157 324.091C154.157 322.02 155.104 320.409 157.021 320.409C158.862 320.409 159.834 321.892 159.834 324.091C159.834 326.315 158.836 327.849 157.021 327.849ZM165.797 323.094C165.797 321.381 166.858 320.409 168.303 320.409C169.703 320.409 170.553 321.323 170.553 322.864V329H172.062V322.761C172.062 320.256 170.726 319.054 168.738 319.054C167.255 319.054 166.334 319.719 165.874 320.716H165.746V319.182H164.289V329H165.797V323.094ZM174.818 329H176.327V319.182H174.818V329ZM175.585 317.545C176.173 317.545 176.659 317.085 176.659 316.523C176.659 315.96 176.173 315.5 175.585 315.5C174.997 315.5 174.511 315.96 174.511 316.523C174.511 317.085 174.997 317.545 175.585 317.545ZM186.044 321.381C185.571 319.987 184.51 319.054 182.567 319.054C180.496 319.054 178.962 320.23 178.962 321.892C178.962 323.247 179.767 324.155 181.57 324.577L183.206 324.96C184.197 325.19 184.664 325.663 184.664 326.341C184.664 327.185 183.769 327.875 182.362 327.875C181.129 327.875 180.355 327.344 180.087 326.29L178.655 326.648C179.007 328.316 180.381 329.205 182.388 329.205C184.67 329.205 186.223 327.958 186.223 326.264C186.223 324.896 185.367 324.033 183.615 323.605L182.158 323.247C180.994 322.96 180.47 322.57 180.47 321.815C180.47 320.972 181.365 320.358 182.567 320.358C183.884 320.358 184.427 321.087 184.689 321.764L186.044 321.381ZM192.61 329.205C194.605 329.205 196.062 328.207 196.522 326.724L195.065 326.315C194.681 327.338 193.793 327.849 192.61 327.849C190.84 327.849 189.619 326.705 189.549 324.602H196.676V323.963C196.676 320.307 194.502 319.054 192.457 319.054C189.798 319.054 188.034 321.151 188.034 324.168C188.034 327.185 189.772 329.205 192.61 329.205ZM189.549 323.298C189.651 321.771 190.731 320.409 192.457 320.409C194.093 320.409 195.142 321.636 195.142 323.298H189.549ZM202.678 329.205C204.57 329.205 205.209 328.028 205.542 327.491H205.721V329H207.178V315.909H205.669V320.741H205.542C205.209 320.23 204.621 319.054 202.703 319.054C200.223 319.054 198.51 321.023 198.51 324.116C198.51 327.236 200.223 329.205 202.678 329.205ZM202.882 327.849C200.99 327.849 200.019 326.188 200.019 324.091C200.019 322.02 200.965 320.409 202.882 320.409C204.723 320.409 205.695 321.892 205.695 324.091C205.695 326.315 204.698 327.849 202.882 327.849ZM218.92 329.205C220.812 329.205 221.451 328.028 221.784 327.491H221.963V329H223.42V319.182H221.912V320.741H221.784C221.451 320.23 220.863 319.054 218.946 319.054C216.466 319.054 214.752 321.023 214.752 324.116C214.752 327.236 216.466 329.205 218.92 329.205ZM219.125 327.849C217.233 327.849 216.261 326.188 216.261 324.091C216.261 322.02 217.207 320.409 219.125 320.409C220.966 320.409 221.937 321.892 221.937 324.091C221.937 326.315 220.94 327.849 219.125 327.849ZM227.901 323.094C227.901 321.381 228.962 320.409 230.407 320.409C231.806 320.409 232.657 321.323 232.657 322.864V329H234.165V322.761C234.165 320.256 232.829 319.054 230.841 319.054C229.358 319.054 228.438 319.719 227.978 320.716H227.85V319.182H226.392V329H227.901V323.094ZM240.629 329.205C242.521 329.205 243.16 328.028 243.493 327.491H243.672V329H245.129V315.909H243.621V320.741H243.493C243.16 320.23 242.572 319.054 240.655 319.054C238.175 319.054 236.461 321.023 236.461 324.116C236.461 327.236 238.175 329.205 240.629 329.205ZM240.834 327.849C238.942 327.849 237.97 326.188 237.97 324.091C237.97 322.02 238.916 320.409 240.834 320.409C242.675 320.409 243.646 321.892 243.646 324.091C243.646 326.315 242.649 327.849 240.834 327.849ZM257.28 329.205C259.275 329.205 260.732 328.207 261.192 326.724L259.735 326.315C259.351 327.338 258.463 327.849 257.28 327.849C255.51 327.849 254.289 326.705 254.219 324.602H261.346V323.963C261.346 320.307 259.172 319.054 257.127 319.054C254.468 319.054 252.704 321.151 252.704 324.168C252.704 327.185 254.442 329.205 257.28 329.205ZM254.219 323.298C254.321 321.771 255.401 320.409 257.127 320.409C258.763 320.409 259.812 321.636 259.812 323.298H254.219ZM267.348 329.205C269.24 329.205 269.879 328.028 270.211 327.491H270.39V329H271.848V319.182H270.339V320.741H270.211C269.879 320.23 269.291 319.054 267.373 319.054C264.893 319.054 263.18 321.023 263.18 324.116C263.18 327.236 264.893 329.205 267.348 329.205ZM267.552 327.849C265.66 327.849 264.689 326.188 264.689 324.091C264.689 322.02 265.635 320.409 267.552 320.409C269.393 320.409 270.365 321.892 270.365 324.091C270.365 326.315 269.368 327.849 267.552 327.849ZM281.775 321.381C281.302 319.987 280.241 319.054 278.297 319.054C276.226 319.054 274.692 320.23 274.692 321.892C274.692 323.247 275.498 324.155 277.3 324.577L278.937 324.96C279.927 325.19 280.394 325.663 280.394 326.341C280.394 327.185 279.499 327.875 278.093 327.875C276.859 327.875 276.086 327.344 275.817 326.29L274.385 326.648C274.737 328.316 276.111 329.205 278.118 329.205C280.4 329.205 281.954 327.958 281.954 326.264C281.954 324.896 281.097 324.033 279.346 323.605L277.888 323.247C276.725 322.96 276.201 322.57 276.201 321.815C276.201 320.972 277.096 320.358 278.297 320.358C279.614 320.358 280.157 321.087 280.42 321.764L281.775 321.381ZM284.224 329H285.733V319.182H284.224V329ZM284.991 317.545C285.58 317.545 286.065 317.085 286.065 316.523C286.065 315.96 285.58 315.5 284.991 315.5C284.403 315.5 283.918 315.96 283.918 316.523C283.918 317.085 284.403 317.545 284.991 317.545ZM288.496 315.909V326.852C288.496 328.252 289.212 329.077 290.644 329.077C291.078 329.077 291.507 329 291.769 328.923L291.462 327.619C291.315 327.664 291.181 327.709 290.823 327.722C290.158 327.741 290.004 327.396 290.004 326.443V315.909H288.496ZM294.126 332.682C295.487 332.682 296.446 331.96 297.015 330.432L301.195 319.207L299.546 319.182L296.836 327.006H296.734L294.023 319.182H292.387L296.018 329.051L295.737 329.818C295.187 331.314 294.509 331.455 293.41 331.173L293.026 332.503C293.18 332.58 293.614 332.682 294.126 332.682ZM89.4972 361.205C91.4915 361.205 92.9489 360.207 93.4091 358.724L91.9517 358.315C91.5682 359.338 90.6797 359.849 89.4972 359.849C87.7266 359.849 86.5057 358.705 86.4354 356.602H93.5625V355.963C93.5625 352.307 91.3892 351.054 89.3438 351.054C86.6847 351.054 84.9205 353.151 84.9205 356.168C84.9205 359.185 86.6591 361.205 89.4972 361.205ZM86.4354 355.298C86.5376 353.771 87.6179 352.409 89.3438 352.409C90.9801 352.409 92.0284 353.636 92.0284 355.298H86.4354ZM99.5646 361.205C101.457 361.205 102.096 360.028 102.428 359.491H102.607V361H104.065V347.909H102.556V352.741H102.428C102.096 352.23 101.508 351.054 99.5902 351.054C97.1101 351.054 95.397 353.023 95.397 356.116C95.397 359.236 97.1101 361.205 99.5646 361.205ZM99.7692 359.849C97.8771 359.849 96.9055 358.188 96.9055 356.091C96.9055 354.02 97.8516 352.409 99.7692 352.409C101.61 352.409 102.582 353.892 102.582 356.091C102.582 358.315 101.585 359.849 99.7692 359.849ZM107.037 361H108.545V351.182H107.037V361ZM107.804 349.545C108.392 349.545 108.878 349.085 108.878 348.523C108.878 347.96 108.392 347.5 107.804 347.5C107.216 347.5 106.73 347.96 106.73 348.523C106.73 349.085 107.216 349.545 107.804 349.545ZM115.578 351.182H113.482V348.83H111.973V351.182H110.49V352.46H111.973V358.597C111.973 360.31 113.354 361.128 114.632 361.128C115.195 361.128 115.553 361.026 115.757 360.949L115.45 359.594C115.323 359.619 115.118 359.67 114.786 359.67C114.121 359.67 113.482 359.466 113.482 358.188V352.46H115.578V351.182ZM121.449 361.205C123.341 361.205 123.981 360.028 124.313 359.491H124.492V361H125.949V351.182H124.441V352.741H124.313C123.981 352.23 123.393 351.054 121.475 351.054C118.995 351.054 117.282 353.023 117.282 356.116C117.282 359.236 118.995 361.205 121.449 361.205ZM121.654 359.849C119.762 359.849 118.79 358.188 118.79 356.091C118.79 354.02 119.736 352.409 121.654 352.409C123.495 352.409 124.466 353.892 124.466 356.091C124.466 358.315 123.469 359.849 121.654 359.849ZM129.126 361H130.584V359.491H130.763C131.095 360.028 131.734 361.205 133.626 361.205C136.081 361.205 137.794 359.236 137.794 356.116C137.794 353.023 136.081 351.054 133.601 351.054C131.683 351.054 131.095 352.23 130.763 352.741H130.635V347.909H129.126V361ZM130.609 356.091C130.609 353.892 131.581 352.409 133.422 352.409C135.339 352.409 136.285 354.02 136.285 356.091C136.285 358.188 135.314 359.849 133.422 359.849C131.606 359.849 130.609 358.315 130.609 356.091ZM140.101 347.909V358.852C140.101 360.252 140.817 361.077 142.249 361.077C142.684 361.077 143.112 361 143.374 360.923L143.067 359.619C142.92 359.664 142.786 359.709 142.428 359.722C141.763 359.741 141.61 359.396 141.61 358.443V347.909H140.101ZM148.876 361.205C150.87 361.205 152.328 360.207 152.788 358.724L151.331 358.315C150.947 359.338 150.059 359.849 148.876 359.849C147.105 359.849 145.885 358.705 145.814 356.602H152.941V355.963C152.941 352.307 150.768 351.054 148.723 351.054C146.064 351.054 144.299 353.151 144.299 356.168C144.299 359.185 146.038 361.205 148.876 361.205ZM145.814 355.298C145.917 353.771 146.997 352.409 148.723 352.409C150.359 352.409 151.407 353.636 151.407 355.298H145.814ZM156.336 361.102C156.968 361.102 157.486 360.585 157.486 359.952C157.486 359.319 156.968 358.801 156.336 358.801C155.703 358.801 155.185 359.319 155.185 359.952C155.185 360.585 155.703 361.102 156.336 361.102Z" fill="#18191F"/>
<path d="M85.1378 415H87.9055V409.592H93.2301V407.31H87.9055V404.191H93.8054V401.909H85.1378V415ZM95.6159 401.909V412.424C95.6223 414.297 96.5939 415.141 98.6841 415.064C99.3617 415.032 99.7324 414.936 100.014 414.847L99.579 412.865C99.4703 412.903 99.3425 412.935 99.0676 412.942C98.5435 412.948 98.3453 412.68 98.339 412.06V401.909H95.6159ZM105.466 415.192C108.445 415.192 110.298 413.153 110.298 410.129C110.298 407.087 108.445 405.054 105.466 405.054C102.487 405.054 100.634 407.087 100.634 410.129C100.634 413.153 102.487 415.192 105.466 415.192ZM105.479 413.082C104.105 413.082 103.401 411.823 103.401 410.11C103.401 408.397 104.105 407.131 105.479 407.131C106.828 407.131 107.531 408.397 107.531 410.11C107.531 411.823 106.828 413.082 105.479 413.082ZM113.416 418.682C115.442 418.682 116.516 417.646 117.072 416.061L120.888 405.195L118.006 405.182L115.954 412.392H115.852L113.819 405.182H110.955L114.477 415.281L114.317 415.697C113.96 416.617 113.276 416.662 112.317 416.368L111.703 418.401C112.093 418.567 112.726 418.682 113.416 418.682ZM125.566 415.16C127.151 415.16 127.976 414.246 128.353 413.428H128.468V415H131.153V401.909H128.436V406.831H128.353C127.988 406.032 127.202 405.054 125.559 405.054C123.405 405.054 121.584 406.729 121.584 410.104C121.584 413.389 123.329 415.16 125.566 415.16ZM126.429 412.993C125.093 412.993 124.364 411.804 124.364 410.091C124.364 408.391 125.08 407.221 126.429 407.221C127.752 407.221 128.493 408.339 128.493 410.091C128.493 411.842 127.739 412.993 126.429 412.993ZM137.608 401.909V415H140.293V406.447H140.402L143.79 414.936H145.618L149.006 406.479H149.114V415H151.799V401.909H148.385L144.78 410.705H144.627L141.022 401.909H137.608ZM154.028 415H156.751V405.182H154.028V415ZM155.396 403.916C156.208 403.916 156.873 403.296 156.873 402.536C156.873 401.781 156.208 401.161 155.396 401.161C154.591 401.161 153.926 401.781 153.926 402.536C153.926 403.296 154.591 403.916 155.396 403.916ZM158.932 401.909V412.424C158.939 414.297 159.91 415.141 162.001 415.064C162.678 415.032 163.049 414.936 163.33 414.847L162.895 412.865C162.787 412.903 162.659 412.935 162.384 412.942C161.86 412.948 161.662 412.68 161.655 412.06V401.909H158.932ZM168.821 415.192C171.25 415.192 172.886 414.009 173.27 412.188L170.751 412.021C170.476 412.769 169.773 413.159 168.866 413.159C167.504 413.159 166.641 412.258 166.641 410.794V410.788H173.327V410.04C173.327 406.703 171.307 405.054 168.712 405.054C165.823 405.054 163.95 407.106 163.95 410.136C163.95 413.249 165.797 415.192 168.821 415.192ZM166.641 409.1C166.699 407.982 167.549 407.087 168.757 407.087C169.939 407.087 170.758 407.93 170.764 409.1H166.641ZM183.273 407.982C183.03 406.173 181.573 405.054 179.093 405.054C176.581 405.054 174.925 406.217 174.932 408.109C174.925 409.58 175.852 410.532 177.77 410.915L179.47 411.254C180.327 411.427 180.716 411.74 180.729 412.232C180.716 412.814 180.084 413.229 179.131 413.229C178.16 413.229 177.514 412.814 177.348 412.015L174.67 412.156C174.925 414.035 176.523 415.192 179.125 415.192C181.669 415.192 183.491 413.894 183.497 411.957C183.491 410.538 182.564 409.688 180.659 409.298L178.882 408.94C177.968 408.742 177.629 408.429 177.635 407.956C177.629 407.368 178.294 406.984 179.138 406.984C180.084 406.984 180.646 407.502 180.78 408.135L183.273 407.982Z" fill="#18191F"/>
<path d="M86.0085 428.818H84.348L88.0121 439H89.7869L93.451 428.818H91.7905L88.9567 437.111H88.8423L86.0085 428.818ZM94.802 439H96.2885V431.364H94.802V439ZM95.5527 430.185C96.0648 430.185 96.4924 429.788 96.4924 429.3C96.4924 428.813 96.0648 428.411 95.5527 428.411C95.0357 428.411 94.6131 428.813 94.6131 429.3C94.6131 429.788 95.0357 430.185 95.5527 430.185ZM101.505 439.154C103.31 439.154 104.478 438.07 104.642 436.584H103.195C103.006 437.409 102.365 437.896 101.515 437.896C100.257 437.896 99.4467 436.847 99.4467 435.182C99.4467 433.546 100.272 432.517 101.515 432.517C102.46 432.517 103.036 433.114 103.195 433.83H104.642C104.483 432.288 103.225 431.264 101.49 431.264C99.3374 431.264 97.9453 432.885 97.9453 435.217C97.9453 437.518 99.2876 439.154 101.505 439.154ZM109.523 439.154C111.188 439.154 112.367 438.334 112.705 437.091L111.298 436.837C111.029 437.558 110.383 437.926 109.538 437.926C108.265 437.926 107.41 437.101 107.37 435.629H112.799V435.102C112.799 432.343 111.149 431.264 109.419 431.264C107.291 431.264 105.889 432.885 105.889 435.232C105.889 437.603 107.271 439.154 109.523 439.154ZM107.375 434.516C107.435 433.432 108.22 432.492 109.428 432.492C110.582 432.492 111.338 433.347 111.343 434.516H107.375ZM118.273 439H119.809V435.42H121.897C124.259 435.42 125.427 433.994 125.427 432.114C125.427 430.24 124.269 428.818 121.902 428.818H118.273V439ZM119.809 434.118V430.136H121.738C123.259 430.136 123.881 430.961 123.881 432.114C123.881 433.268 123.259 434.118 121.758 434.118H119.809ZM127.109 439H128.595V434.337C128.595 433.342 129.366 432.621 130.395 432.621C130.683 432.621 130.907 432.681 131.086 432.771L131.563 431.528C131.31 431.359 130.982 431.249 130.564 431.249C129.659 431.249 128.903 431.756 128.625 432.577H128.545V431.364H127.109V439ZM135.677 439.154C137.343 439.154 138.521 438.334 138.859 437.091L137.452 436.837C137.184 437.558 136.537 437.926 135.692 437.926C134.419 437.926 133.564 437.101 133.525 435.629H138.953V435.102C138.953 432.343 137.303 431.264 135.573 431.264C133.445 431.264 132.043 432.885 132.043 435.232C132.043 437.603 133.425 439.154 135.677 439.154ZM133.529 434.516C133.589 433.432 134.375 432.492 135.583 432.492C136.736 432.492 137.492 433.347 137.497 434.516H133.529ZM146.325 433.228C146.017 432.04 145.087 431.264 143.437 431.264C141.711 431.264 140.488 432.174 140.488 433.526C140.488 434.61 141.145 435.331 142.577 435.649L143.869 435.933C144.605 436.097 144.948 436.425 144.948 436.902C144.948 437.494 144.317 437.956 143.342 437.956C142.452 437.956 141.881 437.573 141.702 436.822L140.265 437.041C140.513 438.393 141.637 439.154 143.352 439.154C145.197 439.154 146.474 438.175 146.474 436.793C146.474 435.714 145.788 435.048 144.386 434.724L143.173 434.446C142.333 434.247 141.97 433.964 141.975 433.447C141.97 432.86 142.606 432.442 143.452 432.442C144.376 432.442 144.804 432.955 144.978 433.467L146.325 433.228ZM148.109 439H149.595V431.364H148.109V439ZM148.859 430.185C149.371 430.185 149.799 429.788 149.799 429.3C149.799 428.813 149.371 428.411 148.859 428.411C148.342 428.411 147.92 428.813 147.92 429.3C147.92 429.788 148.342 430.185 148.859 430.185ZM154.454 439.149C155.846 439.149 156.393 438.299 156.661 437.812H156.785V439H158.237V428.818H156.751V432.602H156.661C156.393 432.129 155.885 431.264 154.464 431.264C152.619 431.264 151.262 432.721 151.262 435.197C151.262 437.668 152.599 439.149 154.454 439.149ZM154.782 437.881C153.454 437.881 152.763 436.713 152.763 435.182C152.763 433.665 153.439 432.527 154.782 432.527C156.079 432.527 156.775 433.586 156.775 435.182C156.775 436.788 156.064 437.881 154.782 437.881ZM163.65 439.154C165.315 439.154 166.494 438.334 166.832 437.091L165.425 436.837C165.156 437.558 164.51 437.926 163.665 437.926C162.392 437.926 161.537 437.101 161.497 435.629H166.926V435.102C166.926 432.343 165.276 431.264 163.545 431.264C161.418 431.264 160.016 432.885 160.016 435.232C160.016 437.603 161.398 439.154 163.65 439.154ZM161.502 434.516C161.562 433.432 162.347 432.492 163.555 432.492C164.709 432.492 165.464 433.347 165.469 434.516H161.502ZM170.062 434.466C170.062 433.248 170.808 432.552 171.842 432.552C172.851 432.552 173.463 433.213 173.463 434.322V439H174.949V434.143C174.949 432.254 173.91 431.264 172.349 431.264C171.2 431.264 170.45 431.796 170.097 432.607H170.002V431.364H168.575V439H170.062V434.466ZM180.507 431.364H178.941V429.534H177.455V431.364H176.336V432.557H177.455V437.066C177.45 438.453 178.509 439.124 179.682 439.099C180.154 439.094 180.472 439.005 180.646 438.94L180.378 437.712C180.279 437.732 180.095 437.777 179.856 437.777C179.374 437.777 178.941 437.618 178.941 436.758V432.557H180.507V431.364ZM184.086 437.608H182.654L182.604 438.165C182.49 439.512 182.172 440.869 182.037 441.486H183.091C183.33 440.835 183.857 439.343 184.011 438.15L184.086 437.608ZM194.146 439.139C195.458 439.139 196.363 438.652 197.109 437.782H197.158L197.298 439H198.481V433.79H194.379V435.058H196.974C196.92 436.634 195.811 437.737 194.146 437.737C192.356 437.737 191.043 436.38 191.043 433.904C191.043 431.433 192.406 430.081 194.131 430.081C195.478 430.081 196.477 430.822 196.835 432.035H198.411C198.068 430.051 196.318 428.679 194.116 428.679C191.486 428.679 189.517 430.663 189.517 433.914C189.517 437.136 191.391 439.139 194.146 439.139ZM203.429 439.154C205.581 439.154 206.988 437.578 206.988 435.217C206.988 432.84 205.581 431.264 203.429 431.264C201.276 431.264 199.869 432.84 199.869 435.217C199.869 437.578 201.276 439.154 203.429 439.154ZM203.434 437.906C202.027 437.906 201.371 436.678 201.371 435.212C201.371 433.75 202.027 432.507 203.434 432.507C204.831 432.507 205.487 433.75 205.487 435.212C205.487 436.678 204.831 437.906 203.434 437.906ZM208.767 439H210.303V435.42H212.391C214.753 435.42 215.921 433.994 215.921 432.114C215.921 430.24 214.763 428.818 212.396 428.818H208.767V439ZM210.303 434.118V430.136H212.232C213.754 430.136 214.375 430.961 214.375 432.114C214.375 433.268 213.754 434.118 212.252 434.118H210.303ZM217.603 439H219.089V434.337C219.089 433.342 219.86 432.621 220.889 432.621C221.177 432.621 221.401 432.681 221.58 432.771L222.057 431.528C221.804 431.359 221.476 431.249 221.058 431.249C220.153 431.249 219.398 431.756 219.119 432.577H219.04V431.364H217.603V439ZM226.097 439.154C228.249 439.154 229.656 437.578 229.656 435.217C229.656 432.84 228.249 431.264 226.097 431.264C223.944 431.264 222.537 432.84 222.537 435.217C222.537 437.578 223.944 439.154 226.097 439.154ZM226.102 437.906C224.695 437.906 224.039 436.678 224.039 435.212C224.039 433.75 224.695 432.507 226.102 432.507C227.499 432.507 228.155 433.75 228.155 435.212C228.155 436.678 227.499 437.906 226.102 437.906Z" fill="#969BAB"/>
</g>
<defs>
<filter id="filter0_d" x="0" y="0" width="390" height="508" filterUnits="userSpaceOnUse" color-interpolation-filters="sRGB">
<feFlood flood-opacity="0" result="BackgroundImageFix"/>
<feColorMatrix in="SourceAlpha" type="matrix" values="0 0 0 0 0 0 0 0 0 0 0 0 0 0 0 0 0 0 127 0" result="hardAlpha"/>
<feOffset dy="10"/>
<feGaussianBlur stdDeviation="10"/>
<feColorMatrix type="matrix" values="0 0 0 0 0.160784 0 0 0 0 0.160784 0 0 0 0 0.164706 0 0 0 0.07 0"/>
<feBlend mode="normal" in2="BackgroundImageFix" result="effect1_dropShadow"/>
<feBlend mode="normal" in="SourceGraphic" in2="effect1_dropShadow" result="shape"/>
</filter>
<clipPath id="clip0">
<rect width="140" height="40" fill="white" transform="translate(52 42)"/>
</clipPath>
</defs>
</svg>
